{
.appVersion = "1075";
copyright = "Copyright © 2018 by Cadson Demak Co.,Ltd.. All rights reserved.";
customParameters = (
{
name = vendorID;
value = CDK;
},
{
name = description;
value = "Copyright (c) 2018, Cadson Demak (info@cadsondemak.com)";
},
{
name = license;

glyphs = (
{
glyphname = A;
lastChange = "2018-03-06 05:08:45 +0000";
layers = (
{
anchors = (
{
name = bottom;
position = "{335, 0}";
},
{
name = ogonek;
position = "{573, -1}";
},
{
name = top;
position = "{345, 700}";
}
);
layerId = "0B1DFD06-3317-40CA-B510-4969A0718C16";
paths = (
{
closed = 1;
nodes = (
"583 -10 OFFCURVE",
"591 -6 OFFCURVE",
"591 3 CURVE SMOOTH",
"591 5 OFFCURVE",
"591 6 OFFCURVE",
"589 11 CURVE SMOOTH",
"567 79 OFFCURVE",
"425 552 OFFCURVE",
"404 616 CURVE SMOOTH",
"382 682 OFFCURVE",
"368 710 OFFCURVE",
"345 710 CURVE SMOOTH",
"319 710 OFFCURVE",
"301 676 OFFCURVE",
"278 605 CURVE SMOOTH",
"223 432 OFFCURVE",
"176 289 OFFCURVE",
"81 11 CURVE SMOOTH",
"80 8 OFFCURVE",
"80 7 OFFCURVE",
"80 5 CURVE SMOOTH",
"80 -2 OFFCURVE",
"86 -8 OFFCURVE",
"95 -8 CURVE SMOOTH",
"102 -8 OFFCURVE",
"108 -5 OFFCURVE",
"111 4 CURVE SMOOTH",
"203 275 OFFCURVE",
"248 419 OFFCURVE",
"308 604 CURVE SMOOTH",
"324 652 OFFCURVE",
"337 682 OFFCURVE",
"344 682 CURVE SMOOTH",
"351 682 OFFCURVE",
"365 653 OFFCURVE",
"379 607 CURVE SMOOTH",
"430 437 OFFCURVE",
"509 159 OFFCURVE",
"561 -1 CURVE SMOOTH",
"563 -6 OFFCURVE",
"569 -10 OFFCURVE",
"575 -10 CURVE SMOOTH"
);
},
{
closed = 1;
nodes = (
"565 189 OFFCURVE",
"570 196 OFFCURVE",
"570 203 CURVE SMOOTH",
"570 211 OFFCURVE",
"565 217 OFFCURVE",
"557 217 CURVE SMOOTH",
"174 221 LINE SMOOTH",
"160 221 OFFCURVE",
"155 213 OFFCURVE",
"155 207 CURVE SMOOTH",
"155 201 OFFCURVE",
"159 191 OFFCURVE",
"170 191 CURVE SMOOTH",
"555 189 LINE SMOOTH"
);
}
);
width = 681;
},
{
anchors = (
{
name = bottom;
position = "{354, 0}";
},
{
name = ogonek;
position = "{588, 26}";
},
{
name = top;
position = "{354, 700}";
}
);
layerId = "2F8C22CF-EC86-44F4-AF1A-A6C7F26A0C3C";
paths = (
{
closed = 1;
nodes = (
"602 -11 OFFCURVE",
"643 9 OFFCURVE",
"643 50 CURVE SMOOTH",
"643 56 OFFCURVE",
"642 62 OFFCURVE",
"640 69 CURVE SMOOTH",
"553 360 OFFCURVE",
"527 446 OFFCURVE",
"479 596 CURVE SMOOTH",
"451 682 OFFCURVE",
"422 712 OFFCURVE",
"363 712 CURVE SMOOTH",
"301 712 OFFCURVE",
"270 676 OFFCURVE",
"240 587 CURVE SMOOTH",
"184 418 OFFCURVE",
"166 360 OFFCURVE",
"69 70 CURVE SMOOTH",
"67 63 OFFCURVE",
"66 56 OFFCURVE",
"66 50 CURVE SMOOTH",
"66 12 OFFCURVE",
"108 -10 OFFCURVE",
"149 -10 CURVE SMOOTH",
"181 -10 OFFCURVE",
"212 2 OFFCURVE",
"223 34 CURVE SMOOTH",
"277 184 OFFCURVE",
"314 368 OFFCURVE",
"332 431 CURVE SMOOTH",
"343 470 OFFCURVE",
"347 501 OFFCURVE",
"357 501 CURVE SMOOTH",
"366 501 OFFCURVE",
"371 470 OFFCURVE",
"385 424 CURVE SMOOTH",
"405 358 OFFCURVE",
"436 182 OFFCURVE",
"485 31 CURVE SMOOTH",
"494 3 OFFCURVE",
"527 -11 OFFCURVE",
"561 -11 CURVE SMOOTH"
);
},
{
closed = 1;
nodes = (
"588 159 OFFCURVE",
"626 172 OFFCURVE",
"626 224 CURVE SMOOTH",
"626 268 OFFCURVE",
"595 286 OFFCURVE",
"551 287 CURVE SMOOTH",
"215 291 LINE SMOOTH",
"168 292 OFFCURVE",
"140 262 OFFCURVE",
"140 223 CURVE SMOOTH",
"140 188 OFFCURVE",
"164 161 OFFCURVE",
"206 161 CURVE SMOOTH",
"543 159 LINE SMOOTH"
);
}
);
width = 709;
}
);
leftKerningGroup = A;
note = A;
rightKerningGroup = A;
unicode = 0041;
},
{
glyphname = B;
lastChange = "2018-02-24 15:16:05 +0000";
layers = (
{
anchors = (
{
name = bottom;
position = "{293, 0}";
},
{
name = top;
position = "{293, 700}";
}
);
layerId = "0B1DFD06-3317-40CA-B510-4969A0718C16";
paths = (
{
closed = 1;
nodes = (
"100 -16 OFFCURVE",
"106 -9 OFFCURVE",
"107 12 CURVE",
"94 3 LINE",
"155 3 OFFCURVE",
"176 4 OFFCURVE",
"236 0 CURVE SMOOTH",
"386 -9 OFFCURVE",
"515 41 OFFCURVE",
"515 174 CURVE SMOOTH",
"515 274 OFFCURVE",
"439 352 OFFCURVE",
"274 360 CURVE",
"274 351 LINE",
"439 358 OFFCURVE",
"525 410 OFFCURVE",
"525 519 CURVE SMOOTH",
"525 649 OFFCURVE",
"405 706 OFFCURVE",
"270 706 CURVE SMOOTH",
"203 706 OFFCURVE",
"138 692 OFFCURVE",
"85 670 CURVE SMOOTH",
"61 660 OFFCURVE",
"54 655 OFFCURVE",
"54 641 CURVE SMOOTH",
"54 631 OFFCURVE",
"61 627 OFFCURVE",
"67 627 CURVE SMOOTH",
"77 627 OFFCURVE",
"99 640 OFFCURVE",
"103 642 CURVE",
"89 653 LINE",
"95 557 OFFCURVE",
"94 478 OFFCURVE",
"94 381 CURVE SMOOTH",
"94 252 OFFCURVE",
"89 137 OFFCURVE",
"76 18 CURVE",
"88 32 LINE",
"48 33 LINE SMOOTH",
"36 33 OFFCURVE",
"31 29 OFFCURVE",
"31 18 CURVE SMOOTH",
"31 11 OFFCURVE",
"33 3 OFFCURVE",
"48 3 CURVE SMOOTH",
"86 3 LINE",
"76 13 LINE",
"73 -7 OFFCURVE",
"76 -16 OFFCURVE",
"88 -16 CURVE SMOOTH"
);
},
{
closed = 1;
nodes = (
"121 139 OFFCURVE",
"125 256 OFFCURVE",
"125 383 CURVE SMOOTH",
"125 477 OFFCURVE",
"125 560 OFFCURVE",
"122 668 CURVE",
"109 645 LINE",
"141 669 OFFCURVE",
"212 676 OFFCURVE",
"274 676 CURVE SMOOTH",
"387 676 OFFCURVE",
"494 630 OFFCURVE",
"494 517 CURVE SMOOTH",
"494 424 OFFCURVE",
"383 374 OFFCURVE",
"220 374 CURVE SMOOTH",
"203 374 OFFCURVE",
"196 369 OFFCURVE",
"196 358 CURVE SMOOTH",
"196 344 OFFCURVE",
"204 340 OFFCURVE",
"219 340 CURVE SMOOTH",
"383 340 OFFCURVE",
"484 274 OFFCURVE",
"484 174 CURVE SMOOTH",
"484 60 OFFCURVE",
"370 23 OFFCURVE",
"213 30 CURVE SMOOTH",
"157 33 OFFCURVE",
"123 32 OFFCURVE",
"94 32 CURVE",
"106 18 LINE"
);
}
);
width = 585;
},
{
anchors = (
{
name = bottom;
position = "{336, 0}";
},
{
name = top;
position = "{335, 700}";
}
);
background = {
paths = (
{
closed = 1;
nodes = (
"92 -16 OFFCURVE",
"97 -9 OFFCURVE",
"99 3 CURVE",
"144 3 OFFCURVE",
"181 3 OFFCURVE",
"230 0 CURVE SMOOTH",
"380 -9 OFFCURVE",
"509 41 OFFCURVE",
"509 174 CURVE SMOOTH",
"509 265 OFFCURVE",
"444 337 OFFCURVE",
"308 355 CURVE",
"435 370 OFFCURVE",
"519 420 OFFCURVE",
"519 519 CURVE SMOOTH",
"519 649 OFFCURVE",
"399 706 OFFCURVE",
"264 706 CURVE SMOOTH",
"197 706 OFFCURVE",
"132 692 OFFCURVE",
"79 670 CURVE SMOOTH",
"64 664 OFFCURVE",
"48 656 OFFCURVE",
"48 640 CURVE SMOOTH",
"48 636 OFFCURVE",
"49 626 OFFCURVE",
"57 626 CURVE SMOOTH",
"67 626 OFFCURVE",
"77 636 OFFCURVE",
"84 636 CURVE",
"88 574 OFFCURVE",
"88 502 OFFCURVE",
"88 435 CURVE SMOOTH",
"88 315 OFFCURVE",
"83 151 OFFCURVE",
"72 33 CURVE",
"42 33 LINE SMOOTH",
"30 33 OFFCURVE",
"25 29 OFFCURVE",
"25 18 CURVE SMOOTH",
"25 11 OFFCURVE",
"27 3 OFFCURVE",
"42 3 CURVE SMOOTH",
"69 3 LINE",
"69 -9 OFFCURVE",
"72 -16 OFFCURVE",
"82 -16 CURVE SMOOTH"
);
},
{
closed = 1;
nodes = (
"163 32 OFFCURVE",
"122 32 OFFCURVE",
"101 32 CURVE",
"114 146 OFFCURVE",
"119 271 OFFCURVE",
"119 417 CURVE SMOOTH",
"119 483 OFFCURVE",
"118 561 OFFCURVE",
"116 653 CURVE",
"150 669 OFFCURVE",
"200 677 OFFCURVE",
"248 677 CURVE SMOOTH",
"364 677 OFFCURVE",
"489 630 OFFCURVE",
"489 517 CURVE SMOOTH",
"489 402 OFFCURVE",
"361 373 OFFCURVE",
"214 370 CURVE SMOOTH",
"197 370 OFFCURVE",
"190 369 OFFCURVE",
"190 356 CURVE SMOOTH",
"190 342 OFFCURVE",
"198 340 OFFCURVE",
"213 340 CURVE SMOOTH",
"317 340 OFFCURVE",
"478 315 OFFCURVE",
"478 180 CURVE SMOOTH",
"478 66 OFFCURVE",
"364 23 OFFCURVE",
"207 30 CURVE SMOOTH"
);
}
);
};
layerId = "2F8C22CF-EC86-44F4-AF1A-A6C7F26A0C3C";
paths = (
{
closed = 1;
nodes = (
"219 -34 OFFCURVE",
"258 -22 OFFCURVE",
"263 51 CURVE",
"203 4 LINE",
"259 0 OFFCURVE",
"310 -4 OFFCURVE",
"355 -4 CURVE SMOOTH",
"497 -4 OFFCURVE",
"615 64 OFFCURVE",
"615 196 CURVE SMOOTH",
"615 269 OFFCURVE",
"579 336 OFFCURVE",
"445 373 CURVE",
"446 326 LINE",
"580 359 OFFCURVE",
"624 421 OFFCURVE",
"624 497 CURVE SMOOTH",
"624 622 OFFCURVE",
"504 708 OFFCURVE",
"336 708 CURVE SMOOTH",
"282 708 OFFCURVE",
"212 699 OFFCURVE",
"150 673 CURVE SMOOTH",
"102 653 OFFCURVE",
"80 631 OFFCURVE",
"80 593 CURVE SMOOTH",
"80 567 OFFCURVE",
"91 542 OFFCURVE",
"122 550 CURVE SMOOTH",
"134 553 OFFCURVE",
"146 558 OFFCURVE",
"154 562 CURVE",
"113 584 LINE",
"113 498 OFFCURVE",
"114 434 OFFCURVE",
"114 384 CURVE SMOOTH",
"114 274 OFFCURVE",
"110 181 OFFCURVE",
"102 94 CURVE",
"160 131 LINE",
"114 133 LINE SMOOTH",
"69 135 OFFCURVE",
"60 96 OFFCURVE",
"60 68 CURVE SMOOTH",
"60 34 OFFCURVE",
"73 15 OFFCURVE",
"113 10 CURVE SMOOTH",
"158 4 LINE",
"102 55 LINE",
"98 -13 OFFCURVE",
"137 -34 OFFCURVE",
"181 -34 CURVE SMOOTH"
);
},
{
closed = 1;
nodes = (
"274 212 OFFCURVE",
"279 280 OFFCURVE",
"279 384 CURVE SMOOTH",
"279 472 OFFCURVE",
"279 513 OFFCURVE",
"276 611 CURVE",
"237 573 LINE",
"263 576 OFFCURVE",
"286 579 OFFCURVE",
"322 579 CURVE SMOOTH",
"412 579 OFFCURVE",
"460 548 OFFCURVE",
"460 491 CURVE SMOOTH",
"460 409 OFFCURVE",
"353 417 OFFCURVE",
"276 417 CURVE SMOOTH",
"243 417 OFFCURVE",
"208 403 OFFCURVE",
"208 352 CURVE SMOOTH",
"208 304 OFFCURVE",
"233 289 OFFCURVE",
"281 289 CURVE SMOOTH",
"364 289 OFFCURVE",
"451 280 OFFCURVE",
"451 207 CURVE SMOOTH",
"451 143 OFFCURVE",
"394 123 OFFCURVE",
"328 123 CURVE SMOOTH",
"279 123 OFFCURVE",
"253 123 OFFCURVE",
"203 127 CURVE",
"263 69 LINE"
);
}
);
width = 674;
}
);
note = B;
unicode = 0042;
},
{
glyphname = C;
lastChange = "2018-03-05 10:36:34 +0000";
layers = (
{
anchors = (
{
name = bottom;
position = "{344, 0}";
},
{
name = top;
position = "{344, 700}";
}
);
layerId = "0B1DFD06-3317-40CA-B510-4969A0718C16";
paths = (
{
closed = 1;
nodes = (
"540 -2 OFFCURVE",
"658 111 OFFCURVE",
"658 235 CURVE SMOOTH",
"658 245 OFFCURVE",
"658 257 OFFCURVE",
"644 257 CURVE SMOOTH",
"634 257 OFFCURVE",
"628 250 OFFCURVE",
"628 239 CURVE SMOOTH",
"628 124 OFFCURVE",
"510 29 OFFCURVE",
"385 29 CURVE SMOOTH",
"243 29 OFFCURVE",
"81 110 OFFCURVE",
"81 329 CURVE SMOOTH",
"81 537 OFFCURVE",
"230 681 OFFCURVE",
"381 681 CURVE SMOOTH",
"470 681 OFFCURVE",
"527 638 OFFCURVE",
"583 558 CURVE SMOOTH",
"591 547 OFFCURVE",
"597 547 OFFCURVE",
"604 547 CURVE SMOOTH",
"613 547 OFFCURVE",
"619 553 OFFCURVE",
"619 563 CURVE SMOOTH",
"620 610 OFFCURVE",
"620 648 OFFCURVE",
"621 693 CURVE SMOOTH",
"621 702 OFFCURVE",
"614 707 OFFCURVE",
"604 707 CURVE SMOOTH",
"595 707 OFFCURVE",
"588 701 OFFCURVE",
"588 692 CURVE SMOOTH",
"588 665 OFFCURVE",
"589 603 OFFCURVE",
"589 578 CURVE",
"601 579 LINE",
"550 663 OFFCURVE",
"474 712 OFFCURVE",
"380 712 CURVE SMOOTH",
"212 712 OFFCURVE",
"50 568 OFFCURVE",
"50 328 CURVE SMOOTH",
"50 82 OFFCURVE",
"227 -2 OFFCURVE",
"377 -2 CURVE SMOOTH"
);
}
);
width = 688;
},
{
anchors = (
{
name = bottom;
position = "{382, 0}";
},
{
name = top;
position = "{382, 700}";
}
);
background = {
paths = (
{
closed = 1;
nodes = (
"580 -2 OFFCURVE",
"685 106 OFFCURVE",
"685 235 CURVE SMOOTH",
"685 245 OFFCURVE",
"685 257 OFFCURVE",
"671 257 CURVE SMOOTH",
"661 257 OFFCURVE",
"655 250 OFFCURVE",
"655 239 CURVE SMOOTH",
"655 163 OFFCURVE",
"599 29 OFFCURVE",
"412 29 CURVE SMOOTH",
"262 29 OFFCURVE",
"107 110 OFFCURVE",
"107 329 CURVE SMOOTH",
"107 545 OFFCURVE",
"257 681 OFFCURVE",
"408 681 CURVE SMOOTH",
"502 681 OFFCURVE",
"552 628 OFFCURVE",
"623 550 CURVE SMOOTH",
"628 545 OFFCURVE",
"633 542 OFFCURVE",
"636 542 CURVE SMOOTH",
"640 542 OFFCURVE",
"643 546 OFFCURVE",
"645 555 CURVE SMOOTH",
"648 571 OFFCURVE",
"648 592 OFFCURVE",
"648 696 CURVE SMOOTH",
"648 705 OFFCURVE",
"641 707 OFFCURVE",
"631 707 CURVE SMOOTH",
"622 707 OFFCURVE",
"615 701 OFFCURVE",
"615 692 CURVE SMOOTH",
"615 672 OFFCURVE",
"614 638 OFFCURVE",
"614 611 CURVE",
"547 674 OFFCURVE",
"490 712 OFFCURVE",
"407 712 CURVE SMOOTH",
"245 712 OFFCURVE",
"77 568 OFFCURVE",
"77 328 CURVE SMOOTH",
"77 82 OFFCURVE",
"254 -2 OFFCURVE",
"404 -2 CURVE SMOOTH"
);
}
);
};
layerId = "2F8C22CF-EC86-44F4-AF1A-A6C7F26A0C3C";
paths = (
{
closed = 1;
nodes = (
"579 -4 OFFCURVE",
"712 103 OFFCURVE",
"712 252 CURVE SMOOTH",
"712 295 OFFCURVE",
"679 322 OFFCURVE",
"631 322 CURVE SMOOTH",
"585 322 OFFCURVE",
"548 294 OFFCURVE",
"548 255 CURVE SMOOTH",
"548 178 OFFCURVE",
"486 126 OFFCURVE",
"401 126 CURVE SMOOTH",
"288 126 OFFCURVE",
"214 200 OFFCURVE",
"214 333 CURVE SMOOTH",
"214 473 OFFCURVE",
"301 584 OFFCURVE",
"404 584 CURVE SMOOTH",
"486 584 OFFCURVE",
"516 537 OFFCURVE",
"552 487 CURVE SMOOTH",
"563 472 OFFCURVE",
"586 464 OFFCURVE",
"607 464 CURVE SMOOTH",
"658 464 OFFCURVE",
"677 497 OFFCURVE",
"679 552 CURVE SMOOTH",
"680 584 OFFCURVE",
"680 617 OFFCURVE",
"680 649 CURVE SMOOTH",
"680 685 OFFCURVE",
"654 710 OFFCURVE",
"608 710 CURVE SMOOTH",
"563 710 OFFCURVE",
"543 683 OFFCURVE",
"543 646 CURVE SMOOTH",
"543 629 OFFCURVE",
"542 599 OFFCURVE",
"542 576 CURVE",
"593 576 LINE",
"579 643 OFFCURVE",
"511 714 OFFCURVE",
"364 714 CURVE SMOOTH",
"188 714 OFFCURVE",
"50 547 OFFCURVE",
"50 332 CURVE SMOOTH",
"50 129 OFFCURVE",
"191 -4 OFFCURVE",
"401 -4 CURVE SMOOTH"
);
}
);
width = 752;
}
);
leftKerningGroup = C;
note = C;
rightKerningGroup = C;
unicode = 0043;
},
{
glyphname = D;
lastChange = "2018-03-05 10:37:07 +0000";
layers = (
{
anchors = (
{
name = bottom;
position = "{341, 0}";
},
{
name = center;
position = "{341, 350}";
},
{
name = top;
position = "{341, 700}";
}
);
layerId = "0B1DFD06-3317-40CA-B510-4969A0718C16";
paths = (
{
closed = 1;
nodes = (
"134 8 OFFCURVE",
"155 8 OFFCURVE",
"180 8 CURVE SMOOTH",
"459 8 OFFCURVE",
"621 142 OFFCURVE",
"621 357 CURVE SMOOTH",
"621 606 OFFCURVE",
"407 698 OFFCURVE",
"111 698 CURVE SMOOTH",
"96 698 OFFCURVE",
"88 694 OFFCURVE",
"88 683 CURVE SMOOTH",
"88 671 OFFCURVE",
"94 667 OFFCURVE",
"111 667 CURVE SMOOTH",
"393 667 OFFCURVE",
"590 581 OFFCURVE",
"590 358 CURVE SMOOTH",
"590 152 OFFCURVE",
"427 38 OFFCURVE",
"177 38 CURVE",
"187 30 LINE",
"170 692 LINE SMOOTH",
"170 705 OFFCURVE",
"166 713 OFFCURVE",
"155 713 CURVE SMOOTH",
"145 713 OFFCURVE",
"138 708 OFFCURVE",
"138 691 CURVE SMOOTH",
"156 30 LINE",
"164 38 LINE",
"104 38 LINE SMOOTH",
"94 38 OFFCURVE",
"89 32 OFFCURVE",
"89 23 CURVE SMOOTH",
"89 14 OFFCURVE",
"93 8 OFFCURVE",
"105 8 CURVE SMOOTH"
);
}
);
width = 681;
},
{
anchors = (
{
name = bottom;
position = "{337, 0}";
},
{
name = center;
position = "{347, 351}";
},
{
name = top;
position = "{337, 700}";
}
);
background = {
paths = (
{
closed = 1;
nodes = (
"463 8 OFFCURVE",
"625 142 OFFCURVE",
"625 357 CURVE SMOOTH",
"625 606 OFFCURVE",
"407 698 OFFCURVE",
"117 698 CURVE SMOOTH",
"104 698 OFFCURVE",
"92 699 OFFCURVE",
"92 686 CURVE SMOOTH",
"92 674 OFFCURVE",
"99 669 OFFCURVE",
"115 669 CURVE SMOOTH",
"403 669 OFFCURVE",
"596 581 OFFCURVE",
"596 358 CURVE SMOOTH",
"596 158 OFFCURVE",
"421 37 OFFCURVE",
"191 37 CURVE",
"173 686 LINE SMOOTH",
"173 703 OFFCURVE",
"172 712 OFFCURVE",
"158 712 CURVE SMOOTH",
"143 712 OFFCURVE",
"142 701 OFFCURVE",
"142 684 CURVE SMOOTH",
"160 37 LINE",
"105 37 LINE SMOOTH",
"98 37 OFFCURVE",
"93 34 OFFCURVE",
"93 25 CURVE SMOOTH",
"93 13 OFFCURVE",
"97 8 OFFCURVE",
"109 8 CURVE SMOOTH",
"138 8 OFFCURVE",
"159 8 OFFCURVE",
"184 8 CURVE SMOOTH"
);
}
);
};
layerId = "2F8C22CF-EC86-44F4-AF1A-A6C7F26A0C3C";
paths = (
{
closed = 1;
nodes = (
"168 5 OFFCURVE",
"187 5 OFFCURVE",
"208 5 CURVE SMOOTH",
"482 5 OFFCURVE",
"657 143 OFFCURVE",
"657 353 CURVE SMOOTH",
"657 590 OFFCURVE",
"455 703 OFFCURVE",
"187 703 CURVE SMOOTH",
"94 703 OFFCURVE",
"60 682 OFFCURVE",
"60 637 CURVE SMOOTH",
"60 590 OFFCURVE",
"88 574 OFFCURVE",
"149 574 CURVE SMOOTH",
"295 574 OFFCURVE",
"494 537 OFFCURVE",
"494 360 CURVE SMOOTH",
"494 220 OFFCURVE",
"385 133 OFFCURVE",
"233 133 CURVE",
"283 85 LINE",
"268 636 LINE SMOOTH",
"267 690 OFFCURVE",
"245 719 OFFCURVE",
"184 719 CURVE SMOOTH",
"119 719 OFFCURVE",
"102 687 OFFCURVE",
"103 637 CURVE SMOOTH",
"118 85 LINE",
"166 133 LINE",
"118 133 LINE SMOOTH",
"76 133 OFFCURVE",
"61 111 OFFCURVE",
"61 66 CURVE SMOOTH",
"61 18 OFFCURVE",
"95 5 OFFCURVE",
"143 5 CURVE SMOOTH"
);
}
);
width = 697;
}
);
note = D;
unicode = 0044;
},
{
glyphname = E;
lastChange = "2018-03-05 10:38:15 +0000";
layers = (
{
anchors = (
{
name = bottom;
position = "{276, 0}";
},
{
name = ogonek;
position = "{475, 30}";
},
{
name = top;
position = "{276, 700}";
},
{
name = topleft;
position = "{20, 700}";
}
);
layerId = "0B1DFD06-3317-40CA-B510-4969A0718C16";
paths = (
{
closed = 1;
nodes = (
"373 14 OFFCURVE",
"423 13 OFFCURVE",
"478 22 CURVE SMOOTH",
"491 24 OFFCURVE",
"493 28 OFFCURVE",
"493 38 CURVE SMOOTH",
"493 47 OFFCURVE",
"488 55 OFFCURVE",
"474 53 CURVE SMOOTH",
"421 45 OFFCURVE",
"352 44 OFFCURVE",
"289 44 CURVE SMOOTH",
"239 44 OFFCURVE",
"149 47 OFFCURVE",
"101 52 CURVE",
"112 41 LINE",
"119 126 OFFCURVE",
"134 219 OFFCURVE",
"134 406 CURVE SMOOTH",
"134 514 OFFCURVE",
"133 604 OFFCURVE",
"129 671 CURVE",
"120 660 LINE",
"163 663 OFFCURVE",
"215 666 OFFCURVE",
"271 666 CURVE SMOOTH",
"343 666 OFFCURVE",
"426 664 OFFCURVE",
"482 657 CURVE SMOOTH",
"490 656 OFFCURVE",
"499 660 OFFCURVE",
"499 672 CURVE SMOOTH",
"499 681 OFFCURVE",
"493 686 OFFCURVE",
"483 687 CURVE SMOOTH",
"426 693 OFFCURVE",
"362 696 OFFCURVE",
"271 696 CURVE SMOOTH",
"190 696 OFFCURVE",
"162 695 OFFCURVE",
"97 690 CURVE SMOOTH",
"83 689 OFFCURVE",
"77 685 OFFCURVE",
"77 674 CURVE SMOOTH",
"77 660 OFFCURVE",
"83 658 OFFCURVE",
"110 660 CURVE",
"99 670 LINE",
"104 603 OFFCURVE",
"103 513 OFFCURVE",
"103 406 CURVE SMOOTH",
"103 242 OFFCURVE",
"93 128 OFFCURVE",
"79 42 CURVE",
"92 52 LINE",
"75 54 OFFCURVE",
"66 55 OFFCURVE",
"59 55 CURVE SMOOTH",
"51 55 OFFCURVE",
"45 49 OFFCURVE",
"45 40 CURVE SMOOTH",
"45 30 OFFCURVE",
"49 25 OFFCURVE",
"61 24 CURVE SMOOTH",
"142 17 OFFCURVE",
"214 14 OFFCURVE",
"289 14 CURVE SMOOTH"
);
},
{
closed = 1;
nodes = (
"407 349 OFFCURVE",
"411 356 OFFCURVE",
"411 365 CURVE SMOOTH",
"411 374 OFFCURVE",
"405 380 OFFCURVE",
"395 380 CURVE SMOOTH",
"363 380 OFFCURVE",
"279 384 OFFCURVE",
"232 384 CURVE SMOOTH",
"162 384 OFFCURVE",
"98 387 OFFCURVE",
"75 387 CURVE SMOOTH",
"63 387 OFFCURVE",
"58 381 OFFCURVE",
"58 372 CURVE SMOOTH",
"58 363 OFFCURVE",
"63 356 OFFCURVE",
"75 356 CURVE SMOOTH",
"98 356 OFFCURVE",
"161 354 OFFCURVE",
"229 354 CURVE SMOOTH",
"283 354 OFFCURVE",
"364 349 OFFCURVE",
"394 349 CURVE SMOOTH"
);
}
);
width = 535;
},
{
anchors = (
{
name = bottom;
position = "{338, 0}";
},
{
name = ogonek;
position = "{530, 51}";
},
{
name = top;
position = "{338, 700}";
},
{
name = topleft;
position = "{108, 652}";
}
);
layerId = "2F8C22CF-EC86-44F4-AF1A-A6C7F26A0C3C";
paths = (
{
closed = 1;
nodes = (
"435 9 OFFCURVE",
"476 9 OFFCURVE",
"530 18 CURVE SMOOTH",
"571 25 OFFCURVE",
"584 52 OFFCURVE",
"584 82 CURVE SMOOTH",
"584 122 OFFCURVE",
"557 152 OFFCURVE",
"507 145 CURVE SMOOTH",
"462 139 OFFCURVE",
"419 136 OFFCURVE",
"358 136 CURVE SMOOTH",
"305 136 OFFCURVE",
"283 137 OFFCURVE",
"208 145 CURVE",
"259 93 LINE",
"278 213 OFFCURVE",
"278 254 OFFCURVE",
"278 382 CURVE SMOOTH",
"278 431 OFFCURVE",
"274 520 OFFCURVE",
"274 620 CURVE",
"227 567 LINE",
"260 570 OFFCURVE",
"309 574 OFFCURVE",
"368 574 CURVE SMOOTH",
"439 574 OFFCURVE",
"488 570 OFFCURVE",
"534 566 CURVE SMOOTH",
"569 563 OFFCURVE",
"590 592 OFFCURVE",
"590 631 CURVE SMOOTH",
"590 667 OFFCURVE",
"570 689 OFFCURVE",
"527 693 CURVE SMOOTH",
"484 697 OFFCURVE",
"427 701 OFFCURVE",
"346 701 CURVE SMOOTH",
"273 701 OFFCURVE",
"197 700 OFFCURVE",
"158 696 CURVE SMOOTH",
"109 691 OFFCURVE",
"88 671 OFFCURVE",
"88 632 CURVE SMOOTH",
"88 593 OFFCURVE",
"107 566 OFFCURVE",
"169 567 CURVE",
"112 620 LINE",
"112 505 OFFCURVE",
"111 419 OFFCURVE",
"111 372 CURVE SMOOTH",
"111 285 OFFCURVE",
"116 225 OFFCURVE",
"93 103 CURVE",
"159 148 LINE",
"137 148 OFFCURVE",
"116 148 OFFCURVE",
"101 147 CURVE SMOOTH",
"73 145 OFFCURVE",
"60 118 OFFCURVE",
"60 80 CURVE SMOOTH",
"60 52 OFFCURVE",
"73 28 OFFCURVE",
"104 24 CURVE SMOOTH",
"211 10 OFFCURVE",
"271 9 OFFCURVE",
"356 9 CURVE SMOOTH"
);
},
{
closed = 1;
nodes = (
"499 300 OFFCURVE",
"515 326 OFFCURVE",
"515 369 CURVE SMOOTH",
"515 402 OFFCURVE",
"502 425 OFFCURVE",
"471 427 CURVE SMOOTH",
"421 431 OFFCURVE",
"369 431 OFFCURVE",
"290 431 CURVE SMOOTH",
"208 431 OFFCURVE",
"162 433 OFFCURVE",
"123 433 CURVE SMOOTH",
"82 433 OFFCURVE",
"71 399 OFFCURVE",
"71 369 CURVE SMOOTH",
"71 331 OFFCURVE",
"91 303 OFFCURVE",
"124 303 CURVE SMOOTH",
"162 303 OFFCURVE",
"227 302 OFFCURVE",
"290 302 CURVE SMOOTH",
"370 302 OFFCURVE",
"408 300 OFFCURVE",
"471 300 CURVE SMOOTH"
);
}
);
width = 630;
}
);
note = E;
unicode = 0045;
},
{
glyphname = F;
lastChange = "2018-02-26 11:50:13 +0000";
layers = (
{
anchors = (
{
name = bottom;
position = "{259, 0}";
},
{
name = top;
position = "{259, 700}";
}
);
layerId = "0B1DFD06-3317-40CA-B510-4969A0718C16";
paths = (
{
closed = 1;
nodes = (
"121 6 OFFCURVE",
"128 10 OFFCURVE",
"129 18 CURVE SMOOTH",
"135 70 OFFCURVE",
"141 184 OFFCURVE",
"141 355 CURVE SMOOTH",
"141 525 OFFCURVE",
"131 643 OFFCURVE",
"121 726 CURVE SMOOTH",
"119 742 OFFCURVE",
"112 745 OFFCURVE",
"103 745 CURVE SMOOTH",
"95 745 OFFCURVE",
"87 740 OFFCURVE",
"89 727 CURVE SMOOTH",
"100 640 OFFCURVE",
"110 531 OFFCURVE",
"110 354 CURVE SMOOTH",
"110 184 OFFCURVE",
"104 71 OFFCURVE",
"98 20 CURVE SMOOTH",
"97 11 OFFCURVE",
"104 6 OFFCURVE",
"113 6 CURVE SMOOTH"
);
},
{
closed = 1;
nodes = (
"91 331 OFFCURVE",
"163 343 OFFCURVE",
"250 343 CURVE SMOOTH",
"312 343 OFFCURVE",
"365 342 OFFCURVE",
"409 339 CURVE SMOOTH",
"417 338 OFFCURVE",
"425 342 OFFCURVE",
"425 352 CURVE SMOOTH",
"425 363 OFFCURVE",
"418 368 OFFCURVE",
"408 369 CURVE SMOOTH",
"369 372 OFFCURVE",
"325 373 OFFCURVE",
"250 373 CURVE SMOOTH",
"165 373 OFFCURVE",
"89 361 OFFCURVE",
"48 356 CURVE SMOOTH",
"39 355 OFFCURVE",
"35 347 OFFCURVE",
"35 338 CURVE SMOOTH",
"35 328 OFFCURVE",
"43 324 OFFCURVE",
"51 325 CURVE SMOOTH"
);
},
{
closed = 1;
nodes = (
"481 655 OFFCURVE",
"486 661 OFFCURVE",
"486 670 CURVE SMOOTH",
"486 679 OFFCURVE",
"482 685 OFFCURVE",
"471 687 CURVE SMOOTH",
"418 697 OFFCURVE",
"373 700 OFFCURVE",
"275 700 CURVE SMOOTH",
"180 700 OFFCURVE",
"135 694 OFFCURVE",
"50 689 CURVE SMOOTH",
"36 688 OFFCURVE",
"33 681 OFFCURVE",
"33 674 CURVE SMOOTH",
"33 664 OFFCURVE",
"37 657 OFFCURVE",
"51 658 CURVE SMOOTH",
"135 664 OFFCURVE",
"211 670 OFFCURVE",
"275 670 CURVE SMOOTH",
"330 670 OFFCURVE",
"406 667 OFFCURVE",
"469 657 CURVE SMOOTH"
);
}
);
width = 517;
},
{
anchors = (
{
name = bottom;
position = "{198, 0}";
},
{
name = top;
position = "{335, 700}";
}
);
layerId = "2F8C22CF-EC86-44F4-AF1A-A6C7F26A0C3C";
paths = (
{
closed = 1;
nodes = (
"246 5 OFFCURVE",
"281 30 OFFCURVE",
"283 65 CURVE SMOOTH",
"287 137 OFFCURVE",
"292 200 OFFCURVE",
"292 358 CURVE SMOOTH",
"292 506 OFFCURVE",
"283 605 OFFCURVE",
"276 678 CURVE SMOOTH",
"272 720 OFFCURVE",
"242 746 OFFCURVE",
"193 746 CURVE SMOOTH",
"148 746 OFFCURVE",
"107 717 OFFCURVE",
"110 679 CURVE SMOOTH",
"118 590 OFFCURVE",
"128 500 OFFCURVE",
"128 353 CURVE SMOOTH",
"128 193 OFFCURVE",
"124 139 OFFCURVE",
"118 66 CURVE SMOOTH",
"115 30 OFFCURVE",
"154 5 OFFCURVE",
"200 5 CURVE SMOOTH"
);
},
{
closed = 1;
nodes = (
"144 284 OFFCURVE",
"244 294 OFFCURVE",
"313 294 CURVE SMOOTH",
"394 294 OFFCURVE",
"432 291 OFFCURVE",
"478 286 CURVE SMOOTH",
"521 281 OFFCURVE",
"541 312 OFFCURVE",
"541 348 CURVE SMOOTH",
"541 381 OFFCURVE",
"521 405 OFFCURVE",
"487 411 CURVE SMOOTH",
"436 420 OFFCURVE",
"373 422 OFFCURVE",
"305 422 CURVE SMOOTH",
"238 422 OFFCURVE",
"178 417 OFFCURVE",
"126 409 CURVE SMOOTH",
"81 402 OFFCURVE",
"63 382 OFFCURVE",
"63 343 CURVE SMOOTH",
"63 307 OFFCURVE",
"84 276 OFFCURVE",
"115 280 CURVE SMOOTH"
);
},
{
closed = 1;
nodes = (
"572 563 OFFCURVE",
"591 597 OFFCURVE",
"591 631 CURVE SMOOTH",
"591 660 OFFCURVE",
"578 687 OFFCURVE",
"534 695 CURVE SMOOTH",
"485 703 OFFCURVE",
"417 707 OFFCURVE",
"352 707 CURVE SMOOTH",
"301 707 OFFCURVE",
"192 706 OFFCURVE",
"119 701 CURVE SMOOTH",
"72 698 OFFCURVE",
"60 673 OFFCURVE",
"60 638 CURVE SMOOTH",
"60 597 OFFCURVE",
"76 575 OFFCURVE",
"126 575 CURVE SMOOTH",
"169 575 OFFCURVE",
"264 579 OFFCURVE",
"350 579 CURVE SMOOTH",
"409 579 OFFCURVE",
"489 573 OFFCURVE",
"531 568 CURVE SMOOTH"
);
}
);
width = 621;
}
);
note = F;
unicode = 0046;
},
{
glyphname = G;
lastChange = "2018-03-05 10:38:45 +0000";
layers = (
{
anchors = (
{
name = bottom;
position = "{365, 0}";
},
{
name = top;
position = "{365, 700}";
}
);
layerId = "0B1DFD06-3317-40CA-B510-4969A0718C16";
paths = (
{
closed = 1;
nodes = (
"560 3 OFFCURVE",
"629 115 OFFCURVE",
"629 317 CURVE",
"619 305 LINE",
"676 304 LINE SMOOTH",
"684 304 OFFCURVE",
"690 309 OFFCURVE",
"690 319 CURVE SMOOTH",
"690 329 OFFCURVE",
"685 334 OFFCURVE",
"676 334 CURVE SMOOTH",
"431 339 LINE SMOOTH",
"424 339 OFFCURVE",
"414 335 OFFCURVE",
"414 324 CURVE SMOOTH",
"414 313 OFFCURVE",
"419 308 OFFCURVE",
"431 308 CURVE SMOOTH",
"611 305 LINE",
"598 317 LINE",
"598 135 OFFCURVE",
"542 34 OFFCURVE",
"375 34 CURVE SMOOTH",
"195 34 OFFCURVE",
"81 176 OFFCURVE",
"81 344 CURVE SMOOTH",
"81 505 OFFCURVE",
"190 657 OFFCURVE",
"379 657 CURVE SMOOTH",
"466 657 OFFCURVE",
"526 618 OFFCURVE",
"583 561 CURVE SMOOTH",
"593 551 OFFCURVE",
"597 548 OFFCURVE",
"608 548 CURVE SMOOTH",
"618 548 OFFCURVE",
"624 554 OFFCURVE",
"628 563 CURVE SMOOTH",
"635 578 OFFCURVE",
"637 619 OFFCURVE",
"637 644 CURVE SMOOTH",
"637 651 OFFCURVE",
"631 655 OFFCURVE",
"621 655 CURVE SMOOTH",
"611 655 OFFCURVE",
"608 649 OFFCURVE",
"608 635 CURVE SMOOTH",
"608 613 OFFCURVE",
"607 599 OFFCURVE",
"602 574 CURVE",
"615 574 LINE",
"566 632 OFFCURVE",
"486 688 OFFCURVE",
"379 688 CURVE SMOOTH",
"173 688 OFFCURVE",
"50 528 OFFCURVE",
"50 348 CURVE SMOOTH",
"50 169 OFFCURVE",
"171 3 OFFCURVE",
"375 3 CURVE SMOOTH"
);
}
);
width = 729;
},
{
anchors = (
{
name = bottom;
position = "{390, 0}";
},
{
name = top;
position = "{390, 700}";
}
);
layerId = "2F8C22CF-EC86-44F4-AF1A-A6C7F26A0C3C";
paths = (
{
closed = 1;
nodes = (
"571 -1 OFFCURVE",
"678 114 OFFCURVE",
"678 310 CURVE",
"622 259 LINE",
"659 258 LINE SMOOTH",
"704 257 OFFCURVE",
"730 285 OFFCURVE",
"730 324 CURVE SMOOTH",
"730 363 OFFCURVE",
"705 386 OFFCURVE",
"653 387 CURVE SMOOTH",
"425 392 LINE SMOOTH",
"380 393 OFFCURVE",
"354 364 OFFCURVE",
"354 327 CURVE SMOOTH",
"354 288 OFFCURVE",
"373 262 OFFCURVE",
"422 261 CURVE SMOOTH",
"565 258 LINE",
"513 310 LINE",
"513 185 OFFCURVE",
"472 129 OFFCURVE",
"389 129 CURVE SMOOTH",
"282 129 OFFCURVE",
"205 219 OFFCURVE",
"205 344 CURVE SMOOTH",
"205 477 OFFCURVE",
"279 561 OFFCURVE",
"399 561 CURVE SMOOTH",
"478 561 OFFCURVE",
"509 532 OFFCURVE",
"537 507 CURVE SMOOTH",
"568 480 OFFCURVE",
"584 471 OFFCURVE",
"609 471 CURVE SMOOTH",
"639 471 OFFCURVE",
"655 480 OFFCURVE",
"667 503 CURVE SMOOTH",
"680 528 OFFCURVE",
"683 563 OFFCURVE",
"681 616 CURVE SMOOTH",
"680 643 OFFCURVE",
"652 668 OFFCURVE",
"608 668 CURVE SMOOTH",
"563 668 OFFCURVE",
"539 644 OFFCURVE",
"539 607 CURVE SMOOTH",
"539 593 OFFCURVE",
"539 581 OFFCURVE",
"539 570 CURVE",
"586 570 LINE",
"586 607 OFFCURVE",
"511 692 OFFCURVE",
"386 692 CURVE SMOOTH",
"183 692 OFFCURVE",
"40 546 OFFCURVE",
"40 348 CURVE SMOOTH",
"40 149 OFFCURVE",
"189 -1 OFFCURVE",
"389 -1 CURVE SMOOTH"
);
}
);
width = 760;
}
);
note = G;
unicode = 0047;
},
{
glyphname = H;
lastChange = "2018-03-05 10:38:54 +0000";
layers = (
{
anchors = (
{
name = bottom;
position = "{333, 0}";
},
{
name = center;
position = "{333, 350}";
},
{
name = top;
position = "{333, 700}";
},
{
name = topleft;
position = "{20, 700}";
}
);
layerId = "0B1DFD06-3317-40CA-B510-4969A0718C16";
paths = (
{
closed = 1;
nodes = (
"120 -5 OFFCURVE",
"124 -1 OFFCURVE",
"125 6 CURVE SMOOTH",
"181 702 LINE SMOOTH",
"182 713 OFFCURVE",
"178 721 OFFCURVE",
"167 721 CURVE SMOOTH",
"158 721 OFFCURVE",
"151 716 OFFCURVE",
"150 704 CURVE SMOOTH",
"94 10 LINE SMOOTH",
"93 1 OFFCURVE",
"98 -5 OFFCURVE",
"109 -5 CURVE SMOOTH"
);
},
{
closed = 1;
nodes = (
"615 297 OFFCURVE",
"621 302 OFFCURVE",
"621 313 CURVE SMOOTH",
"621 324 OFFCURVE",
"615 329 OFFCURVE",
"603 329 CURVE SMOOTH",
"72 337 LINE SMOOTH",
"65 337 OFFCURVE",
"57 332 OFFCURVE",
"57 323 CURVE SMOOTH",
"57 313 OFFCURVE",
"61 307 OFFCURVE",
"71 307 CURVE SMOOTH",
"604 297 LINE"
);
},
{
closed = 1;
nodes = (
"564 0 OFFCURVE",
"568 6 OFFCURVE",
"568 17 CURVE SMOOTH",
"548 705 LINE SMOOTH",
"548 714 OFFCURVE",
"543 721 OFFCURVE",
"532 721 CURVE SMOOTH",
"522 721 OFFCURVE",
"517 715 OFFCURVE",
"517 703 CURVE SMOOTH",
"537 16 LINE SMOOTH",
"537 5 OFFCURVE",
"542 0 OFFCURVE",
"554 0 CURVE"
);
}
);
width = 665;
},
{
anchors = (
{
name = bottom;
position = "{395, 0}";
},
{
name = center;
position = "{385, 351}";
},
{
name = top;
position = "{395, 700}";
},
{
name = topleft;
position = "{98, 653}";
}
);
layerId = "2F8C22CF-EC86-44F4-AF1A-A6C7F26A0C3C";
paths = (
{
closed = 1;
nodes = (
"219 -7 OFFCURVE",
"254 9 OFFCURVE",
"257 45 CURVE SMOOTH",
"305 651 LINE SMOOTH",
"308 693 OFFCURVE",
"274 723 OFFCURVE",
"226 723 CURVE SMOOTH",
"181 723 OFFCURVE",
"144 698 OFFCURVE",
"141 662 CURVE SMOOTH",
"93 55 LINE SMOOTH",
"90 13 OFFCURVE",
"126 -7 OFFCURVE",
"175 -7 CURVE SMOOTH"
);
},
{
closed = 1;
nodes = (
"688 254 OFFCURVE",
"725 270 OFFCURVE",
"725 319 CURVE SMOOTH",
"725 368 OFFCURVE",
"688 384 OFFCURVE",
"641 385 CURVE SMOOTH",
"145 392 LINE SMOOTH",
"100 393 OFFCURVE",
"60 371 OFFCURVE",
"60 328 CURVE SMOOTH",
"60 286 OFFCURVE",
"98 263 OFFCURVE",
"141 262 CURVE SMOOTH",
"640 254 LINE"
);
},
{
closed = 1;
nodes = (
"645 -2 OFFCURVE",
"680 25 OFFCURVE",
"679 67 CURVE SMOOTH",
"662 659 LINE SMOOTH",
"661 694 OFFCURVE",
"626 723 OFFCURVE",
"580 723 CURVE SMOOTH",
"533 723 OFFCURVE",
"496 694 OFFCURVE",
"497 655 CURVE SMOOTH",
"515 63 LINE SMOOTH",
"516 23 OFFCURVE",
"555 -2 OFFCURVE",
"599 -2 CURVE SMOOTH"
);
}
);
width = 785;
}
);
note = H;
unicode = 0048;
},
{
glyphname = I;
lastChange = "2018-03-05 10:39:47 +0000";
layers = (
{
anchors = (
{
name = bottom;
position = "{194, 0}";
},
{
name = ogonek;
position = "{346, 14}";
},
{
name = top;
position = "{194, 700}";
},
{
name = topleft;
position = "{20, 700}";
}
);
layerId = "0B1DFD06-3317-40CA-B510-4969A0718C16";
paths = (
{
closed = 1;
nodes = (
"229 267 OFFCURVE",
"233 431 OFFCURVE",
"233 681 CURVE",
"202 681 LINE",
"202 431 OFFCURVE",
"196 268 OFFCURVE",
"181 30 CURVE",
"212 29 LINE"
);
},
{
closed = 1;
nodes = (
"360 5 OFFCURVE",
"364 11 OFFCURVE",
"364 22 CURVE SMOOTH",
"364 31 OFFCURVE",
"360 37 OFFCURVE",
"349 37 CURVE SMOOTH",
"46 41 LINE SMOOTH",
"38 41 OFFCURVE",
"31 37 OFFCURVE",
"31 26 CURVE SMOOTH",
"31 16 OFFCURVE",
"37 10 OFFCURVE",
"44 10 CURVE SMOOTH",
"349 5 LINE SMOOTH"
);
},
{
closed = 1;
nodes = (
"100 672 OFFCURVE",
"182 677 OFFCURVE",
"212 677 CURVE SMOOTH",
"256 677 OFFCURVE",
"301 677 OFFCURVE",
"347 672 CURVE SMOOTH",
"356 671 OFFCURVE",
"364 675 OFFCURVE",
"364 687 CURVE SMOOTH",
"364 698 OFFCURVE",
"358 701 OFFCURVE",
"350 702 CURVE SMOOTH",
"304 708 OFFCURVE",
"266 708 OFFCURVE",
"212 708 CURVE SMOOTH",
"160 708 OFFCURVE",
"83 703 OFFCURVE",
"42 698 CURVE SMOOTH",
"33 697 OFFCURVE",
"26 692 OFFCURVE",
"26 682 CURVE SMOOTH",
"26 673 OFFCURVE",
"31 667 OFFCURVE",
"42 667 CURVE SMOOTH"
);
}
);
width = 390;
},
{
anchors = (
{
name = bottom;
position = "{265, 0}";
},
{
name = ogonek;
position = "{418, 37}";
},
{
name = top;
position = "{265, 700}";
},
{
name = topleft;
position = "{104, 653}";
}
);
layerId = "2F8C22CF-EC86-44F4-AF1A-A6C7F26A0C3C";
paths = (
{
closed = 1;
nodes = (
"353 249 OFFCURVE",
"357 445 OFFCURVE",
"357 636 CURVE",
"192 636 LINE",
"192 445 OFFCURVE",
"186 253 OFFCURVE",
"174 78 CURVE",
"338 69 LINE"
);
},
{
closed = 1;
nodes = (
"452 2 OFFCURVE",
"470 29 OFFCURVE",
"470 68 CURVE SMOOTH",
"470 105 OFFCURVE",
"455 132 OFFCURVE",
"406 133 CURVE SMOOTH",
"105 137 LINE SMOOTH",
"76 137 OFFCURVE",
"45 118 OFFCURVE",
"45 72 CURVE SMOOTH",
"45 37 OFFCURVE",
"60 7 OFFCURVE",
"105 6 CURVE SMOOTH",
"405 2 LINE"
);
},
{
closed = 1;
nodes = (
"109 571 OFFCURVE",
"193 580 OFFCURVE",
"253 580 CURVE SMOOTH",
"321 580 OFFCURVE",
"389 579 OFFCURVE",
"407 577 CURVE SMOOTH",
"448 573 OFFCURVE",
"470 602 OFFCURVE",
"470 641 CURVE SMOOTH",
"470 676 OFFCURVE",
"452 702 OFFCURVE",
"413 705 CURVE SMOOTH",
"373 708 OFFCURVE",
"330 712 OFFCURVE",
"265 711 CURVE SMOOTH",
"193 710 OFFCURVE",
"130 706 OFFCURVE",
"97 702 CURVE SMOOTH",
"61 698 OFFCURVE",
"40 677 OFFCURVE",
"40 637 CURVE SMOOTH",
"40 596 OFFCURVE",
"61 571 OFFCURVE",
"92 571 CURVE SMOOTH"
);
}
);
width = 510;
}
);
note = I;
unicode = 0049;
},
{
glyphname = J;
lastChange = "2018-02-28 10:31:26 +0000";
layers = (
{
anchors = (
{
name = bottom;
position = "{245, 0}";
},
{
name = top;
position = "{245, 700}";
}
);
layerId = "0B1DFD06-3317-40CA-B510-4969A0718C16";
paths = (
{
closed = 1;
nodes = (
"331 2 OFFCURVE",
"417 83 OFFCURVE",
"417 259 CURVE SMOOTH",
"417 373 OFFCURVE",
"414 530 OFFCURVE",
"423 681 CURVE",
"393 681 LINE",
"384 532 OFFCURVE",
"386 373 OFFCURVE",
"386 258 CURVE SMOOTH",
"386 90 OFFCURVE",
"308 33 OFFCURVE",
"216 33 CURVE SMOOTH",
"146 33 OFFCURVE",
"56 51 OFFCURVE",
"56 251 CURVE SMOOTH",
"56 264 OFFCURVE",
"52 271 OFFCURVE",
"41 271 CURVE SMOOTH",
"29 271 OFFCURVE",
"25 264 OFFCURVE",
"25 251 CURVE SMOOTH",
"25 42 OFFCURVE",
"131 2 OFFCURVE",
"218 2 CURVE SMOOTH"
);
},
{
closed = 1;
nodes = (
"352 671 OFFCURVE",
"448 671 OFFCURVE",
"500 668 CURVE SMOOTH",
"507 668 OFFCURVE",
"512 674 OFFCURVE",
"512 683 CURVE SMOOTH",
"512 692 OFFCURVE",
"508 697 OFFCURVE",
"500 698 CURVE SMOOTH",
"481 700 OFFCURVE",
"440 699 OFFCURVE",
"401 699 CURVE SMOOTH",
"366 699 OFFCURVE",
"323 698 OFFCURVE",
"296 695 CURVE SMOOTH",
"288 694 OFFCURVE",
"283 688 OFFCURVE",
"283 679 CURVE SMOOTH",
"283 670 OFFCURVE",
"288 664 OFFCURVE",
"297 665 CURVE SMOOTH"
);
}
);
width = 489;
},
{
anchors = (
{
name = bottom;
position = "{259, 0}";
},
{
name = top;
position = "{415, 700}";
}
);
layerId = "2F8C22CF-EC86-44F4-AF1A-A6C7F26A0C3C";
paths = (
{
closed = 1;
nodes = (
"404 -2 OFFCURVE",
"496 103 OFFCURVE",
"496 272 CURVE SMOOTH",
"496 397 OFFCURVE",
"489 488 OFFCURVE",
"498 640 CURVE",
"338 639 LINE",
"330 488 OFFCURVE",
"332 397 OFFCURVE",
"332 271 CURVE SMOOTH",
"332 172 OFFCURVE",
"303 129 OFFCURVE",
"254 129 CURVE SMOOTH",
"207 129 OFFCURVE",
"186 172 OFFCURVE",
"184 266 CURVE SMOOTH",
"184 306 OFFCURVE",
"149 334 OFFCURVE",
"102 334 CURVE SMOOTH",
"51 334 OFFCURVE",
"20 307 OFFCURVE",
"20 259 CURVE SMOOTH",
"20 97 OFFCURVE",
"109 -2 OFFCURVE",
"256 -2 CURVE SMOOTH"
);
},
{
closed = 1;
nodes = (
"321 576 OFFCURVE",
"475 576 OFFCURVE",
"518 576 CURVE SMOOTH",
"561 576 OFFCURVE",
"579 605 OFFCURVE",
"579 639 CURVE SMOOTH",
"579 672 OFFCURVE",
"566 699 OFFCURVE",
"517 702 CURVE SMOOTH",
"497 703 OFFCURVE",
"442 704 OFFCURVE",
"414 704 CURVE SMOOTH",
"369 704 OFFCURVE",
"335 703 OFFCURVE",
"287 701 CURVE SMOOTH",
"261 700 OFFCURVE",
"241 678 OFFCURVE",
"241 639 CURVE SMOOTH",
"241 595 OFFCURVE",
"260 576 OFFCURVE",
"305 576 CURVE SMOOTH"
);
}
);
width = 639;
}
);
note = J;
unicode = 004A;
},
{
glyphname = K;
lastChange = "2018-03-05 10:40:23 +0000";
layers = (
{
anchors = (
{
name = bottom;
position = "{293, 0}";
},
{
name = top;
position = "{293, 700}";
}
);
layerId = "0B1DFD06-3317-40CA-B510-4969A0718C16";
paths = (
{
closed = 1;
nodes = (
"111 2 OFFCURVE",
"119 6 OFFCURVE",
"119 23 CURVE SMOOTH",
"122 207 OFFCURVE",
"122 259 OFFCURVE",
"123 360 CURVE",
"113 360 LINE",
"187 279 OFFCURVE",
"227 240 OFFCURVE",
"305 176 CURVE SMOOTH",
"386 110 OFFCURVE",
"447 61 OFFCURVE",
"533 4 CURVE SMOOTH",
"540 -1 OFFCURVE",
"549 4 OFFCURVE",
"552 10 CURVE SMOOTH",
"556 17 OFFCURVE",
"552 29 OFFCURVE",
"547 32 CURVE SMOOTH",
"467 83 OFFCURVE",
"412 123 OFFCURVE",
"324 198 CURVE SMOOTH",
"235 273 OFFCURVE",
"207 306 OFFCURVE",
"144 369 CURVE",
"207 411 OFFCURVE",
"271 449 OFFCURVE",
"349 502 CURVE SMOOTH",
"439 563 OFFCURVE",
"531 629 OFFCURVE",
"569 658 CURVE SMOOTH",
"577 664 OFFCURVE",
"579 674 OFFCURVE",
"573 682 CURVE SMOOTH",
"566 690 OFFCURVE",
"558 690 OFFCURVE",
"552 685 CURVE SMOOTH",
"509 649 OFFCURVE",
"424 588 OFFCURVE",
"326 523 CURVE SMOOTH",
"259 479 OFFCURVE",
"188 433 OFFCURVE",
"113 389 CURVE",
"124 389 LINE",
"121 553 OFFCURVE",
"122 484 OFFCURVE",
"122 680 CURVE SMOOTH",
"122 690 OFFCURVE",
"116 697 OFFCURVE",
"107 697 CURVE SMOOTH",
"98 697 OFFCURVE",
"90 692 OFFCURVE",
"90 683 CURVE SMOOTH",
"90 553 OFFCURVE",
"91 487 OFFCURVE",
"91 374 CURVE SMOOTH",
"91 257 OFFCURVE",
"89 208 OFFCURVE",
"87 27 CURVE SMOOTH",
"87 8 OFFCURVE",
"92 2 OFFCURVE",
"102 2 CURVE SMOOTH"
);
}
);
width = 585;
},
{
anchors = (
{
name = bottom;
position = "{319, 0}";
},
{
name = top;
position = "{319, 700}";
}
);
layerId = "2F8C22CF-EC86-44F4-AF1A-A6C7F26A0C3C";
paths = (
{
closed = 1;
nodes = (
"186 -2 OFFCURVE",
"224 21 OFFCURVE",
"224 59 CURVE SMOOTH",
"224 141 OFFCURVE",
"226 183 OFFCURVE",
"227 290 CURVE",
"158 290 LINE",
"214 240 OFFCURVE",
"270 191 OFFCURVE",
"326 141 CURVE SMOOTH",
"375 97 OFFCURVE",
"424 54 OFFCURVE",
"473 10 CURVE SMOOTH",
"505 -13 OFFCURVE",
"554 -6 OFFCURVE",
"574 21 CURVE SMOOTH",
"595 49 OFFCURVE",
"602 87 OFFCURVE",
"563 119 CURVE SMOOTH",
"492 176 OFFCURVE",
"457 208 OFFCURVE",
"405 251 CURVE SMOOTH",
"360 288 OFFCURVE",
"315 326 OFFCURVE",
"257 371 CURVE",
"263 375 OFFCURVE",
"338 423 OFFCURVE",
"415 472 CURVE SMOOTH",
"501 528 OFFCURVE",
"537 551 OFFCURVE",
"586 586 CURVE SMOOTH",
"614 606 OFFCURVE",
"616 653 OFFCURVE",
"591 680 CURVE SMOOTH",
"567 706 OFFCURVE",
"518 709 OFFCURVE",
"489 688 CURVE SMOOTH",
"436 649 OFFCURVE",
"382 611 OFFCURVE",
"329 572 CURVE SMOOTH",
"272 530 OFFCURVE",
"215 489 OFFCURVE",
"158 447 CURVE",
"228 447 LINE",
"227 527 OFFCURVE",
"227 566 OFFCURVE",
"227 634 CURVE SMOOTH",
"227 673 OFFCURVE",
"191 701 OFFCURVE",
"146 701 CURVE SMOOTH",
"101 701 OFFCURVE",
"62 673 OFFCURVE",
"62 637 CURVE SMOOTH",
"63 533 OFFCURVE",
"65 470 OFFCURVE",
"65 353 CURVE SMOOTH",
"65 253 OFFCURVE",
"60 190 OFFCURVE",
"60 71 CURVE SMOOTH",
"60 26 OFFCURVE",
"93 -2 OFFCURVE",
"142 -2 CURVE SMOOTH"
);
}
);
width = 640;
}
);
note = K;
unicode = 004B;
},
{
glyphname = L;
lastChange = "2018-03-05 10:40:44 +0000";
layers = (
{
anchors = (
{
name = bottom;
position = "{252, 0}";
},
{
name = center;
position = "{277, 335}";
},
{
name = top;
position = "{126, 735}";
},
{
name = topright;
position = "{99, 549}";
}
);
layerId = "0B1DFD06-3317-40CA-B510-4969A0718C16";
paths = (
{
closed = 1;
nodes = (
"316 0 OFFCURVE",
"361 6 OFFCURVE",
"452 23 CURVE SMOOTH",
"463 25 OFFCURVE",
"469 31 OFFCURVE",
"469 43 CURVE SMOOTH",
"469 56 OFFCURVE",
"458 59 OFFCURVE",
"447 57 CURVE SMOOTH",
"341 35 OFFCURVE",
"287 29 OFFCURVE",
"205 29 CURVE SMOOTH",
"108 29 OFFCURVE",
"92 82 OFFCURVE",
"92 181 CURVE SMOOTH",
"92 354 OFFCURVE",
"101 442 OFFCURVE",
"138 682 CURVE SMOOTH",
"140 696 OFFCURVE",
"135 702 OFFCURVE",
"124 702 CURVE SMOOTH",
"114 702 OFFCURVE",
"109 695 OFFCURVE",
"107 685 CURVE SMOOTH",
"75 482 OFFCURVE",
"61 358 OFFCURVE",
"61 181 CURVE SMOOTH",
"61 42 OFFCURVE",
"89 0 OFFCURVE",
"230 0 CURVE SMOOTH"
);
}
);
width = 503;
},
{
anchors = (
{
name = bottom;
position = "{280, 0}";
},
{
name = center;
position = "{373, 350}";
},
{
name = top;
position = "{280, 700}";
},
{
name = topright;
position = "{219, 587}";
}
);
layerId = "2F8C22CF-EC86-44F4-AF1A-A6C7F26A0C3C";
paths = (
{
closed = 1;
nodes = (
"360 -3 OFFCURVE",
"402 6 OFFCURVE",
"473 19 CURVE SMOOTH",
"522 28 OFFCURVE",
"550 49 OFFCURVE",
"550 85 CURVE SMOOTH",
"550 123 OFFCURVE",
"525 159 OFFCURVE",
"479 150 CURVE SMOOTH",
"443 143 OFFCURVE",
"366 128 OFFCURVE",
"274 122 CURVE SMOOTH",
"225 119 OFFCURVE",
"219 161 OFFCURVE",
"219 211 CURVE SMOOTH",
"219 373 OFFCURVE",
"239 505 OFFCURVE",
"262 626 CURVE SMOOTH",
"272 673 OFFCURVE",
"237 705 OFFCURVE",
"183 705 CURVE SMOOTH",
"143 705 OFFCURVE",
"104 683 OFFCURVE",
"99 652 CURVE SMOOTH",
"75 504 OFFCURVE",
"60 418 OFFCURVE",
"60 204 CURVE SMOOTH",
"60 41 OFFCURVE",
"108 -3 OFFCURVE",
"275 -3 CURVE SMOOTH"
);
}
);
width = 560;
}
);
note = L;
unicode = 004C;
},
{
glyphname = M;
lastChange = "2018-03-05 10:41:06 +0000";
layers = (
{
anchors = (
{
name = bottom;
position = "{407, 0}";
},
{
name = top;
position = "{407, 700}";
}
);
layerId = "0B1DFD06-3317-40CA-B510-4969A0718C16";
paths = (
{
closed = 1;
nodes = (
"701 -5 OFFCURVE",
"709 -2 OFFCURVE",
"709 13 CURVE SMOOTH",
"709 111 OFFCURVE",
"707 228 OFFCURVE",
"707 311 CURVE SMOOTH",
"707 572 OFFCURVE",
"675 711 OFFCURVE",
"618 711 CURVE SMOOTH",
"555 711 OFFCURVE",
"424 542 OFFCURVE",
"396 302 CURVE",
"405 302 LINE",
"366 541 OFFCURVE",
"264 711 OFFCURVE",
"193 711 CURVE SMOOTH",
"133 711 OFFCURVE",
"96 590 OFFCURVE",
"96 322 CURVE SMOOTH",
"96 231 OFFCURVE",
"94 119 OFFCURVE",
"94 13 CURVE SMOOTH",
"94 3 OFFCURVE",
"106 0 OFFCURVE",
"110 0 CURVE SMOOTH",
"119 0 OFFCURVE",
"126 4 OFFCURVE",
"126 14 CURVE SMOOTH",
"126 118 OFFCURVE",
"127 231 OFFCURVE",
"127 323 CURVE SMOOTH",
"127 501 OFFCURVE",
"151 682 OFFCURVE",
"195 682 CURVE SMOOTH",
"229 682 OFFCURVE",
"283 595 OFFCURVE",
"313 524 CURVE SMOOTH",
"343 453 OFFCURVE",
"362 355 OFFCURVE",
"383 282 CURVE SMOOTH",
"386 272 OFFCURVE",
"391 268 OFFCURVE",
"400 268 CURVE SMOOTH",
"411 268 OFFCURVE",
"416 270 OFFCURVE",
"418 282 CURVE SMOOTH",
"432 355 OFFCURVE",
"455 460 OFFCURVE",
"494 535 CURVE SMOOTH",
"522 589 OFFCURVE",
"582 679 OFFCURVE",
"618 679 CURVE SMOOTH",
"649 679 OFFCURVE",
"676 534 OFFCURVE",
"676 311 CURVE SMOOTH",
"676 229 OFFCURVE",
"677 109 OFFCURVE",
"678 12 CURVE SMOOTH",
"678 3 OFFCURVE",
"683 -5 OFFCURVE",
"694 -5 CURVE SMOOTH"
);
}
);
width = 813;
},
{
anchors = (
{
name = bottom;
position = "{402, 0}";
},
{
name = top;
position = "{402, 700}";
}
);
layerId = "2F8C22CF-EC86-44F4-AF1A-A6C7F26A0C3C";
paths = (
{
closed = 1;
nodes = (
"693 -7 OFFCURVE",
"729 20 OFFCURVE",
"729 60 CURVE SMOOTH",
"729 154 OFFCURVE",
"725 241 OFFCURVE",
"725 335 CURVE SMOOTH",
"725 608 OFFCURVE",
"682 713 OFFCURVE",
"591 713 CURVE SMOOTH",
"434 713 OFFCURVE",
"398 408 OFFCURVE",
"375 357 CURVE",
"410 357 LINE",
"385 408 OFFCURVE",
"362 713 OFFCURVE",
"202 713 CURVE SMOOTH",
"108 713 OFFCURVE",
"63 607 OFFCURVE",
"63 336 CURVE SMOOTH",
"63 251 OFFCURVE",
"60 164 OFFCURVE",
"60 56 CURVE SMOOTH",
"60 23 OFFCURVE",
"100 -3 OFFCURVE",
"144 -3 CURVE SMOOTH",
"187 -3 OFFCURVE",
"216 22 OFFCURVE",
"216 57 CURVE SMOOTH",
"216 162 OFFCURVE",
"213 246 OFFCURVE",
"216 333 CURVE SMOOTH",
"219 418 OFFCURVE",
"218 536 OFFCURVE",
"222 536 CURVE SMOOTH",
"226 536 OFFCURVE",
"260 452 OFFCURVE",
"273 415 CURVE SMOOTH",
"288 371 OFFCURVE",
"300 322 OFFCURVE",
"314 277 CURVE SMOOTH",
"323 248 OFFCURVE",
"348 228 OFFCURVE",
"393 228 CURVE SMOOTH",
"431 228 OFFCURVE",
"466 240 OFFCURVE",
"475 281 CURVE SMOOTH",
"486 331 OFFCURVE",
"499 371 OFFCURVE",
"510 411 CURVE SMOOTH",
"518 441 OFFCURVE",
"552 536 OFFCURVE",
"559 536 CURVE SMOOTH",
"565 536 OFFCURVE",
"564 470 OFFCURVE",
"564 329 CURVE SMOOTH",
"564 240 OFFCURVE",
"563 154 OFFCURVE",
"564 59 CURVE SMOOTH",
"564 20 OFFCURVE",
"601 -7 OFFCURVE",
"647 -7 CURVE SMOOTH"
);
}
);
width = 789;
}
);
note = M;
unicode = 004D;
},
{
glyphname = N;
lastChange = "2018-03-06 14:58:34 +0000";
layers = (
{
anchors = (
{
name = bottom;
position = "{373, 0}";
},
{
name = top;
position = "{373, 700}";
}
);
layerId = "0B1DFD06-3317-40CA-B510-4969A0718C16";
paths = (
{
closed = 1;
nodes = (
"121 12 OFFCURVE",
"128 18 OFFCURVE",
"128 23 CURVE SMOOTH",
"128 152 OFFCURVE",
"127 187 OFFCURVE",
"127 359 CURVE SMOOTH",
"127 471 OFFCURVE",
"124 525 OFFCURVE",
"125 675 CURVE",
"115 675 LINE",
"147 644 OFFCURVE",
"235 517 OFFCURVE",
"337 351 CURVE SMOOTH",
"439 185 OFFCURVE",
"550 14 OFFCURVE",
"596 14 CURVE SMOOTH",
"623 14 OFFCURVE",
"643 42 OFFCURVE",
"643 264 CURVE SMOOTH",
"643 415 OFFCURVE",
"644 528 OFFCURVE",
"644 691 CURVE SMOOTH",
"644 703 OFFCURVE",
"638 711 OFFCURVE",
"626 711 CURVE SMOOTH",
"616 711 OFFCURVE",
"610 705 OFFCURVE",
"610 694 CURVE SMOOTH",
"610 526 OFFCURVE",
"611 386 OFFCURVE",
"611 269 CURVE SMOOTH",
"611 84 OFFCURVE",
"596 52 OFFCURVE",
"590 42 CURVE",
"596 42 LINE",
"580 57 OFFCURVE",
"475 185 OFFCURVE",
"358 377 CURVE SMOOTH",
"278 508 OFFCURVE",
"161 704 OFFCURVE",
"120 704 CURVE SMOOTH",
"98 704 OFFCURVE",
"94 686 OFFCURVE",
"94 662 CURVE SMOOTH",
"94 522 OFFCURVE",
"96 470 OFFCURVE",
"96 356 CURVE SMOOTH",
"96 181 OFFCURVE",
"96 146 OFFCURVE",
"96 23 CURVE SMOOTH",
"96 16 OFFCURVE",
"105 12 OFFCURVE",
"112 12 CURVE SMOOTH"
);
}
);
width = 745;
},
{
anchors = (
{
name = bottom;
position = "{378, 0}";
},
{
name = top;
position = "{378, 700}";
}
);
layerId = "2F8C22CF-EC86-44F4-AF1A-A6C7F26A0C3C";
paths = (
{
closed = 1;
nodes = (
"188 8 OFFCURVE",
"230 36 OFFCURVE",
"230 70 CURVE SMOOTH",
"230 189 OFFCURVE",
"229 250 OFFCURVE",
"229 325 CURVE SMOOTH",
"229 383 OFFCURVE",
"228 466 OFFCURVE",
"228 517 CURVE",
"172 517 LINE",
"187 495 OFFCURVE",
"270 342 OFFCURVE",
"314 272 CURVE SMOOTH",
"398 139 OFFCURVE",
"483 10 OFFCURVE",
"560 10 CURVE SMOOTH",
"643 10 OFFCURVE",
"677 68 OFFCURVE",
"677 344 CURVE SMOOTH",
"677 437 OFFCURVE",
"679 530 OFFCURVE",
"679 646 CURVE SMOOTH",
"679 687 OFFCURVE",
"645 715 OFFCURVE",
"597 715 CURVE SMOOTH",
"551 715 OFFCURVE",
"514 687 OFFCURVE",
"514 648 CURVE SMOOTH",
"514 531 OFFCURVE",
"513 454 OFFCURVE",
"513 370 CURVE SMOOTH",
"513 275 OFFCURVE",
"513 201 OFFCURVE",
"513 157 CURVE",
"566 157 LINE",
"510 233 OFFCURVE",
"453 340 OFFCURVE",
"391 435 CURVE SMOOTH",
"292 586 OFFCURVE",
"232 708 OFFCURVE",
"152 708 CURVE SMOOTH",
"75 708 OFFCURVE",
"60 667 OFFCURVE",
"60 526 CURVE SMOOTH",
"60 456 OFFCURVE",
"62 409 OFFCURVE",
"62 331 CURVE SMOOTH",
"62 233 OFFCURVE",
"62 178 OFFCURVE",
"62 70 CURVE SMOOTH",
"62 35 OFFCURVE",
"102 8 OFFCURVE",
"145 8 CURVE SMOOTH"
);
}
);
width = 739;
}
);
note = N;
unicode = 004E;
},
{
glyphname = O;
lastChange = "2018-03-05 10:42:23 +0000";
layers = (
{
anchors = (
{
name = bottom;
position = "{390, 0}";
},
{
name = center;
position = "{390, 350}";
},
{
name = ogonek;
position = "{397, 18}";
},
{
name = top;
position = "{390, 700}";
},
{
name = topleft;
position = "{107, 518}";
},
{
name = topright;
position = "{671, 518}";
}
);
layerId = "0B1DFD06-3317-40CA-B510-4969A0718C16";
paths = (
{
closed = 1;
nodes = (
"544 10 OFFCURVE",
"722 104 OFFCURVE",
"722 331 CURVE SMOOTH",
"722 559 OFFCURVE",
"568 705 OFFCURVE",
"377 705 CURVE SMOOTH",
"181 705 OFFCURVE",
"56 552 OFFCURVE",
"56 341 CURVE SMOOTH",
"56 96 OFFCURVE",
"224 10 OFFCURVE",
"380 10 CURVE SMOOTH"
);
},
{
closed = 1;
nodes = (
"266 41 OFFCURVE",
"87 104 OFFCURVE",
"87 343 CURVE SMOOTH",
"87 545 OFFCURVE",
"209 674 OFFCURVE",
"382 674 CURVE SMOOTH",
"555 674 OFFCURVE",
"691 534 OFFCURVE",
"691 335 CURVE SMOOTH",
"691 120 OFFCURVE",
"516 41 OFFCURVE",
"387 41 CURVE SMOOTH"
);
}
);
width = 779;
},
{
anchors = (
{
name = bottom;
position = "{401, 0}";
},
{
name = center;
position = "{407, 351}";
},
{
name = ogonek;
position = "{478, 36}";
},
{
name = top;
position = "{401, 700}";
},
{
name = topleft;
position = "{136, 500}";
},
{
name = topright;
position = "{688, 500}";
}
);
layerId = "2F8C22CF-EC86-44F4-AF1A-A6C7F26A0C3C";
paths = (
{
closed = 1;
nodes = (
"611 6 OFFCURVE",
"762 137 OFFCURVE",
"762 342 CURVE SMOOTH",
"762 549 OFFCURVE",
"607 709 OFFCURVE",
"396 709 CURVE SMOOTH",
"191 709 OFFCURVE",
"50 558 OFFCURVE",
"50 346 CURVE SMOOTH",
"50 136 OFFCURVE",
"188 6 OFFCURVE",
"399 6 CURVE SMOOTH"
);
},
{
closed = 1;
nodes = (
"286 136 OFFCURVE",
"215 212 OFFCURVE",
"215 345 CURVE SMOOTH",
"215 484 OFFCURVE",
"292 579 OFFCURVE",
"400 579 CURVE SMOOTH",
"512 579 OFFCURVE",
"598 475 OFFCURVE",
"598 339 CURVE SMOOTH",
"598 212 OFFCURVE",
"523 136 OFFCURVE",
"404 136 CURVE SMOOTH"
);
}
);
width = 812;
}
);
note = O;
unicode = 004F;
},
{
glyphname = P;
lastChange = "2018-02-27 05:37:03 +0000";
layers = (
{
anchors = (
{
name = bottom;
position = "{288, 0}";
},
{
name = top;
position = "{288, 700}";
}
);
layerId = "0B1DFD06-3317-40CA-B510-4969A0718C16";
paths = (
{
closed = 1;
nodes = (
"113 -6 OFFCURVE",
"120 -1 OFFCURVE",
"120 14 CURVE SMOOTH",
"123 317 LINE",
"168 290 OFFCURVE",
"215 277 OFFCURVE",
"295 277 CURVE SMOOTH",
"433 277 OFFCURVE",
"547 354 OFFCURVE",
"547 484 CURVE SMOOTH",
"547 626 OFFCURVE",
"406 704 OFFCURVE",
"285 704 CURVE SMOOTH",
"185 704 OFFCURVE",
"121 668 OFFCURVE",
"52 631 CURVE SMOOTH",
"45 627 OFFCURVE",
"47 615 OFFCURVE",
"50 611 CURVE SMOOTH",
"53 607 OFFCURVE",
"59 600 OFFCURVE",
"66 604 CURVE SMOOTH",
"123 636 OFFCURVE",
"188 673 OFFCURVE",
"277 673 CURVE SMOOTH",
"402 673 OFFCURVE",
"516 596 OFFCURVE",
"516 485 CURVE SMOOTH",
"516 377 OFFCURVE",
"409 308 OFFCURVE",
"289 308 CURVE SMOOTH",
"226 308 OFFCURVE",
"185 313 OFFCURVE",
"123 348 CURVE",
"122 391 OFFCURVE",
"123 430 OFFCURVE",
"121 504 CURVE SMOOTH",
"119 582 OFFCURVE",
"118 616 OFFCURVE",
"118 689 CURVE SMOOTH",
"118 701 OFFCURVE",
"112 705 OFFCURVE",
"101 705 CURVE SMOOTH",
"89 705 OFFCURVE",
"84 697 OFFCURVE",
"84 689 CURVE SMOOTH",
"87 599 OFFCURVE",
"91 522 OFFCURVE",
"91 354 CURVE SMOOTH",
"91 142 OFFCURVE",
"87 67 OFFCURVE",
"87 15 CURVE SMOOTH",
"87 -1 OFFCURVE",
"94 -6 OFFCURVE",
"103 -6 CURVE SMOOTH"
);
}
);
width = 576;
},
{
anchors = (
{
name = bottom;
position = "{183, 0}";
},
{
name = top;
position = "{335, 700}";
}
);
layerId = "2F8C22CF-EC86-44F4-AF1A-A6C7F26A0C3C";
paths = (
{
closed = 1;
nodes = (
"226 -9 OFFCURVE",
"264 19 OFFCURVE",
"264 57 CURVE SMOOTH",
"266 257 LINE",
"289 250 OFFCURVE",
"322 240 OFFCURVE",
"359 240 CURVE SMOOTH",
"523 240 OFFCURVE",
"633 332 OFFCURVE",
"633 465 CURVE SMOOTH",
"633 602 OFFCURVE",
"501 707 OFFCURVE",
"338 707 CURVE SMOOTH",
"228 707 OFFCURVE",
"160 670 OFFCURVE",
"99 632 CURVE SMOOTH",
"61 609 OFFCURVE",
"49 569 OFFCURVE",
"72 534 CURVE SMOOTH",
"93 507 OFFCURVE",
"135 502 OFFCURVE",
"164 519 CURVE SMOOTH",
"218 549 OFFCURVE",
"275 577 OFFCURVE",
"331 577 CURVE SMOOTH",
"411 577 OFFCURVE",
"467 532 OFFCURVE",
"467 469 CURVE SMOOTH",
"467 408 OFFCURVE",
"418 358 OFFCURVE",
"343 358 CURVE SMOOTH",
"312 358 OFFCURVE",
"285 368 OFFCURVE",
"266 377 CURVE",
"265 416 OFFCURVE",
"264 456 OFFCURVE",
"262 515 CURVE SMOOTH",
"260 572 OFFCURVE",
"258 602 OFFCURVE",
"258 642 CURVE SMOOTH",
"258 681 OFFCURVE",
"223 708 OFFCURVE",
"176 708 CURVE SMOOTH",
"130 708 OFFCURVE",
"94 682 OFFCURVE",
"94 642 CURVE SMOOTH",
"94 592 OFFCURVE",
"102 503 OFFCURVE",
"102 363 CURVE SMOOTH",
"102 183 OFFCURVE",
"101 117 OFFCURVE",
"98 61 CURVE SMOOTH",
"96 19 OFFCURVE",
"134 -9 OFFCURVE",
"183 -9 CURVE SMOOTH"
);
}
);
width = 663;
}
);
note = P;
unicode = 0050;
},
{
glyphname = Q;
lastChange = "2018-02-27 05:42:07 +0000";
layers = (
{
anchors = (
{
name = bottom;
position = "{383, 0}";
},
{
name = top;
position = "{383, 700}";
}
);
layerId = "0B1DFD06-3317-40CA-B510-4969A0718C16";
paths = (
{
closed = 1;
nodes = (
"555 15 OFFCURVE",
"709 153 OFFCURVE",
"709 359 CURVE SMOOTH",
"709 578 OFFCURVE",
"536 709 OFFCURVE",
"378 709 CURVE SMOOTH",
"226 709 OFFCURVE",
"54 588 OFFCURVE",
"54 350 CURVE SMOOTH",
"54 152 OFFCURVE",
"173 15 OFFCURVE",
"364 15 CURVE SMOOTH"
);
},
{
closed = 1;
nodes = (
"194 46 OFFCURVE",
"85 175 OFFCURVE",
"85 348 CURVE SMOOTH",
"85 559 OFFCURVE",
"247 678 OFFCURVE",
"382 678 CURVE SMOOTH",
"526 678 OFFCURVE",
"678 541 OFFCURVE",
"678 356 CURVE SMOOTH",
"678 176 OFFCURVE",
"535 46 OFFCURVE",
"364 46 CURVE SMOOTH"
);
},
{
closed = 1;
nodes = (
"675 26 OFFCURVE",
"680 24 OFFCURVE",
"684 24 CURVE SMOOTH",
"693 24 OFFCURVE",
"700 32 OFFCURVE",
"700 41 CURVE SMOOTH",
"700 46 OFFCURVE",
"698 50 OFFCURVE",
"694 54 CURVE SMOOTH",
"665 84 OFFCURVE",
"519 229 OFFCURVE",
"506 242 CURVE SMOOTH",
"504 244 OFFCURVE",
"501 245 OFFCURVE",
"498 245 CURVE SMOOTH",
"492 245 OFFCURVE",
"478 239 OFFCURVE",
"478 227 CURVE SMOOTH",
"478 223 OFFCURVE",
"480 220 OFFCURVE",
"482 218 CURVE SMOOTH",
"514 186 OFFCURVE",
"637 64 OFFCURVE",
"672 29 CURVE SMOOTH"
);
}
);
width = 766;
},
{
anchors = (
{
name = bottom;
position = "{403, 0}";
},
{
name = top;
position = "{396, 700}";
}
);
layerId = "2F8C22CF-EC86-44F4-AF1A-A6C7F26A0C3C";
paths = (
{
closed = 1;
nodes = (
"595 11 OFFCURVE",
"753 160 OFFCURVE",
"753 359 CURVE SMOOTH",
"753 556 OFFCURVE",
"594 713 OFFCURVE",
"398 713 CURVE SMOOTH",
"201 713 OFFCURVE",
"50 557 OFFCURVE",
"50 352 CURVE SMOOTH",
"50 149 OFFCURVE",
"186 11 OFFCURVE",
"386 11 CURVE SMOOTH"
);
},
{
closed = 1;
nodes = (
"284 141 OFFCURVE",
"216 224 OFFCURVE",
"216 350 CURVE SMOOTH",
"216 478 OFFCURVE",
"302 583 OFFCURVE",
"402 583 CURVE SMOOTH",
"498 583 OFFCURVE",
"587 476 OFFCURVE",
"587 355 CURVE SMOOTH",
"587 234 OFFCURVE",
"500 141 OFFCURVE",
"386 141 CURVE SMOOTH"
);
},
{
closed = 1;
nodes = (
"632 14 OFFCURVE",
"650 8 OFFCURVE",
"667 8 CURVE SMOOTH",
"708 8 OFFCURVE",
"742 45 OFFCURVE",
"742 85 CURVE SMOOTH",
"742 101 OFFCURVE",
"736 118 OFFCURVE",
"720 133 CURVE SMOOTH",
"666 185 OFFCURVE",
"613 236 OFFCURVE",
"533 309 CURVE SMOOTH",
"525 317 OFFCURVE",
"513 321 OFFCURVE",
"501 321 CURVE SMOOTH",
"462 321 OFFCURVE",
"419 275 OFFCURVE",
"419 240 CURVE SMOOTH",
"419 228 OFFCURVE",
"425 215 OFFCURVE",
"439 201 CURVE SMOOTH",
"518 124 OFFCURVE",
"571 71 OFFCURVE",
"615 29 CURVE"
);
}
);
width = 803;
}
);
note = Q;
unicode = 0051;
},
{
glyphname = R;
lastChange = "2018-03-05 10:43:25 +0000";
layers = (
{
anchors = (
{
name = bottom;
position = "{311, 0}";
},
{
name = top;
position = "{311, 700}";
}
);
layerId = "0B1DFD06-3317-40CA-B510-4969A0718C16";
paths = (
{
closed = 1;
nodes = (
"413 293 OFFCURVE",
"549 356 OFFCURVE",
"549 498 CURVE SMOOTH",
"549 622 OFFCURVE",
"445 699 OFFCURVE",
"293 699 CURVE SMOOTH",
"226 699 OFFCURVE",
"180 687 OFFCURVE",
"101 652 CURVE SMOOTH",
"83 644 OFFCURVE",
"71 639 OFFCURVE",
"57 632 CURVE SMOOTH",
"49 628 OFFCURVE",
"45 624 OFFCURVE",
"45 618 CURVE SMOOTH",
"45 611 OFFCURVE",
"47 604 OFFCURVE",
"54 599 CURVE SMOOTH",
"57 597 OFFCURVE",
"61 597 OFFCURVE",
"64 598 CURVE SMOOTH",
"77 604 OFFCURVE",
"87 609 OFFCURVE",
"108 619 CURVE SMOOTH",
"179 653 OFFCURVE",
"233 668 OFFCURVE",
"293 668 CURVE SMOOTH",
"424 668 OFFCURVE",
"518 596 OFFCURVE",
"518 496 CURVE SMOOTH",
"518 379 OFFCURVE",
"391 324 OFFCURVE",
"271 324 CURVE SMOOTH",
"201 324 OFFCURVE",
"144 343 OFFCURVE",
"109 361 CURVE",
"106 331 LINE",
"167 305 OFFCURVE",
"219 293 OFFCURVE",
"276 293 CURVE SMOOTH"
);
},
{
closed = 1;
nodes = (
"110 -4 OFFCURVE",
"119 -1 OFFCURVE",
"119 12 CURVE SMOOTH",
"119 136 OFFCURVE",
"120 185 OFFCURVE",
"120 351 CURVE SMOOTH",
"120 439 OFFCURVE",
"117 541 OFFCURVE",
"110 688 CURVE SMOOTH",
"110 697 OFFCURVE",
"105 701 OFFCURVE",
"95 701 CURVE SMOOTH",
"86 701 OFFCURVE",
"79 698 OFFCURVE",
"79 687 CURVE SMOOTH",
"85 541 OFFCURVE",
"89 487 OFFCURVE",
"89 355 CURVE SMOOTH",
"89 184 OFFCURVE",
"88 132 OFFCURVE",
"86 14 CURVE SMOOTH",
"86 1 OFFCURVE",
"93 -4 OFFCURVE",
"103 -4 CURVE SMOOTH"
);
},
{
closed = 1;
nodes = (
"527 15 OFFCURVE",
"535 24 OFFCURVE",
"535 33 CURVE SMOOTH",
"535 38 OFFCURVE",
"533 43 OFFCURVE",
"527 47 CURVE SMOOTH",
"117 330 LINE",
"105 302 LINE",
"502 23 LINE SMOOTH",
"506 20 OFFCURVE",
"514 15 OFFCURVE",
"519 15 CURVE SMOOTH"
);
}
);
width = 621;
},
{
anchors = (
{
name = bottom;
position = "{341, 0}";
},
{
name = top;
position = "{341, 700}";
}
);
layerId = "2F8C22CF-EC86-44F4-AF1A-A6C7F26A0C3C";
paths = (
{
closed = 1;
nodes = (
"504 269 OFFCURVE",
"632 342 OFFCURVE",
"632 478 CURVE SMOOTH",
"632 610 OFFCURVE",
"513 702 OFFCURVE",
"343 702 CURVE SMOOTH",
"284 702 OFFCURVE",
"225 696 OFFCURVE",
"164 667 CURVE SMOOTH",
"147 659 OFFCURVE",
"130 651 OFFCURVE",
"108 639 CURVE SMOOTH",
"77 622 OFFCURVE",
"60 607 OFFCURVE",
"60 580 CURVE SMOOTH",
"60 551 OFFCURVE",
"75 518 OFFCURVE",
"101 509 CURVE SMOOTH",
"108 507 OFFCURVE",
"119 507 OFFCURVE",
"125 509 CURVE SMOOTH",
"144 515 OFFCURVE",
"159 519 OFFCURVE",
"180 528 CURVE SMOOTH",
"243 555 OFFCURVE",
"286 571 OFFCURVE",
"341 571 CURVE SMOOTH",
"421 571 OFFCURVE",
"468 534 OFFCURVE",
"468 477 CURVE SMOOTH",
"468 416 OFFCURVE",
"415 379 OFFCURVE",
"325 379 CURVE SMOOTH",
"283 379 OFFCURVE",
"251 387 OFFCURVE",
"215 405 CURVE",
"205 287 LINE",
"247 275 OFFCURVE",
"287 269 OFFCURVE",
"331 269 CURVE SMOOTH"
);
},
{
closed = 1;
nodes = (
"226 -7 OFFCURVE",
"256 20 OFFCURVE",
"256 58 CURVE SMOOTH",
"256 156 OFFCURVE",
"256 295 OFFCURVE",
"256 390 CURVE SMOOTH",
"256 511 OFFCURVE",
"255 590 OFFCURVE",
"254 642 CURVE SMOOTH",
"253 682 OFFCURVE",
"214 704 OFFCURVE",
"170 704 CURVE SMOOTH",
"123 704 OFFCURVE",
"89 679 OFFCURVE",
"89 638 CURVE SMOOTH",
"89 572 OFFCURVE",
"90 510 OFFCURVE",
"92 390 CURVE SMOOTH",
"95 212 OFFCURVE",
"95 164 OFFCURVE",
"95 68 CURVE SMOOTH",
"95 23 OFFCURVE",
"130 -7 OFFCURVE",
"180 -7 CURVE SMOOTH"
);
},
{
closed = 1;
nodes = (
"594 9 OFFCURVE",
"620 40 OFFCURVE",
"620 77 CURVE SMOOTH",
"620 104 OFFCURVE",
"606 117 OFFCURVE",
"583 131 CURVE SMOOTH",
"200 353 LINE",
"151 264 LINE",
"497 26 LINE SMOOTH",
"509 18 OFFCURVE",
"532 9 OFFCURVE",
"554 9 CURVE SMOOTH"
);
}
);
width = 672;
}
);
note = R;
unicode = 0052;
},
{
glyphname = S;
lastChange = "2018-03-05 10:43:41 +0000";
layers = (
{
anchors = (
{
name = bottom;
position = "{273, 0}";
},
{
name = top;
position = "{273, 700}";
}
);
layerId = "0B1DFD06-3317-40CA-B510-4969A0718C16";
paths = (
{
closed = 1;
nodes = (
"401 2 OFFCURVE",
"468 63 OFFCURVE",
"468 172 CURVE SMOOTH",
"468 303 OFFCURVE",
"349 341 OFFCURVE",
"281 361 CURVE SMOOTH",
"189 388 OFFCURVE",
"95 418 OFFCURVE",
"95 520 CURVE SMOOTH",
"95 605 OFFCURVE",
"160 675 OFFCURVE",
"265 675 CURVE SMOOTH",
"370 675 OFFCURVE",
"431 594 OFFCURVE",
"431 519 CURVE SMOOTH",
"431 508 OFFCURVE",
"439 505 OFFCURVE",
"447 505 CURVE SMOOTH",
"456 505 OFFCURVE",
"462 510 OFFCURVE",
"462 520 CURVE SMOOTH",
"462 621 OFFCURVE",
"380 706 OFFCURVE",
"265 706 CURVE SMOOTH",
"151 706 OFFCURVE",
"64 634 OFFCURVE",
"64 519 CURVE SMOOTH",
"64 388 OFFCURVE",
"185 355 OFFCURVE",
"256 336 CURVE SMOOTH",
"366 306 OFFCURVE",
"437 264 OFFCURVE",
"437 170 CURVE SMOOTH",
"437 78 OFFCURVE",
"374 33 OFFCURVE",
"284 33 CURVE SMOOTH",
"165 33 OFFCURVE",
"97 108 OFFCURVE",
"97 211 CURVE SMOOTH",
"97 222 OFFCURVE",
"91 227 OFFCURVE",
"81 227 CURVE SMOOTH",
"71 227 OFFCURVE",
"66 223 OFFCURVE",
"66 209 CURVE SMOOTH",
"66 98 OFFCURVE",
"144 2 OFFCURVE",
"279 2 CURVE SMOOTH"
);
}
);
width = 528;
},
{
anchors = (
{
name = bottom;
position = "{313, 0}";
},
{
name = top;
position = "{313, 700}";
}
);
layerId = "2F8C22CF-EC86-44F4-AF1A-A6C7F26A0C3C";
paths = (
{
closed = 1;
nodes = (
"455 -1 OFFCURVE",
"561 80 OFFCURVE",
"561 198 CURVE SMOOTH",
"561 342 OFFCURVE",
"410 388 OFFCURVE",
"340 410 CURVE SMOOTH",
"252 438 OFFCURVE",
"219 447 OFFCURVE",
"219 492 CURVE SMOOTH",
"219 548 OFFCURVE",
"265 580 OFFCURVE",
"319 580 CURVE SMOOTH",
"380 580 OFFCURVE",
"410 538 OFFCURVE",
"413 496 CURVE SMOOTH",
"417 447 OFFCURVE",
"436 432 OFFCURVE",
"487 432 CURVE SMOOTH",
"543 432 OFFCURVE",
"556 453 OFFCURVE",
"556 505 CURVE SMOOTH",
"556 603 OFFCURVE",
"453 709 OFFCURVE",
"309 709 CURVE SMOOTH",
"171 709 OFFCURVE",
"55 619 OFFCURVE",
"55 495 CURVE SMOOTH",
"55 346 OFFCURVE",
"219 307 OFFCURVE",
"282 289 CURVE SMOOTH",
"351 269 OFFCURVE",
"396 251 OFFCURVE",
"396 195 CURVE SMOOTH",
"396 148 OFFCURVE",
"362 129 OFFCURVE",
"316 129 CURVE SMOOTH",
"256 129 OFFCURVE",
"205 172 OFFCURVE",
"205 230 CURVE SMOOTH",
"205 281 OFFCURVE",
"165 296 OFFCURVE",
"130 296 CURVE SMOOTH",
"81 296 OFFCURVE",
"57 285 OFFCURVE",
"57 224 CURVE SMOOTH",
"57 107 OFFCURVE",
"166 -1 OFFCURVE",
"321 -1 CURVE SMOOTH"
);
}
);
width = 616;
}
);
note = S;
unicode = 0053;
},
{
glyphname = T;
lastChange = "2018-03-05 10:45:10 +0000";
layers = (
{
anchors = (
{
name = bottom;
position = "{245, 0}";
},
{
name = center;
position = "{274, 350}";
},
{
name = top;
position = "{274, 700}";
}
);
layerId = "0B1DFD06-3317-40CA-B510-4969A0718C16";
paths = (
{
closed = 1;
nodes = (
"263 0 OFFCURVE",
"270 4 OFFCURVE",
"270 19 CURVE SMOOTH",
"270 57 OFFCURVE",
"275 193 OFFCURVE",
"280 331 CURVE SMOOTH",
"285 465 OFFCURVE",
"292 604 OFFCURVE",
"296 671 CURVE",
"264 671 LINE",
"260 606 OFFCURVE",
"254 465 OFFCURVE",
"248 330 CURVE SMOOTH",
"243 191 OFFCURVE",
"235 54 OFFCURVE",
"235 18 CURVE SMOOTH",
"235 4 OFFCURVE",
"241 0 OFFCURVE",
"254 0 CURVE SMOOTH"
);
},
{
closed = 1;
nodes = (
"140 660 OFFCURVE",
"203 663 OFFCURVE",
"286 663 CURVE SMOOTH",
"360 663 OFFCURVE",
"416 661 OFFCURVE",
"489 655 CURVE SMOOTH",
"500 654 OFFCURVE",
"503 663 OFFCURVE",
"503 670 CURVE SMOOTH",
"503 680 OFFCURVE",
"498 686 OFFCURVE",
"487 687 CURVE SMOOTH",
"427 692 OFFCURVE",
"373 694 OFFCURVE",
"285 694 CURVE SMOOTH",
"194 694 OFFCURVE",
"128 690 OFFCURVE",
"58 682 CURVE SMOOTH",
"49 681 OFFCURVE",
"46 675 OFFCURVE",
"46 667 CURVE SMOOTH",
"46 656 OFFCURVE",
"52 650 OFFCURVE",
"60 651 CURVE SMOOTH"
);
}
);
width = 547;
},
{
anchors = (
{
name = bottom;
position = "{270, 0}";
},
{
name = center;
position = "{285, 350}";
},
{
name = top;
position = "{270, 700}";
}
);
layerId = "2F8C22CF-EC86-44F4-AF1A-A6C7F26A0C3C";
paths = (
{
closed = 1;
nodes = (
"333 -4 OFFCURVE",
"352 23 OFFCURVE",
"352 70 CURVE SMOOTH",
"352 153 OFFCURVE",
"353 231 OFFCURVE",
"355 340 CURVE SMOOTH",
"357 449 OFFCURVE",
"361 508 OFFCURVE",
"372 624 CURVE",
"208 629 LINE",
"201 517 OFFCURVE",
"198 450 OFFCURVE",
"192 340 CURVE SMOOTH",
"185 216 OFFCURVE",
"185 150 OFFCURVE",
"185 68 CURVE SMOOTH",
"185 22 OFFCURVE",
"218 -4 OFFCURVE",
"270 -4 CURVE SMOOTH"
);
},
{
closed = 1;
nodes = (
"182 564 OFFCURVE",
"239 567 OFFCURVE",
"301 567 CURVE SMOOTH",
"352 567 OFFCURVE",
"411 566 OFFCURVE",
"476 561 CURVE SMOOTH",
"523 557 OFFCURVE",
"551 581 OFFCURVE",
"551 625 CURVE SMOOTH",
"551 666 OFFCURVE",
"531 688 OFFCURVE",
"487 692 CURVE SMOOTH",
"439 696 OFFCURVE",
"363 698 OFFCURVE",
"299 698 CURVE SMOOTH",
"221 698 OFFCURVE",
"143 695 OFFCURVE",
"79 687 CURVE SMOOTH",
"37 683 OFFCURVE",
"20 658 OFFCURVE",
"20 623 CURVE SMOOTH",
"20 581 OFFCURVE",
"51 552 OFFCURVE",
"97 558 CURVE"
);
}
);
width = 571;
}
);
note = T;
unicode = 0054;
},
{
glyphname = U;
lastChange = "2018-03-05 10:46:31 +0000";
layers = (
{
anchors = (
{
name = bottom;
position = "{328, 0}";
},
{
name = ogonek;
position = "{554, 7}";
},
{
name = top;
position = "{328, 700}";
},
{
name = topright;
position = "{560, 544}";
}
);
layerId = "0B1DFD06-3317-40CA-B510-4969A0718C16";
paths = (
{
closed = 1;
nodes = (
"569 -1 OFFCURVE",
"573 5 OFFCURVE",
"573 15 CURVE SMOOTH",
"573 315 OFFCURVE",
"570 429 OFFCURVE",
"566 689 CURVE SMOOTH",
"566 698 OFFCURVE",
"563 707 OFFCURVE",
"550 707 CURVE SMOOTH",
"539 707 OFFCURVE",
"535 703 OFFCURVE",
"535 691 CURVE SMOOTH",
"538 498 OFFCURVE",
"541 344 OFFCURVE",
"539 245 CURVE SMOOTH",
"537 167 OFFCURVE",
"457 35 OFFCURVE",
"322 35 CURVE SMOOTH",
"178 35 OFFCURVE",
"112 111 OFFCURVE",
"112 262 CURVE SMOOTH",
"112 388 OFFCURVE",
"118 495 OFFCURVE",
"118 684 CURVE SMOOTH",
"118 694 OFFCURVE",
"114 700 OFFCURVE",
"102 700 CURVE SMOOTH",
"91 700 OFFCURVE",
"87 696 OFFCURVE",
"87 686 CURVE SMOOTH",
"87 496 OFFCURVE",
"80 396 OFFCURVE",
"80 260 CURVE SMOOTH",
"80 139 OFFCURVE",
"121 3 OFFCURVE",
"324 3 CURVE SMOOTH",
"433 3 OFFCURVE",
"513 71 OFFCURVE",
"548 166 CURVE",
"541 166 LINE",
"541 101 OFFCURVE",
"541 58 OFFCURVE",
"541 16 CURVE SMOOTH",
"541 3 OFFCURVE",
"546 -1 OFFCURVE",
"557 -1 CURVE"
);
}
);
width = 656;
},
{
anchors = (
{
name = bottom;
position = "{339, 0}";
},
{
name = ogonek;
position = "{571, 31}";
},
{
name = top;
position = "{339, 700}";
},
{
name = topright;
position = "{594, 532}";
}
);
layerId = "2F8C22CF-EC86-44F4-AF1A-A6C7F26A0C3C";
paths = (
{
closed = 1;
nodes = (
"588 -4 OFFCURVE",
"623 17 OFFCURVE",
"623 55 CURVE SMOOTH",
"621 288 OFFCURVE",
"619 407 OFFCURVE",
"618 645 CURVE SMOOTH",
"618 687 OFFCURVE",
"578 710 OFFCURVE",
"533 710 CURVE SMOOTH",
"486 710 OFFCURVE",
"452 685 OFFCURVE",
"452 645 CURVE SMOOTH",
"452 490 OFFCURVE",
"453 450 OFFCURVE",
"453 338 CURVE SMOOTH",
"453 220 OFFCURVE",
"390 131 OFFCURVE",
"315 131 CURVE SMOOTH",
"258 131 OFFCURVE",
"227 177 OFFCURVE",
"227 262 CURVE SMOOTH",
"227 422 OFFCURVE",
"229 487 OFFCURVE",
"231 643 CURVE SMOOTH",
"231 682 OFFCURVE",
"194 704 OFFCURVE",
"148 704 CURVE SMOOTH",
"102 704 OFFCURVE",
"67 681 OFFCURVE",
"66 643 CURVE SMOOTH",
"62 487 OFFCURVE",
"60 421 OFFCURVE",
"60 262 CURVE SMOOTH",
"60 108 OFFCURVE",
"146 0 OFFCURVE",
"269 0 CURVE SMOOTH",
"387 0 OFFCURVE",
"456 87 OFFCURVE",
"485 168 CURVE",
"455 168 LINE",
"455 119 OFFCURVE",
"455 89 OFFCURVE",
"455 70 CURVE SMOOTH",
"455 18 OFFCURVE",
"494 -4 OFFCURVE",
"542 -4 CURVE SMOOTH"
);
}
);
width = 683;
}
);
note = U;
unicode = 0055;
},
{
glyphname = V;
lastChange = "2018-02-28 10:33:05 +0000";
layers = (
{
anchors = (
{
name = bottom;
position = "{332, 0}";
},
{
name = top;
position = "{332, 700}";
}
);
layerId = "0B1DFD06-3317-40CA-B510-4969A0718C16";
paths = (
{
closed = 1;
nodes = (
"360 1 OFFCURVE",
"380 15 OFFCURVE",
"392 40 CURVE SMOOTH",
"407 71 OFFCURVE",
"421 104 OFFCURVE",
"500 383 CURVE SMOOTH",
"530 490 OFFCURVE",
"549 550 OFFCURVE",
"585 689 CURVE SMOOTH",
"587 698 OFFCURVE",
"577 704 OFFCURVE",
"568 704 CURVE SMOOTH",
"563 704 OFFCURVE",
"557 701 OFFCURVE",
"555 695 CURVE SMOOTH",
"518 554 OFFCURVE",
"501 498 OFFCURVE",
"468 382 CURVE SMOOTH",
"376 63 OFFCURVE",
"365 33 OFFCURVE",
"334 32 CURVE SMOOTH",
"304 32 OFFCURVE",
"288 63 OFFCURVE",
"190 382 CURVE SMOOTH",
"148 518 OFFCURVE",
"139 558 OFFCURVE",
"97 699 CURVE SMOOTH",
"95 704 OFFCURVE",
"88 707 OFFCURVE",
"83 707 CURVE SMOOTH",
"74 707 OFFCURVE",
"65 700 OFFCURVE",
"67 693 CURVE SMOOTH",
"106 553 OFFCURVE",
"124 498 OFFCURVE",
"160 379 CURVE SMOOTH",
"245 100 OFFCURVE",
"261 67 OFFCURVE",
"275 40 CURVE SMOOTH",
"289 13 OFFCURVE",
"309 1 OFFCURVE",
"333 1 CURVE SMOOTH"
);
}
);
width = 663;
},
{
anchors = (
{
name = bottom;
position = "{337, 0}";
},
{
name = top;
position = "{340, 700}";
}
);
layerId = "2F8C22CF-EC86-44F4-AF1A-A6C7F26A0C3C";
paths = (
{
closed = 1;
nodes = (
"386 -2 OFFCURVE",
"432 23 OFFCURVE",
"450 61 CURVE SMOOTH",
"465 93 OFFCURVE",
"514 250 OFFCURVE",
"547 365 CURVE SMOOTH",
"577 470 OFFCURVE",
"600 552 OFFCURVE",
"619 625 CURVE SMOOTH",
"631 674 OFFCURVE",
"598 709 OFFCURVE",
"542 709 CURVE SMOOTH",
"511 709 OFFCURVE",
"471 700 OFFCURVE",
"463 674 CURVE SMOOTH",
"434 573 OFFCURVE",
"420 519 OFFCURVE",
"390 393 CURVE SMOOTH",
"357 255 OFFCURVE",
"346 195 OFFCURVE",
"334 195 CURVE SMOOTH",
"324 195 OFFCURVE",
"313 259 OFFCURVE",
"276 393 CURVE SMOOTH",
"243 513 OFFCURVE",
"226 580 OFFCURVE",
"196 674 CURVE SMOOTH",
"188 699 OFFCURVE",
"149 709 OFFCURVE",
"117 709 CURVE SMOOTH",
"69 709 OFFCURVE",
"30 676 OFFCURVE",
"42 635 CURVE SMOOTH",
"69 545 OFFCURVE",
"92 463 OFFCURVE",
"121 364 CURVE SMOOTH",
"157 241 OFFCURVE",
"207 95 OFFCURVE",
"226 59 CURVE SMOOTH",
"245 22 OFFCURVE",
"289 -2 OFFCURVE",
"337 -2 CURVE SMOOTH"
);
}
);
width = 661;
}
);
note = V;
unicode = 0056;
},
{
glyphname = W;
lastChange = "2018-03-05 10:47:18 +0000";
layers = (
{
anchors = (
{
name = bottom;
position = "{448, 0}";
},
{
name = top;
position = "{448, 700}";
}
);
layerId = "0B1DFD06-3317-40CA-B510-4969A0718C16";
paths = (
{
closed = 1;
nodes = (
"300 4 OFFCURVE",
"312 25 OFFCURVE",
"325 54 CURVE SMOOTH",
"412 249 OFFCURVE",
"448 352 OFFCURVE",
"454 352 CURVE SMOOTH",
"459 352 OFFCURVE",
"505 249 OFFCURVE",
"596 54 CURVE SMOOTH",
"610 25 OFFCURVE",
"618 5 OFFCURVE",
"642 5 CURVE SMOOTH",
"656 5 OFFCURVE",
"668 10 OFFCURVE",
"673 30 CURVE SMOOTH",
"700 140 OFFCURVE",
"727 294 OFFCURVE",
"749 393 CURVE SMOOTH",
"765 466 OFFCURVE",
"789 575 OFFCURVE",
"815 679 CURVE SMOOTH",
"818 691 OFFCURVE",
"813 701 OFFCURVE",
"803 701 CURVE SMOOTH",
"795 701 OFFCURVE",
"788 698 OFFCURVE",
"786 689 CURVE SMOOTH",
"767 605 OFFCURVE",
"736 480 OFFCURVE",
"719 399 CURVE SMOOTH",
"700 307 OFFCURVE",
"647 37 OFFCURVE",
"640 37 CURVE SMOOTH",
"632 37 OFFCURVE",
"556 211 OFFCURVE",
"524 278 CURVE SMOOTH",
"505 318 OFFCURVE",
"470 390 OFFCURVE",
"453 390 CURVE SMOOTH",
"432 390 OFFCURVE",
"406 318 OFFCURVE",
"389 278 CURVE SMOOTH",
"320 115 OFFCURVE",
"291 38 OFFCURVE",
"280 38 CURVE SMOOTH",
"270 38 OFFCURVE",
"216 288 OFFCURVE",
"189 399 CURVE SMOOTH",
"172 469 OFFCURVE",
"125 632 OFFCURVE",
"110 686 CURVE SMOOTH",
"106 700 OFFCURVE",
"101 703 OFFCURVE",
"92 702 CURVE SMOOTH",
"79 701 OFFCURVE",
"77 691 OFFCURVE",
"81 679 CURVE SMOOTH",
"96 635 OFFCURVE",
"145 451 OFFCURVE",
"158 393 CURVE SMOOTH",
"187 264 OFFCURVE",
"213 129 OFFCURVE",
"248 25 CURVE SMOOTH",
"253 10 OFFCURVE",
"262 4 OFFCURVE",
"279 4 CURVE SMOOTH"
);
}
);
width = 895;
},
{
anchors = (
{
name = bottom;
position = "{432, 0}";
},
{
name = top;
position = "{432, 700}";
}
);
layerId = "2F8C22CF-EC86-44F4-AF1A-A6C7F26A0C3C";
paths = (
{
closed = 1;
nodes = (
"330 0 OFFCURVE",
"357 27 OFFCURVE",
"382 74 CURVE SMOOTH",
"397 102 OFFCURVE",
"424 193 OFFCURVE",
"432 193 CURVE SMOOTH",
"438 193 OFFCURVE",
"475 102 OFFCURVE",
"491 73 CURVE SMOOTH",
"516 27 OFFCURVE",
"545 2 OFFCURVE",
"595 2 CURVE SMOOTH",
"646 2 OFFCURVE",
"676 25 OFFCURVE",
"684 64 CURVE SMOOTH",
"704 164 OFFCURVE",
"730 295 OFFCURVE",
"749 375 CURVE SMOOTH",
"773 475 OFFCURVE",
"781 520 OFFCURVE",
"809 622 CURVE SMOOTH",
"822 669 OFFCURVE",
"785 705 OFFCURVE",
"732 705 CURVE SMOOTH",
"693 705 OFFCURVE",
"658 689 OFFCURVE",
"651 659 CURVE SMOOTH",
"619 520 OFFCURVE",
"611 475 OFFCURVE",
"597 405 CURVE SMOOTH",
"581 324 OFFCURVE",
"567 263 OFFCURVE",
"561 263 CURVE SMOOTH",
"553 263 OFFCURVE",
"522 324 OFFCURVE",
"513 341 CURVE SMOOTH",
"480 402 OFFCURVE",
"453 445 OFFCURVE",
"425 445 CURVE SMOOTH",
"396 445 OFFCURVE",
"373 401 OFFCURVE",
"346 343 CURVE SMOOTH",
"338 326 OFFCURVE",
"307 261 OFFCURVE",
"300 261 CURVE SMOOTH",
"292 261 OFFCURVE",
"276 332 OFFCURVE",
"259 407 CURVE SMOOTH",
"241 485 OFFCURVE",
"230 533 OFFCURVE",
"194 660 CURVE SMOOTH",
"184 695 OFFCURVE",
"150 710 OFFCURVE",
"110 705 CURVE SMOOTH",
"59 699 OFFCURVE",
"29 667 OFFCURVE",
"43 618 CURVE SMOOTH",
"73 514 OFFCURVE",
"86 463 OFFCURVE",
"111 374 CURVE SMOOTH",
"140 270 OFFCURVE",
"165 155 OFFCURVE",
"188 58 CURVE SMOOTH",
"197 24 OFFCURVE",
"235 0 OFFCURVE",
"280 0 CURVE SMOOTH"
);
}
);
width = 852;
}
);
note = W;
unicode = 0057;
},
{
glyphname = X;
lastChange = "2018-02-28 10:33:48 +0000";
layers = (
{
anchors = (
{
name = bottom;
position = "{333, 0}";
},
{
name = top;
position = "{333, 700}";
}
);
layerId = "0B1DFD06-3317-40CA-B510-4969A0718C16";
paths = (
{
closed = 1;
nodes = (
"86 3 OFFCURVE",
"91 5 OFFCURVE",
"96 11 CURVE SMOOTH",
"259 228 OFFCURVE",
"441 470 OFFCURVE",
"585 662 CURVE SMOOTH",
"592 671 OFFCURVE",
"593 675 OFFCURVE",
"593 679 CURVE SMOOTH",
"593 686 OFFCURVE",
"587 695 OFFCURVE",
"576 695 CURVE SMOOTH",
"570 695 OFFCURVE",
"565 691 OFFCURVE",
"556 679 CURVE SMOOTH",
"422 498 OFFCURVE",
"235 247 OFFCURVE",
"71 32 CURVE SMOOTH",
"66 26 OFFCURVE",
"64 24 OFFCURVE",
"64 18 CURVE SMOOTH",
"64 11 OFFCURVE",
"70 3 OFFCURVE",
"78 3 CURVE SMOOTH"
);
},
{
closed = 1;
nodes = (
"587 0 OFFCURVE",
"595 8 OFFCURVE",
"595 16 CURVE SMOOTH",
"595 19 OFFCURVE",
"594 21 OFFCURVE",
"592 24 CURVE SMOOTH",
"410 271 OFFCURVE",
"216 532 OFFCURVE",
"108 682 CURVE SMOOTH",
"99 694 OFFCURVE",
"93 697 OFFCURVE",
"88 697 CURVE SMOOTH",
"79 697 OFFCURVE",
"72 691 OFFCURVE",
"72 682 CURVE SMOOTH",
"72 679 OFFCURVE",
"73 675 OFFCURVE",
"76 671 CURVE SMOOTH",
"186 518 OFFCURVE",
"383 252 OFFCURVE",
"562 8 CURVE SMOOTH",
"566 3 OFFCURVE",
"572 0 OFFCURVE",
"578 0 CURVE SMOOTH"
);
}
);
width = 666;
},
{
anchors = (
{
name = bottom;
position = "{333, 0}";
},
{
name = top;
position = "{343, 700}";
}
);
layerId = "2F8C22CF-EC86-44F4-AF1A-A6C7F26A0C3C";
paths = (
{
closed = 1;
nodes = (
"153 -1 OFFCURVE",
"173 11 OFFCURVE",
"194 39 CURVE SMOOTH",
"309 193 OFFCURVE",
"446 374 OFFCURVE",
"611 596 CURVE SMOOTH",
"623 612 OFFCURVE",
"625 625 OFFCURVE",
"625 637 CURVE SMOOTH",
"625 664 OFFCURVE",
"583 699 OFFCURVE",
"537 699 CURVE SMOOTH",
"515 699 OFFCURVE",
"497 695 OFFCURVE",
"485 679 CURVE SMOOTH",
"353 502 OFFCURVE",
"216 326 OFFCURVE",
"55 119 CURVE SMOOTH",
"46 108 OFFCURVE",
"35 88 OFFCURVE",
"35 63 CURVE SMOOTH",
"35 31 OFFCURVE",
"79 -1 OFFCURVE",
"123 -1 CURVE SMOOTH"
);
},
{
closed = 1;
nodes = (
"578 -10 OFFCURVE",
"625 26 OFFCURVE",
"625 63 CURVE SMOOTH",
"625 75 OFFCURVE",
"621 87 OFFCURVE",
"611 100 CURVE SMOOTH",
"455 313 OFFCURVE",
"317 499 OFFCURVE",
"195 666 CURVE SMOOTH",
"180 686 OFFCURVE",
"163 701 OFFCURVE",
"133 701 CURVE SMOOTH",
"86 701 OFFCURVE",
"41 669 OFFCURVE",
"41 629 CURVE SMOOTH",
"41 618 OFFCURVE",
"45 609 OFFCURVE",
"55 596 CURVE SMOOTH",
"175 429 OFFCURVE",
"346 198 OFFCURVE",
"485 16 CURVE SMOOTH",
"496 1 OFFCURVE",
"512 -10 OFFCURVE",
"535 -10 CURVE SMOOTH"
);
}
);
width = 660;
}
);
note = X;
unicode = 0058;
},
{
glyphname = Y;
lastChange = "2018-03-05 10:47:31 +0000";
layers = (
{
anchors = (
{
name = bottom;
position = "{328, 0}";
},
{
name = top;
position = "{328, 700}";
},
{
name = topleft;
position = "{136, 595}";
}
);
layerId = "0B1DFD06-3317-40CA-B510-4969A0718C16";
paths = (
{
closed = 1;
nodes = (
"341 5 OFFCURVE",
"345 12 OFFCURVE",
"345 24 CURVE SMOOTH",
"341 326 LINE",
"377 338 OFFCURVE",
"422 388 OFFCURVE",
"473 473 CURVE SMOOTH",
"513 540 OFFCURVE",
"530 578 OFFCURVE",
"570 675 CURVE SMOOTH",
"575 687 OFFCURVE",
"565 696 OFFCURVE",
"557 696 CURVE SMOOTH",
"547 696 OFFCURVE",
"546 693 OFFCURVE",
"540 679 CURVE SMOOTH",
"506 596 OFFCURVE",
"484 547 OFFCURVE",
"448 486 CURVE SMOOTH",
"404 411 OFFCURVE",
"355 358 OFFCURVE",
"327 358 CURVE SMOOTH",
"292 358 OFFCURVE",
"244 427 OFFCURVE",
"208 485 CURVE SMOOTH",
"170 547 OFFCURVE",
"146 597 OFFCURVE",
"117 675 CURVE SMOOTH",
"113 687 OFFCURVE",
"109 698 OFFCURVE",
"96 698 CURVE SMOOTH",
"85 698 OFFCURVE",
"80 689 OFFCURVE",
"84 679 CURVE SMOOTH",
"116 593 OFFCURVE",
"136 548 OFFCURVE",
"183 471 CURVE SMOOTH",
"236 384 OFFCURVE",
"270 342 OFFCURVE",
"310 326 CURVE",
"313 23 LINE SMOOTH",
"313 11 OFFCURVE",
"317 5 OFFCURVE",
"329 5 CURVE SMOOTH"
);
}
);
width = 655;
},
{
anchors = (
{
name = bottom;
position = "{334, 0}";
},
{
name = top;
position = "{334, 700}";
},
{
name = topleft;
position = "{106, 582}";
}
);
layerId = "2F8C22CF-EC86-44F4-AF1A-A6C7F26A0C3C";
paths = (
{
closed = 1;
nodes = (
"379 1 OFFCURVE",
"413 28 OFFCURVE",
"413 71 CURVE SMOOTH",
"410 333 LINE",
"428 332 OFFCURVE",
"482 381 OFFCURVE",
"515 432 CURVE SMOOTH",
"536 465 OFFCURVE",
"570 530 OFFCURVE",
"601 609 CURVE SMOOTH",
"617 651 OFFCURVE",
"585 700 OFFCURVE",
"523 700 CURVE SMOOTH",
"490 700 OFFCURVE",
"463 686 OFFCURVE",
"448 654 CURVE SMOOTH",
"429 612 OFFCURVE",
"395 538 OFFCURVE",
"370 495 CURVE SMOOTH",
"355 469 OFFCURVE",
"340 449 OFFCURVE",
"331 449 CURVE SMOOTH",
"323 449 OFFCURVE",
"304 467 OFFCURVE",
"287 495 CURVE SMOOTH",
"261 538 OFFCURVE",
"231 609 OFFCURVE",
"212 650 CURVE SMOOTH",
"196 685 OFFCURVE",
"165 702 OFFCURVE",
"133 702 CURVE SMOOTH",
"79 702 OFFCURVE",
"38 656 OFFCURVE",
"53 619 CURVE SMOOTH",
"80 552 OFFCURVE",
"114 484 OFFCURVE",
"142 442 CURVE SMOOTH",
"169 402 OFFCURVE",
"225 332 OFFCURVE",
"245 332 CURVE",
"248 68 LINE SMOOTH",
"248 28 OFFCURVE",
"283 1 OFFCURVE",
"331 1 CURVE SMOOTH"
);
}
);
width = 655;
}
);
note = Y;
unicode = 0059;
},
{
glyphname = Z;
lastChange = "2018-03-05 10:47:46 +0000";
layers = (
{
anchors = (
{
name = bottom;
position = "{327, 0}";
},
{
name = top;
position = "{327, 700}";
}
);
layerId = "0B1DFD06-3317-40CA-B510-4969A0718C16";
paths = (
{
closed = 1;
nodes = (
"583 17 OFFCURVE",
"587 27 OFFCURVE",
"587 32 CURVE SMOOTH",
"587 39 OFFCURVE",
"585 46 OFFCURVE",
"575 47 CURVE SMOOTH",
"490 58 OFFCURVE",
"426 61 OFFCURVE",
"343 61 CURVE SMOOTH",
"233 61 OFFCURVE",
"130 56 OFFCURVE",
"83 54 CURVE",
"111 101 OFFCURVE",
"234 223 OFFCURVE",
"365 360 CURVE SMOOTH",
"504 505 OFFCURVE",
"598 608 OFFCURVE",
"619 651 CURVE SMOOTH",
"624 661 OFFCURVE",
"624 677 OFFCURVE",
"614 685 CURVE SMOOTH",
"607 691 OFFCURVE",
"594 695 OFFCURVE",
"585 694 CURVE SMOOTH",
"459 683 OFFCURVE",
"420 679 OFFCURVE",
"326 679 CURVE SMOOTH",
"253 679 OFFCURVE",
"198 688 OFFCURVE",
"113 698 CURVE SMOOTH",
"94 700 OFFCURVE",
"88 696 OFFCURVE",
"87 685 CURVE SMOOTH",
"86 676 OFFCURVE",
"93 671 OFFCURVE",
"105 669 CURVE SMOOTH",
"202 653 OFFCURVE",
"274 648 OFFCURVE",
"354 648 CURVE SMOOTH",
"397 648 OFFCURVE",
"461 649 OFFCURVE",
"589 662 CURVE",
"537 588 OFFCURVE",
"476 528 OFFCURVE",
"336 376 CURVE SMOOTH",
"218 248 OFFCURVE",
"95 137 OFFCURVE",
"55 67 CURVE SMOOTH",
"51 60 OFFCURVE",
"46 49 OFFCURVE",
"46 39 CURVE SMOOTH",
"46 22 OFFCURVE",
"65 23 OFFCURVE",
"128 26 CURVE SMOOTH",
"189 29 OFFCURVE",
"248 31 OFFCURVE",
"346 31 CURVE SMOOTH",
"419 31 OFFCURVE",
"485 26 OFFCURVE",
"570 19 CURVE"
);
}
);
width = 653;
},
{
anchors = (
{
name = bottom;
position = "{350, 0}";
},
{
name = top;
position = "{350, 700}";
}
);
layerId = "2F8C22CF-EC86-44F4-AF1A-A6C7F26A0C3C";
paths = (
{
closed = 1;
nodes = (
"604 8 OFFCURVE",
"639 35 OFFCURVE",
"639 79 CURVE SMOOTH",
"639 114 OFFCURVE",
"616 136 OFFCURVE",
"575 141 CURVE SMOOTH",
"500 150 OFFCURVE",
"468 153 OFFCURVE",
"409 153 CURVE SMOOTH",
"340 153 OFFCURVE",
"315 151 OFFCURVE",
"242 146 CURVE",
"298 200 OFFCURVE",
"329 230 OFFCURVE",
"449 353 CURVE SMOOTH",
"557 464 OFFCURVE",
"639 544 OFFCURVE",
"660 588 CURVE SMOOTH",
"676 622 OFFCURVE",
"668 659 OFFCURVE",
"637 680 CURVE SMOOTH",
"617 694 OFFCURVE",
"585 701 OFFCURVE",
"561 699 CURVE SMOOTH",
"452 690 OFFCURVE",
"418 687 OFFCURVE",
"360 687 CURVE SMOOTH",
"271 687 OFFCURVE",
"228 694 OFFCURVE",
"151 703 CURVE SMOOTH",
"99 709 OFFCURVE",
"72 683 OFFCURVE",
"70 645 CURVE SMOOTH",
"68 612 OFFCURVE",
"85 587 OFFCURVE",
"138 575 CURVE SMOOTH",
"182 565 OFFCURVE",
"277 557 OFFCURVE",
"350 557 CURVE SMOOTH",
"400 557 OFFCURVE",
"417 561 OFFCURVE",
"456 564 CURVE",
"428 536 OFFCURVE",
"403 505 OFFCURVE",
"303 405 CURVE SMOOTH",
"192 294 OFFCURVE",
"80 180 OFFCURVE",
"52 133 CURVE SMOOTH",
"39 112 OFFCURVE",
"35 98 OFFCURVE",
"35 84 CURVE SMOOTH",
"35 23 OFFCURVE",
"106 18 OFFCURVE",
"167 20 CURVE SMOOTH",
"216 21 OFFCURVE",
"267 25 OFFCURVE",
"340 25 CURVE SMOOTH",
"435 25 OFFCURVE",
"469 22 OFFCURVE",
"566 14 CURVE"
);
}
);
width = 703;
}
);
note = Z;
unicode = 005A;
},
{
glyphname = a;
lastChange = "2018-03-05 10:49:06 +0000";
layers = (
{
anchors = (
{
name = bottom;
position = "{318, 0}";
},
{
name = ogonek;
position = "{572, 10}";
},
{
name = top;
position = "{318, 500}";
}
);
layerId = "0B1DFD06-3317-40CA-B510-4969A0718C16";
paths = (
{
closed = 1;
nodes = (
"384 -7 OFFCURVE",
"444 36 OFFCURVE",
"468 98 CURVE",
"455 98 LINE",
"467 27 OFFCURVE",
"481 3 OFFCURVE",
"542 3 CURVE SMOOTH",
"552 3 OFFCURVE",
"557 8 OFFCURVE",
"557 19 CURVE SMOOTH",
"557 32 OFFCURVE",
"549 33 OFFCURVE",
"538 34 CURVE SMOOTH",
"492 37 OFFCURVE",
"488 63 OFFCURVE",
"488 167 CURVE SMOOTH",
"488 219 OFFCURVE",
"486 283 OFFCURVE",
"492 359 CURVE SMOOTH",
"497 422 OFFCURVE",
"499 433 OFFCURVE",
"506 470 CURVE SMOOTH",
"508 478 OFFCURVE",
"499 485 OFFCURVE",
"487 485 CURVE SMOOTH",
"476 485 OFFCURVE",
"474 479 OFFCURVE",
"472 467 CURVE SMOOTH",
"460 380 LINE",
"469 380 LINE",
"436 452 OFFCURVE",
"384 491 OFFCURVE",
"294 491 CURVE SMOOTH",
"135 491 OFFCURVE",
"70 352 OFFCURVE",
"70 236 CURVE SMOOTH",
"70 152 OFFCURVE",
"104 -7 OFFCURVE",
"290 -7 CURVE SMOOTH"
);
},
{
closed = 1;
nodes = (
"129 25 OFFCURVE",
"101 168 OFFCURVE",
"101 236 CURVE SMOOTH",
"101 313 OFFCURVE",
"147 460 OFFCURVE",
"294 460 CURVE SMOOTH",
"341 460 OFFCURVE",
"457 433 OFFCURVE",
"457 285 CURVE SMOOTH",
"457 244 OFFCURVE",
"457 219 OFFCURVE",
"456 168 CURVE SMOOTH",
"454 69 OFFCURVE",
"372 25 OFFCURVE",
"285 25 CURVE SMOOTH"
);
}
);
width = 636;
},
{
anchors = (
{
name = bottom;
position = "{287, 0}";
},
{
name = ogonek;
position = "{520, 29}";
},
{
name = top;
position = "{287, 500}";
}
);
layerId = "2F8C22CF-EC86-44F4-AF1A-A6C7F26A0C3C";
paths = (
{
closed = 1;
nodes = (
"346 -11 OFFCURVE",
"413 7 OFFCURVE",
"437 86 CURVE",
"397 86 LINE",
"435 18 OFFCURVE",
"455 0 OFFCURVE",
"528 0 CURVE SMOOTH",
"557 0 OFFCURVE",
"574 27 OFFCURVE",
"574 58 CURVE SMOOTH",
"574 98 OFFCURVE",
"556 108 OFFCURVE",
"534 111 CURVE SMOOTH",
"506 115 OFFCURVE",
"507 148 OFFCURVE",
"507 180 CURVE SMOOTH",
"507 227 OFFCURVE",
"506 263 OFFCURVE",
"510 319 CURVE SMOOTH",
"513 358 OFFCURVE",
"517 392 OFFCURVE",
"527 433 CURVE SMOOTH",
"534 463 OFFCURVE",
"503 490 OFFCURVE",
"452 490 CURVE SMOOTH",
"402 490 OFFCURVE",
"389 452 OFFCURVE",
"389 424 CURVE SMOOTH",
"389 399 LINE",
"420 399 LINE",
"416 444 OFFCURVE",
"355 495 OFFCURVE",
"285 495 CURVE SMOOTH",
"140 495 OFFCURVE",
"40 388 OFFCURVE",
"40 235 CURVE SMOOTH",
"40 84 OFFCURVE",
"117 -11 OFFCURVE",
"271 -11 CURVE SMOOTH"
);
},
{
closed = 1;
nodes = (
"222 100 OFFCURVE",
"185 153 OFFCURVE",
"185 236 CURVE SMOOTH",
"185 322 OFFCURVE",
"228 384 OFFCURVE",
"288 384 CURVE SMOOTH",
"334 384 OFFCURVE",
"368 353 OFFCURVE",
"368 307 CURVE SMOOTH",
"368 264 OFFCURVE",
"368 221 OFFCURVE",
"367 180 CURVE SMOOTH",
"366 128 OFFCURVE",
"335 100 OFFCURVE",
"281 100 CURVE SMOOTH"
);
}
);
width = 604;
}
);
note = a;
unicode = 0061;
},
{
glyphname = b;
lastChange = "2018-02-28 11:25:09 +0000";
layers = (
{
anchors = (
{
name = bottom;
position = "{319, 0}";
},
{
name = top;
position = "{319, 500}";
}
);
layerId = "0B1DFD06-3317-40CA-B510-4969A0718C16";
paths = (
{
closed = 1;
nodes = (
"411 -5 OFFCURVE",
"561 37 OFFCURVE",
"561 250 CURVE SMOOTH",
"561 398 OFFCURVE",
"470 500 OFFCURVE",
"305 500 CURVE SMOOTH",
"215 500 OFFCURVE",
"142 457 OFFCURVE",
"105 412 CURVE",
"109 412 LINE",
"107 610 OFFCURVE",
"105 663 OFFCURVE",
"95 878 CURVE SMOOTH",
"95 886 OFFCURVE",
"91 892 OFFCURVE",
"80 892 CURVE SMOOTH",
"71 892 OFFCURVE",
"64 887 OFFCURVE",
"64 878 CURVE SMOOTH",
"74 660 OFFCURVE",
"74 606 OFFCURVE",
"78 390 CURVE SMOOTH",
"82 169 OFFCURVE",
"92 138 OFFCURVE",
"77 84 CURVE SMOOTH",
"68 49 OFFCURVE",
"42 40 OFFCURVE",
"37 37 CURVE SMOOTH",
"33 34 OFFCURVE",
"32 30 OFFCURVE",
"32 27 CURVE SMOOTH",
"32 22 OFFCURVE",
"36 11 OFFCURVE",
"48 11 CURVE SMOOTH",
"51 11 OFFCURVE",
"53 12 OFFCURVE",
"55 13 CURVE SMOOTH",
"78 22 OFFCURVE",
"108 57 OFFCURVE",
"109 96 CURVE",
"127 57 OFFCURVE",
"202 -5 OFFCURVE",
"318 -5 CURVE"
);
},
{
closed = 1;
nodes = (
"211 26 OFFCURVE",
"117 92 OFFCURVE",
"116 170 CURVE",
"116 182 OFFCURVE",
"113 229 OFFCURVE",
"112 273 CURVE SMOOTH",
"111 316 OFFCURVE",
"112 347 OFFCURVE",
"112 370 CURVE",
"151 423 OFFCURVE",
"222 469 OFFCURVE",
"310 469 CURVE SMOOTH",
"438 469 OFFCURVE",
"530 392 OFFCURVE",
"530 247 CURVE SMOOTH",
"530 68 OFFCURVE",
"405 26 OFFCURVE",
"318 26 CURVE SMOOTH"
);
}
);
width = 638;
},
{
anchors = (
{
name = bottom;
position = "{335, 0}";
},
{
name = top;
position = "{300, 500}";
}
);
layerId = "2F8C22CF-EC86-44F4-AF1A-A6C7F26A0C3C";
paths = (
{
closed = 1;
nodes = (
"486 -1 OFFCURVE",
"596 101 OFFCURVE",
"596 259 CURVE SMOOTH",
"596 414 OFFCURVE",
"486 514 OFFCURVE",
"330 514 CURVE SMOOTH",
"257 514 OFFCURVE",
"194 470 OFFCURVE",
"192 438 CURVE",
"214 438 LINE",
"210 600 OFFCURVE",
"210 646 OFFCURVE",
"207 794 CURVE SMOOTH",
"206 827 OFFCURVE",
"174 846 OFFCURVE",
"137 846 CURVE SMOOTH",
"94 846 OFFCURVE",
"62 821 OFFCURVE",
"63 787 CURVE SMOOTH",
"66 633 OFFCURVE",
"65 563 OFFCURVE",
"68 377 CURVE SMOOTH",
"71 189 OFFCURVE",
"72 141 OFFCURVE",
"65 127 CURVE SMOOTH",
"62 121 OFFCURVE",
"54 114 OFFCURVE",
"47 107 CURVE SMOOTH",
"35 95 OFFCURVE",
"30 86 OFFCURVE",
"30 69 CURVE SMOOTH",
"30 42 OFFCURVE",
"59 9 OFFCURVE",
"93 9 CURVE SMOOTH",
"101 9 OFFCURVE",
"113 10 OFFCURVE",
"125 16 CURVE SMOOTH",
"135 21 OFFCURVE",
"160 37 OFFCURVE",
"178 59 CURVE",
"201 32 OFFCURVE",
"274 0 OFFCURVE",
"333 -1 CURVE"
);
},
{
closed = 1;
nodes = (
"275 111 OFFCURVE",
"219 151 OFFCURVE",
"218 193 CURVE",
"216 235 OFFCURVE",
"215 261 OFFCURVE",
"215 279 CURVE SMOOTH",
"215 303 OFFCURVE",
"215 312 OFFCURVE",
"215 348 CURVE",
"231 369 OFFCURVE",
"263 403 OFFCURVE",
"333 403 CURVE SMOOTH",
"399 403 OFFCURVE",
"451 351 OFFCURVE",
"451 259 CURVE SMOOTH",
"451 169 OFFCURVE",
"401 111 OFFCURVE",
"332 111 CURVE SMOOTH"
);
}
);
width = 636;
}
);
note = b;
unicode = 0062;
},
{
glyphname = c;
lastChange = "2018-03-05 10:50:33 +0000";
layers = (
{
anchors = (
{
name = bottom;
position = "{291, 0}";
},
{
name = top;
position = "{291, 500}";
}
);
layerId = "0B1DFD06-3317-40CA-B510-4969A0718C16";
paths = (
{
closed = 1;
nodes = (
"476 2 OFFCURVE",
"533 119 OFFCURVE",
"535 183 CURVE SMOOTH",
"536 202 OFFCURVE",
"528 205 OFFCURVE",
"520 205 CURVE SMOOTH",
"510 205 OFFCURVE",
"504 199 OFFCURVE",
"504 188 CURVE SMOOTH",
"504 139 OFFCURVE",
"451 33 OFFCURVE",
"306 33 CURVE SMOOTH",
"161 33 OFFCURVE",
"94 136 OFFCURVE",
"94 243 CURVE SMOOTH",
"94 357 OFFCURVE",
"170 481 OFFCURVE",
"314 481 CURVE SMOOTH",
"415 481 OFFCURVE",
"475 417 OFFCURVE",
"490 366 CURVE SMOOTH",
"494 354 OFFCURVE",
"502 350 OFFCURVE",
"511 352 CURVE SMOOTH",
"520 354 OFFCURVE",
"524 360 OFFCURVE",
"521 371 CURVE SMOOTH",
"508 420 OFFCURVE",
"443 512 OFFCURVE",
"308 512 CURVE SMOOTH",
"138 512 OFFCURVE",
"63 366 OFFCURVE",
"63 241 CURVE SMOOTH",
"63 122 OFFCURVE",
"134 2 OFFCURVE",
"304 2 CURVE SMOOTH"
);
}
);
width = 582;
},
{
anchors = (
{
name = bottom;
position = "{301, 0}";
},
{
name = top;
position = "{301, 500}";
}
);
layerId = "2F8C22CF-EC86-44F4-AF1A-A6C7F26A0C3C";
paths = (
{
closed = 1;
nodes = (
"443 -1 OFFCURVE",
"555 91 OFFCURVE",
"558 200 CURVE SMOOTH",
"559 242 OFFCURVE",
"529 255 OFFCURVE",
"485 255 CURVE SMOOTH",
"449 255 OFFCURVE",
"435 240 OFFCURVE",
"433 221 CURVE SMOOTH",
"425 146 OFFCURVE",
"376 110 OFFCURVE",
"305 110 CURVE SMOOTH",
"230 110 OFFCURVE",
"185 161 OFFCURVE",
"185 245 CURVE SMOOTH",
"185 336 OFFCURVE",
"239 404 OFFCURVE",
"312 404 CURVE SMOOTH",
"357 404 OFFCURVE",
"392 379 OFFCURVE",
"415 340 CURVE SMOOTH",
"436 304 OFFCURVE",
"457 287 OFFCURVE",
"499 298 CURVE SMOOTH",
"543 310 OFFCURVE",
"556 339 OFFCURVE",
"537 375 CURVE SMOOTH",
"488 468 OFFCURVE",
"417 515 OFFCURVE",
"307 515 CURVE SMOOTH",
"151 515 OFFCURVE",
"40 401 OFFCURVE",
"40 243 CURVE SMOOTH",
"40 97 OFFCURVE",
"147 -1 OFFCURVE",
"303 -1 CURVE SMOOTH"
);
}
);
width = 598;
}
);
note = c;
unicode = 0063;
},
{
glyphname = d;
lastChange = "2018-02-28 11:30:30 +0000";
layers = (
{
anchors = (
{
name = bottom;
position = "{318, 0}";
},
{
name = center;
position = "{318, 250}";
},
{
name = top;
position = "{541, 874}";
},
{
name = topright;
position = "{546, 700}";
}
);
layerId = "0B1DFD06-3317-40CA-B510-4969A0718C16";
paths = (
{
closed = 1;
nodes = (
"404 -7 OFFCURVE",
"489 37 OFFCURVE",
"523 99 CURVE",
"528 35 OFFCURVE",
"564 16 OFFCURVE",
"576 11 CURVE SMOOTH",
"583 8 OFFCURVE",
"589 7 OFFCURVE",
"595 16 CURVE SMOOTH",
"599 22 OFFCURVE",
"598 31 OFFCURVE",
"595 33 CURVE SMOOTH",
"587 38 OFFCURVE",
"567 49 OFFCURVE",
"557 84 CURVE SMOOTH",
"545 126 OFFCURVE",
"548 235 OFFCURVE",
"551 390 CURVE SMOOTH",
"555 605 OFFCURVE",
"556 732 OFFCURVE",
"569 876 CURVE SMOOTH",
"570 886 OFFCURVE",
"563 892 OFFCURVE",
"553 892 CURVE SMOOTH",
"542 892 OFFCURVE",
"538 885 OFFCURVE",
"537 874 CURVE SMOOTH",
"524 730 OFFCURVE",
"522 605 OFFCURVE",
"520 412 CURVE",
"527 412 LINE",
"507 450 OFFCURVE",
"431 501 OFFCURVE",
"324 501 CURVE SMOOTH",
"168 501 OFFCURVE",
"68 408 OFFCURVE",
"68 250 CURVE SMOOTH",
"68 59 OFFCURVE",
"197 -7 OFFCURVE",
"315 -7 CURVE"
);
},
{
closed = 1;
nodes = (
"227 24 OFFCURVE",
"99 79 OFFCURVE",
"99 247 CURVE SMOOTH",
"99 386 OFFCURVE",
"191 470 OFFCURVE",
"319 470 CURVE SMOOTH",
"432 470 OFFCURVE",
"504 410 OFFCURVE",
"519 376 CURVE",
"519 337 OFFCURVE",
"517 218 OFFCURVE",
"517 190 CURVE SMOOTH",
"517 90 OFFCURVE",
"413 24 OFFCURVE",
"311 24 CURVE SMOOTH"
);
}
);
width = 635;
},
{
anchors = (
{
name = bottom;
position = "{312, 0}";
},
{
name = center;
position = "{311, 267}";
},
{
name = top;
position = "{510, 866}";
},
{
name = topright;
position = "{508, 700}";
}
);
layerId = "2F8C22CF-EC86-44F4-AF1A-A6C7F26A0C3C";
paths = (
{
closed = 1;
nodes = (
"369 0 OFFCURVE",
"410 18 OFFCURVE",
"440 56 CURVE",
"452 27 OFFCURVE",
"468 12 OFFCURVE",
"484 0 CURVE SMOOTH",
"500 -12 OFFCURVE",
"540 -22 OFFCURVE",
"571 1 CURVE SMOOTH",
"600 22 OFFCURVE",
"611 52 OFFCURVE",
"597 74 CURVE SMOOTH",
"583 95 OFFCURVE",
"575 109 OFFCURVE",
"571 125 CURVE SMOOTH",
"566 146 OFFCURVE",
"565 195 OFFCURVE",
"568 378 CURVE SMOOTH",
"572 639 OFFCURVE",
"575 716 OFFCURVE",
"583 786 CURVE SMOOTH",
"587 822 OFFCURVE",
"553 847 OFFCURVE",
"510 847 CURVE SMOOTH",
"471 847 OFFCURVE",
"442 826 OFFCURVE",
"439 794 CURVE SMOOTH",
"432 715 OFFCURVE",
"423 469 OFFCURVE",
"423 409 CURVE",
"471 409 LINE",
"470 457 OFFCURVE",
"420 515 OFFCURVE",
"305 515 CURVE SMOOTH",
"145 515 OFFCURVE",
"40 419 OFFCURVE",
"40 260 CURVE SMOOTH",
"40 99 OFFCURVE",
"150 0 OFFCURVE",
"309 0 CURVE SMOOTH"
);
},
{
closed = 1;
nodes = (
"239 114 OFFCURVE",
"185 168 OFFCURVE",
"185 258 CURVE SMOOTH",
"185 352 OFFCURVE",
"231 404 OFFCURVE",
"312 404 CURVE SMOOTH",
"355 404 OFFCURVE",
"409 381 OFFCURVE",
"423 363 CURVE",
"423 307 OFFCURVE",
"424 266 OFFCURVE",
"423 211 CURVE SMOOTH",
"422 157 OFFCURVE",
"372 114 OFFCURVE",
"310 114 CURVE SMOOTH"
);
}
);
width = 633;
}
);
note = d;
unicode = 0064;
},
{
glyphname = e;
lastChange = "2018-03-05 10:52:18 +0000";
layers = (
{
anchors = (
{
name = bottom;
position = "{317, 0}";
},
{
name = ogonek;
position = "{474, 68}";
},
{
name = top;
position = "{317, 500}";
}
);
layerId = "0B1DFD06-3317-40CA-B510-4969A0718C16";
paths = (
{
closed = 1;
nodes = (
"452 0 OFFCURVE",
"502 73 OFFCURVE",
"531 116 CURVE SMOOTH",
"539 127 OFFCURVE",
"539 135 OFFCURVE",
"530 141 CURVE SMOOTH",
"521 147 OFFCURVE",
"513 146 OFFCURVE",
"509 141 CURVE SMOOTH",
"475 94 OFFCURVE",
"433 31 OFFCURVE",
"322 31 CURVE SMOOTH",
"183 31 OFFCURVE",
"101 132 OFFCURVE",
"101 249 CURVE",
"267 254 OFFCURVE",
"331 258 OFFCURVE",
"514 261 CURVE SMOOTH",
"545 262 OFFCURVE",
"551 272 OFFCURVE",
"551 298 CURVE SMOOTH",
"551 425 OFFCURVE",
"459 512 OFFCURVE",
"320 512 CURVE SMOOTH",
"161 512 OFFCURVE",
"70 385 OFFCURVE",
"70 253 CURVE SMOOTH",
"70 129 OFFCURVE",
"151 0 OFFCURVE",
"317 0 CURVE SMOOTH"
);
},
{
closed = 1;
nodes = (
"101 358 OFFCURVE",
"182 481 OFFCURVE",
"322 481 CURVE SMOOTH",
"443 481 OFFCURVE",
"522 404 OFFCURVE",
"522 300 CURVE SMOOTH",
"522 293 OFFCURVE",
"520 292 OFFCURVE",
"515 292 CURVE SMOOTH",
"343 292 OFFCURVE",
"263 287 OFFCURVE",
"101 279 CURVE"
);
}
);
width = 634;
},
{
anchors = (
{
name = bottom;
position = "{309, 0}";
},
{
name = ogonek;
position = "{470, 79}";
},
{
name = top;
position = "{309, 500}";
}
);
layerId = "2F8C22CF-EC86-44F4-AF1A-A6C7F26A0C3C";
paths = (
{
closed = 1;
nodes = (
"447 -10 OFFCURVE",
"495 47 OFFCURVE",
"520 80 CURVE SMOOTH",
"545 113 OFFCURVE",
"526 145 OFFCURVE",
"508 158 CURVE SMOOTH",
"482 177 OFFCURVE",
"450 176 OFFCURVE",
"430 155 CURVE SMOOTH",
"393 115 OFFCURVE",
"356 105 OFFCURVE",
"304 105 CURVE SMOOTH",
"219 105 OFFCURVE",
"165 164 OFFCURVE",
"165 210 CURVE",
"308 214 OFFCURVE",
"336 212 OFFCURVE",
"488 212 CURVE SMOOTH",
"547 212 OFFCURVE",
"556 242 OFFCURVE",
"556 305 CURVE SMOOTH",
"556 420 OFFCURVE",
"450 515 OFFCURVE",
"312 515 CURVE SMOOTH",
"156 515 OFFCURVE",
"40 409 OFFCURVE",
"40 253 CURVE SMOOTH",
"40 105 OFFCURVE",
"153 -10 OFFCURVE",
"309 -10 CURVE SMOOTH"
);
},
{
closed = 1;
nodes = (
"165 341 OFFCURVE",
"216 407 OFFCURVE",
"305 407 CURVE SMOOTH",
"382 407 OFFCURVE",
"438 369 OFFCURVE",
"438 314 CURVE SMOOTH",
"438 306 OFFCURVE",
"436 302 OFFCURVE",
"424 302 CURVE SMOOTH",
"352 302 OFFCURVE",
"271 305 OFFCURVE",
"165 300 CURVE"
);
}
);
width = 596;
}
);
note = e;
unicode = 0065;
},
{
glyphname = f;
lastChange = "2018-02-28 11:25:36 +0000";
layers = (
{
anchors = (
{
name = bottom;
position = "{181, 0}";
},
{
name = top;
position = "{244, 740}";
}
);
layerId = "0B1DFD06-3317-40CA-B510-4969A0718C16";
paths = (
{
closed = 1;
nodes = (
"137 0 OFFCURVE",
"142 5 OFFCURVE",
"142 17 CURVE SMOOTH",
"141 277 OFFCURVE",
"135 366 OFFCURVE",
"135 534 CURVE SMOOTH",
"135 628 OFFCURVE",
"156 709 OFFCURVE",
"244 709 CURVE SMOOTH",
"310 709 OFFCURVE",
"331 653 OFFCURVE",
"331 588 CURVE SMOOTH",
"331 579 OFFCURVE",
"335 571 OFFCURVE",
"346 571 CURVE SMOOTH",
"357 571 OFFCURVE",
"362 576 OFFCURVE",
"362 588 CURVE SMOOTH",
"362 692 OFFCURVE",
"310 740 OFFCURVE",
"244 740 CURVE SMOOTH",
"130 740 OFFCURVE",
"102 641 OFFCURVE",
"103 534 CURVE SMOOTH",
"105 366 OFFCURVE",
"109 277 OFFCURVE",
"111 17 CURVE SMOOTH",
"111 8 OFFCURVE",
"114 0 OFFCURVE",
"127 0 CURVE SMOOTH"
);
},
{
closed = 1;
nodes = (
"111 356 OFFCURVE",
"150 358 OFFCURVE",
"235 359 CURVE SMOOTH",
"247 359 OFFCURVE",
"251 364 OFFCURVE",
"251 373 CURVE SMOOTH",
"251 384 OFFCURVE",
"245 389 OFFCURVE",
"234 389 CURVE SMOOTH",
"149 388 OFFCURVE",
"110 386 OFFCURVE",
"24 384 CURVE SMOOTH",
"10 384 OFFCURVE",
"6 377 OFFCURVE",
"6 368 CURVE SMOOTH",
"6 358 OFFCURVE",
"12 353 OFFCURVE",
"23 353 CURVE"
);
}
);
width = 362;
},
{
anchors = (
{
name = bottom;
position = "{132, 0}";
},
{
name = top;
position = "{233, 726}";
}
);
layerId = "2F8C22CF-EC86-44F4-AF1A-A6C7F26A0C3C";
paths = (
{
closed = 1;
nodes = (
"173 0 OFFCURVE",
"204 22 OFFCURVE",
"203 59 CURVE SMOOTH",
"197 276 OFFCURVE",
"195 371 OFFCURVE",
"197 524 CURVE SMOOTH",
"198 612 OFFCURVE",
"204 625 OFFCURVE",
"223 625 CURVE SMOOTH",
"238 625 OFFCURVE",
"248 619 OFFCURVE",
"248 569 CURVE SMOOTH",
"248 532 OFFCURVE",
"275 508 OFFCURVE",
"318 508 CURVE SMOOTH",
"364 508 OFFCURVE",
"391 531 OFFCURVE",
"391 575 CURVE SMOOTH",
"391 679 OFFCURVE",
"335 740 OFFCURVE",
"233 740 CURVE SMOOTH",
"115 740 OFFCURVE",
"49 667 OFFCURVE",
"52 526 CURVE SMOOTH",
"55 363 OFFCURVE",
"54 259 OFFCURVE",
"60 57 CURVE SMOOTH",
"61 23 OFFCURVE",
"90 0 OFFCURVE",
"132 0 CURVE SMOOTH"
);
},
{
closed = 1;
nodes = (
"108 317 OFFCURVE",
"195 321 OFFCURVE",
"248 321 CURVE SMOOTH",
"284 321 OFFCURVE",
"298 343 OFFCURVE",
"298 375 CURVE SMOOTH",
"298 406 OFFCURVE",
"285 425 OFFCURVE",
"250 428 CURVE SMOOTH",
"221 430 OFFCURVE",
"53 430 OFFCURVE",
"26 428 CURVE SMOOTH",
"-23 424 OFFCURVE",
"-30 404 OFFCURVE",
"-30 369 CURVE SMOOTH",
"-30 337 OFFCURVE",
"-12 317 OFFCURVE",
"30 317 CURVE SMOOTH"
);
}
);
width = 359;
}
);
note = f;
unicode = 0066;
},
{
glyphname = g;
lastChange = "2018-03-05 10:52:39 +0000";
layers = (
{
anchors = (
{
name = bottom;
position = "{285, 0}";
},
{
name = top;
position = "{285, 500}";
}
);
layerId = "0B1DFD06-3317-40CA-B510-4969A0718C16";
paths = (
{
closed = 1;
nodes = (
"444 -279 OFFCURVE",
"524 -181 OFFCURVE",
"524 -32 CURVE SMOOTH",
"524 11 OFFCURVE",
"515 61 OFFCURVE",
"500 171 CURVE SMOOTH",
"486 276 OFFCURVE",
"471 357 OFFCURVE",
"461 424 CURVE",
"466 444 OFFCURVE",
"480 501 OFFCURVE",
"483 513 CURVE SMOOTH",
"485 523 OFFCURVE",
"480 527 OFFCURVE",
"471 530 CURVE SMOOTH",
"464 532 OFFCURVE",
"457 531 OFFCURVE",
"453 519 CURVE SMOOTH",
"445 494 OFFCURVE",
"440 475 OFFCURVE",
"430 440 CURVE",
"440 441 LINE",
"428 462 OFFCURVE",
"366 508 OFFCURVE",
"281 508 CURVE SMOOTH",
"128 508 OFFCURVE",
"50 385 OFFCURVE",
"50 260 CURVE SMOOTH",
"50 148 OFFCURVE",
"122 10 OFFCURVE",
"279 10 CURVE SMOOTH",
"385 10 OFFCURVE",
"455 60 OFFCURVE",
"486 125 CURVE",
"475 125 LINE",
"482 97 OFFCURVE",
"493 4 OFFCURVE",
"493 -31 CURVE SMOOTH",
"493 -162 OFFCURVE",
"424 -248 OFFCURVE",
"289 -248 CURVE SMOOTH",
"186 -248 OFFCURVE",
"146 -178 OFFCURVE",
"130 -122 CURVE SMOOTH",
"126 -109 OFFCURVE",
"119 -106 OFFCURVE",
"110 -109 CURVE SMOOTH",
"101 -112 OFFCURVE",
"98 -117 OFFCURVE",
"102 -134 CURVE SMOOTH",
"119 -200 OFFCURVE",
"175 -279 OFFCURVE",
"294 -279 CURVE SMOOTH"
);
},
{
closed = 1;
nodes = (
"159 41 OFFCURVE",
"81 143 OFFCURVE",
"81 256 CURVE SMOOTH",
"81 373 OFFCURVE",
"164 477 OFFCURVE",
"281 477 CURVE SMOOTH",
"341 477 OFFCURVE",
"410 447 OFFCURVE",
"433 399 CURVE",
"443 337 OFFCURVE",
"461 247 OFFCURVE",
"470 160 CURVE",
"432 77 OFFCURVE",
"372 41 OFFCURVE",
"275 41 CURVE SMOOTH"
);
}
);
width = 570;
},
{
anchors = (
{
name = bottom;
position = "{301, -250}";
},
{
name = top;
position = "{301, 500}";
}
);
layerId = "2F8C22CF-EC86-44F4-AF1A-A6C7F26A0C3C";
paths = (
{
closed = 1;
nodes = (
"457 -280 OFFCURVE",
"556 -168 OFFCURVE",
"556 4 CURVE SMOOTH",
"556 42 OFFCURVE",
"549 107 OFFCURVE",
"541 172 CURVE SMOOTH",
"530 261 OFFCURVE",
"517 352 OFFCURVE",
"509 409 CURVE",
"514 426 OFFCURVE",
"522 448 OFFCURVE",
"527 462 CURVE SMOOTH",
"535 487 OFFCURVE",
"519 512 OFFCURVE",
"484 523 CURVE SMOOTH",
"441 537 OFFCURVE",
"414 524 OFFCURVE",
"404 504 CURVE SMOOTH",
"393 482 OFFCURVE",
"388 472 OFFCURVE",
"372 439 CURVE",
"414 439 LINE",
"407 467 OFFCURVE",
"366 504 OFFCURVE",
"289 504 CURVE SMOOTH",
"141 504 OFFCURVE",
"40 398 OFFCURVE",
"40 252 CURVE SMOOTH",
"40 104 OFFCURVE",
"139 -4 OFFCURVE",
"280 -4 CURVE SMOOTH",
"365 -4 OFFCURVE",
"429 38 OFFCURVE",
"442 74 CURVE",
"409 74 LINE",
"412 36 OFFCURVE",
"413 23 OFFCURVE",
"413 4 CURVE SMOOTH",
"413 -122 OFFCURVE",
"370 -164 OFFCURVE",
"305 -164 CURVE SMOOTH",
"232 -164 OFFCURVE",
"211 -132 OFFCURVE",
"206 -89 CURVE SMOOTH",
"203 -66 OFFCURVE",
"181 -46 OFFCURVE",
"139 -52 CURVE SMOOTH",
"94 -58 OFFCURVE",
"82 -79 OFFCURVE",
"87 -120 CURVE SMOOTH",
"99 -220 OFFCURVE",
"188 -280 OFFCURVE",
"306 -280 CURVE SMOOTH"
);
},
{
closed = 1;
nodes = (
"224 105 OFFCURVE",
"184 170 OFFCURVE",
"184 248 CURVE SMOOTH",
"184 329 OFFCURVE",
"235 393 OFFCURVE",
"295 393 CURVE SMOOTH",
"334 393 OFFCURVE",
"356 379 OFFCURVE",
"371 357 CURVE",
"383 282 OFFCURVE",
"392 241 OFFCURVE",
"398 158 CURVE",
"387 129 OFFCURVE",
"346 105 OFFCURVE",
"292 105 CURVE SMOOTH"
);
}
);
width = 596;
}
);
note = g;
unicode = 0067;
},
{
glyphname = h;
lastChange = "2018-03-05 10:53:28 +0000";
layers = (
{
anchors = (
{
name = bottom;
position = "{317, 0}";
},
{
name = center;
position = "{317, 500}";
},
{
name = top;
position = "{145, 810}";
}
);
layerId = "0B1DFD06-3317-40CA-B510-4969A0718C16";
paths = (
{
closed = 1;
nodes = (
"507 -2 OFFCURVE",
"513 3 OFFCURVE",
"513 12 CURVE SMOOTH",
"513 343 OFFCURVE",
"506 510 OFFCURVE",
"331 510 CURVE SMOOTH",
"204 510 OFFCURVE",
"134 406 OFFCURVE",
"125 357 CURVE",
"138 357 LINE",
"147 546 OFFCURVE",
"149 631 OFFCURVE",
"160 767 CURVE SMOOTH",
"161 779 OFFCURVE",
"155 785 OFFCURVE",
"145 785 CURVE SMOOTH",
"135 785 OFFCURVE",
"130 783 OFFCURVE",
"129 766 CURVE SMOOTH",
"121 633 OFFCURVE",
"115 546 OFFCURVE",
"111 408 CURVE SMOOTH",
"108 301 OFFCURVE",
"106 179 OFFCURVE",
"106 12 CURVE SMOOTH",
"106 4 OFFCURVE",
"110 -1 OFFCURVE",
"121 -1 CURVE SMOOTH",
"130 -1 OFFCURVE",
"138 4 OFFCURVE",
"138 11 CURVE SMOOTH",
"138 161 OFFCURVE",
"135 250 OFFCURVE",
"147 321 CURVE SMOOTH",
"161 406 OFFCURVE",
"238 479 OFFCURVE",
"332 479 CURVE SMOOTH",
"476 479 OFFCURVE",
"482 304 OFFCURVE",
"482 13 CURVE SMOOTH",
"482 3 OFFCURVE",
"487 -2 OFFCURVE",
"498 -2 CURVE SMOOTH"
);
}
);
width = 552;
},
{
anchors = (
{
name = bottom;
position = "{323, 0}";
},
{
name = center;
position = "{323, 500}";
},
{
name = top;
position = "{171, 790}";
}
);
layerId = "2F8C22CF-EC86-44F4-AF1A-A6C7F26A0C3C";
paths = (
{
closed = 1;
nodes = (
"509 4 OFFCURVE",
"541 26 OFFCURVE",
"541 58 CURVE SMOOTH",
"541 411 OFFCURVE",
"511 522 OFFCURVE",
"338 522 CURVE SMOOTH",
"229 522 OFFCURVE",
"196 434 OFFCURVE",
"185 411 CURVE",
"218 411 LINE",
"228 534 OFFCURVE",
"228 610 OFFCURVE",
"235 731 CURVE SMOOTH",
"237 765 OFFCURVE",
"209 786 OFFCURVE",
"171 786 CURVE SMOOTH",
"124 786 OFFCURVE",
"99 761 OFFCURVE",
"97 727 CURVE SMOOTH",
"91 624 OFFCURVE",
"85 526 OFFCURVE",
"83 438 CURVE SMOOTH",
"80 324 OFFCURVE",
"78 209 OFFCURVE",
"78 56 CURVE SMOOTH",
"78 26 OFFCURVE",
"111 4 OFFCURVE",
"150 4 CURVE SMOOTH",
"189 4 OFFCURVE",
"223 25 OFFCURVE",
"223 55 CURVE SMOOTH",
"223 215 OFFCURVE",
"218 263 OFFCURVE",
"227 313 CURVE SMOOTH",
"239 378 OFFCURVE",
"289 411 OFFCURVE",
"327 411 CURVE SMOOTH",
"387 411 OFFCURVE",
"396 350 OFFCURVE",
"396 65 CURVE SMOOTH",
"396 24 OFFCURVE",
"430 4 OFFCURVE",
"469 4 CURVE SMOOTH"
);
}
);
width = 581;
}
);
note = h;
unicode = 0068;
},
{
glyphname = i;
lastChange = "2018-02-27 10:45:40 +0000";
layers = (
{
anchors = (
{
name = bottom;
position = "{142, 0}";
}
);
layerId = "0B1DFD06-3317-40CA-B510-4969A0718C16";
paths = (
{
closed = 1;
nodes = (
"161 6 OFFCURVE",
"167 11 OFFCURVE",
"167 22 CURVE SMOOTH",
"178 484 LINE SMOOTH",
"178 499 OFFCURVE",
"173 504 OFFCURVE",
"162 504 CURVE SMOOTH",
"152 504 OFFCURVE",
"146 499 OFFCURVE",
"146 484 CURVE SMOOTH",
"136 21 LINE SMOOTH",
"136 11 OFFCURVE",
"142 6 OFFCURVE",
"152 6 CURVE SMOOTH"
);
},
{
closed = 1;
nodes = (
"192 595 OFFCURVE",
"213 611 OFFCURVE",
"213 640 CURVE SMOOTH",
"213 665 OFFCURVE",
"195 684 OFFCURVE",
"170 684 CURVE SMOOTH",
"143 684 OFFCURVE",
"124 663 OFFCURVE",
"124 638 CURVE SMOOTH",
"124 613 OFFCURVE",
"144 595 OFFCURVE",
"168 595 CURVE SMOOTH"
);
}
);
width = 284;
},
{
anchors = (
{
name = bottom;
position = "{155, 0}";
}
);
layerId = "2F8C22CF-EC86-44F4-AF1A-A6C7F26A0C3C";
paths = (
{
closed = 1;
nodes = (
"196 6 OFFCURVE",
"228 27 OFFCURVE",
"229 64 CURVE SMOOTH",
"237 432 LINE SMOOTH",
"238 470 OFFCURVE",
"205 492 OFFCURVE",
"163 492 CURVE SMOOTH",
"121 492 OFFCURVE",
"91 470 OFFCURVE",
"90 434 CURVE SMOOTH",
"82 65 LINE SMOOTH",
"81 28 OFFCURVE",
"113 6 OFFCURVE",
"155 6 CURVE SMOOTH"
);
},
{
closed = 1;
nodes = (
"223 522 OFFCURVE",
"260 560 OFFCURVE",
"260 614 CURVE SMOOTH",
"260 663 OFFCURVE",
"223 700 OFFCURVE",
"170 700 CURVE SMOOTH",
"116 700 OFFCURVE",
"78 664 OFFCURVE",
"78 612 CURVE SMOOTH",
"78 561 OFFCURVE",
"116 522 OFFCURVE",
"168 522 CURVE SMOOTH"
);
}
);
width = 338;
}
);
note = i;
unicode = 0069;
},
{
glyphname = j;
lastChange = "2018-02-28 11:26:24 +0000";
layers = (
{
layerId = "0B1DFD06-3317-40CA-B510-4969A0718C16";
paths = (
{
closed = 1;
nodes = (
"116 -236 OFFCURVE",
"186 -153 OFFCURVE",
"189 23 CURVE SMOOTH",
"191 156 OFFCURVE",
"192 290 OFFCURVE",
"196 482 CURVE SMOOTH",
"196 493 OFFCURVE",
"189 498 OFFCURVE",
"180 498 CURVE SMOOTH",
"171 498 OFFCURVE",
"165 492 OFFCURVE",
"165 483 CURVE SMOOTH",
"162 291 OFFCURVE",
"161 156 OFFCURVE",
"157 23 CURVE SMOOTH",
"153 -117 OFFCURVE",
"110 -206 OFFCURVE",
"28 -206 CURVE SMOOTH",
"-15 -206 OFFCURVE",
"-63 -180 OFFCURVE",
"-63 -101 CURVE SMOOTH",
"-63 -89 OFFCURVE",
"-66 -79 OFFCURVE",
"-79 -79 CURVE SMOOTH",
"-91 -79 OFFCURVE",
"-94 -85 OFFCURVE",
"-94 -103 CURVE SMOOTH",
"-94 -184 OFFCURVE",
"-36 -236 OFFCURVE",
"31 -236 CURVE SMOOTH"
);
},
{
closed = 1;
nodes = (
"204 594 OFFCURVE",
"226 610 OFFCURVE",
"226 638 CURVE SMOOTH",
"226 664 OFFCURVE",
"208 683 OFFCURVE",
"183 683 CURVE SMOOTH",
"156 683 OFFCURVE",
"137 662 OFFCURVE",
"137 637 CURVE SMOOTH",
"137 612 OFFCURVE",
"157 594 OFFCURVE",
"181 594 CURVE SMOOTH"
);
}
);
width = 284;
},
{
layerId = "2F8C22CF-EC86-44F4-AF1A-A6C7F26A0C3C";
paths = (
{
closed = 1;
nodes = (
"155 -236 OFFCURVE",
"225 -177 OFFCURVE",
"229 25 CURVE SMOOTH",
"232 172 OFFCURVE",
"233 284 OFFCURVE",
"233 448 CURVE SMOOTH",
"233 481 OFFCURVE",
"204 499 OFFCURVE",
"163 499 CURVE SMOOTH",
"122 499 OFFCURVE",
"91 480 OFFCURVE",
"91 451 CURVE SMOOTH",
"91 283 OFFCURVE",
"89 178 OFFCURVE",
"86 26 CURVE SMOOTH",
"84 -65 OFFCURVE",
"75 -124 OFFCURVE",
"46 -124 CURVE SMOOTH",
"25 -124 OFFCURVE",
"9 -107 OFFCURVE",
"9 -68 CURVE SMOOTH",
"9 -37 OFFCURVE",
"-15 -18 OFFCURVE",
"-57 -18 CURVE SMOOTH",
"-101 -18 OFFCURVE",
"-125 -34 OFFCURVE",
"-125 -81 CURVE SMOOTH",
"-125 -170 OFFCURVE",
"-57 -236 OFFCURVE",
"36 -236 CURVE SMOOTH"
);
},
{
closed = 1;
nodes = (
"219 526 OFFCURVE",
"260 562 OFFCURVE",
"260 613 CURVE SMOOTH",
"260 663 OFFCURVE",
"222 699 OFFCURVE",
"169 699 CURVE SMOOTH",
"115 699 OFFCURVE",
"76 661 OFFCURVE",
"76 612 CURVE SMOOTH",
"76 568 OFFCURVE",
"120 526 OFFCURVE",
"167 526 CURVE SMOOTH"
);
}
);
width = 338;
}
);
note = j;
unicode = 006A;
},
{
glyphname = k;
lastChange = "2018-02-28 11:30:03 +0000";
layers = (
{
anchors = (
{
name = bottom;
position = "{263, 0}";
},
{
name = top;
position = "{133, 780}";
}
);
layerId = "0B1DFD06-3317-40CA-B510-4969A0718C16";
paths = (
{
closed = 1;
nodes = (
"140 -3 OFFCURVE",
"147 0 OFFCURVE",
"147 10 CURVE SMOOTH",
"148 255 LINE",
"269 164 OFFCURVE",
"328 120 OFFCURVE",
"462 17 CURVE SMOOTH",
"469 12 OFFCURVE",
"477 6 OFFCURVE",
"481 6 CURVE SMOOTH",
"490 6 OFFCURVE",
"498 13 OFFCURVE",
"498 23 CURVE SMOOTH",
"498 27 OFFCURVE",
"496 31 OFFCURVE",
"493 33 CURVE SMOOTH",
"150 292 LINE",
"487 501 LINE SMOOTH",
"493 505 OFFCURVE",
"495 507 OFFCURVE",
"496 511 CURVE SMOOTH",
"498 520 OFFCURVE",
"490 531 OFFCURVE",
"481 531 CURVE SMOOTH",
"479 531 OFFCURVE",
"476 530 OFFCURVE",
"472 528 CURVE SMOOTH",
"345 450 OFFCURVE",
"283 411 OFFCURVE",
"147 327 CURVE",
"149 762 LINE SMOOTH",
"149 775 OFFCURVE",
"143 780 OFFCURVE",
"133 780 CURVE SMOOTH",
"121 780 OFFCURVE",
"117 774 OFFCURVE",
"117 762 CURVE SMOOTH",
"116 9 LINE SMOOTH",
"116 0 OFFCURVE",
"124 -3 OFFCURVE",
"132 -3 CURVE SMOOTH"
);
}
);
width = 525;
},
{
anchors = (
{
name = bottom;
position = "{275, 0}";
},
{
name = top;
position = "{131, 741}";
}
);
layerId = "2F8C22CF-EC86-44F4-AF1A-A6C7F26A0C3C";
paths = (
{
closed = 1;
nodes = (
"172 -8 OFFCURVE",
"202 14 OFFCURVE",
"202 45 CURVE SMOOTH",
"202 165 LINE",
"283 97 OFFCURVE",
"322 60 OFFCURVE",
"375 18 CURVE SMOOTH",
"389 7 OFFCURVE",
"407 0 OFFCURVE",
"426 0 CURVE SMOOTH",
"459 0 OFFCURVE",
"490 24 OFFCURVE",
"490 61 CURVE SMOOTH",
"490 78 OFFCURVE",
"482 92 OFFCURVE",
"473 99 CURVE SMOOTH",
"232 283 LINE",
"464 426 LINE SMOOTH",
"485 439 OFFCURVE",
"499 449 OFFCURVE",
"499 472 CURVE SMOOTH",
"499 503 OFFCURVE",
"477 533 OFFCURVE",
"449 539 CURVE SMOOTH",
"439 541 OFFCURVE",
"421 539 OFFCURVE",
"404 529 CURVE SMOOTH",
"317 476 OFFCURVE",
"287 456 OFFCURVE",
"202 402 CURVE",
"204 682 LINE SMOOTH",
"204 719 OFFCURVE",
"172 741 OFFCURVE",
"131 741 CURVE SMOOTH",
"90 741 OFFCURVE",
"60 719 OFFCURVE",
"60 682 CURVE SMOOTH",
"60 44 LINE SMOOTH",
"60 14 OFFCURVE",
"92 -8 OFFCURVE",
"132 -8 CURVE SMOOTH"
);
}
);
width = 539;
}
);
note = k;
unicode = 006B;
},
{
glyphname = l;
lastChange = "2018-03-05 10:56:31 +0000";
layers = (
{
anchors = (
{
name = bottom;
position = "{107, 0}";
},
{
name = center;
position = "{120, 250}";
},
{
name = top;
position = "{104, 792}";
},
{
name = topright;
position = "{109, 590}";
}
);
layerId = "0B1DFD06-3317-40CA-B510-4969A0718C16";
paths = (
{
closed = 1;
nodes = (
"118 9 OFFCURVE",
"124 13 OFFCURVE",
"124 27 CURVE SMOOTH",
"119 773 LINE SMOOTH",
"119 787 OFFCURVE",
"114 792 OFFCURVE",
"104 792 CURVE SMOOTH",
"93 792 OFFCURVE",
"87 787 OFFCURVE",
"87 773 CURVE SMOOTH",
"93 27 LINE SMOOTH",
"93 13 OFFCURVE",
"100 9 OFFCURVE",
"109 9 CURVE SMOOTH"
);
}
);
width = 239;
},
{
anchors = (
{
name = bottom;
position = "{135, 0}";
},
{
name = center;
position = "{139, 260}";
},
{
name = top;
position = "{135, 792}";
},
{
name = topright;
position = "{136, 633}";
}
);
layerId = "2F8C22CF-EC86-44F4-AF1A-A6C7F26A0C3C";
paths = (
{
closed = 1;
nodes = (
"178 9 OFFCURVE",
"210 34 OFFCURVE",
"210 70 CURVE SMOOTH",
"205 732 LINE SMOOTH",
"205 768 OFFCURVE",
"176 792 OFFCURVE",
"134 792 CURVE SMOOTH",
"92 792 OFFCURVE",
"60 768 OFFCURVE",
"60 731 CURVE SMOOTH",
"66 69 LINE SMOOTH",
"66 33 OFFCURVE",
"95 9 OFFCURVE",
"137 9 CURVE SMOOTH"
);
}
);
width = 270;
}
);
note = l;
unicode = 006C;
},
{
glyphname = m;
lastChange = "2018-03-05 10:57:33 +0000";
layers = (
{
anchors = (
{
name = bottom;
position = "{400, 0}";
},
{
name = top;
position = "{400, 500}";
}
);
layerId = "0B1DFD06-3317-40CA-B510-4969A0718C16";
paths = (
{
closed = 1;
nodes = (
"703 0 OFFCURVE",
"706 9 OFFCURVE",
"706 18 CURVE SMOOTH",
"707 102 OFFCURVE",
"705 183 OFFCURVE",
"706 252 CURVE SMOOTH",
"708 406 OFFCURVE",
"684 517 OFFCURVE",
"560 517 CURVE SMOOTH",
"467 517 OFFCURVE",
"416 447 OFFCURVE",
"413 311 CURVE",
"419 311 LINE",
"408 447 OFFCURVE",
"353 513 OFFCURVE",
"268 513 CURVE SMOOTH",
"209 513 OFFCURVE",
"140 476 OFFCURVE",
"123 311 CURVE",
"129 311 LINE",
"128 423 LINE SMOOTH",
"128 448 OFFCURVE",
"124 464 OFFCURVE",
"109 483 CURVE SMOOTH",
"101 493 OFFCURVE",
"91 504 OFFCURVE",
"85 504 CURVE SMOOTH",
"76 504 OFFCURVE",
"67 495 OFFCURVE",
"67 485 CURVE SMOOTH",
"67 481 OFFCURVE",
"71 479 OFFCURVE",
"74 476 CURVE SMOOTH",
"79 471 OFFCURVE",
"96 462 OFFCURVE",
"97 420 CURVE SMOOTH",
"99 287 OFFCURVE",
"101 157 OFFCURVE",
"101 20 CURVE SMOOTH",
"101 11 OFFCURVE",
"102 3 OFFCURVE",
"117 3 CURVE SMOOTH",
"125 3 OFFCURVE",
"132 8 OFFCURVE",
"132 19 CURVE SMOOTH",
"132 35 OFFCURVE",
"132 51 OFFCURVE",
"132 66 CURVE SMOOTH",
"132 157 OFFCURVE",
"131 230 OFFCURVE",
"143 297 CURVE SMOOTH",
"167 429 OFFCURVE",
"203 483 OFFCURVE",
"266 483 CURVE SMOOTH",
"354 483 OFFCURVE",
"399 380 OFFCURVE",
"400 267 CURVE SMOOTH",
"401 185 OFFCURVE",
"400 96 OFFCURVE",
"400 21 CURVE SMOOTH",
"400 9 OFFCURVE",
"400 2 OFFCURVE",
"415 2 CURVE SMOOTH",
"428 2 OFFCURVE",
"432 8 OFFCURVE",
"432 19 CURVE SMOOTH",
"432 99 OFFCURVE",
"432 183 OFFCURVE",
"433 267 CURVE SMOOTH",
"434 380 OFFCURVE",
"461 487 OFFCURVE",
"560 487 CURVE SMOOTH",
"658 487 OFFCURVE",
"676 403 OFFCURVE",
"676 252 CURVE SMOOTH",
"676 184 OFFCURVE",
"675 99 OFFCURVE",
"675 19 CURVE SMOOTH",
"675 9 OFFCURVE",
"676 0 OFFCURVE",
"690 0 CURVE SMOOTH"
);
}
);
width = 799;
},
{
anchors = (
{
name = bottom;
position = "{426, 0}";
},
{
name = top;
position = "{426, 500}";
}
);
layerId = "2F8C22CF-EC86-44F4-AF1A-A6C7F26A0C3C";
paths = (
{
closed = 1;
nodes = (
"716 0 OFFCURVE",
"742 21 OFFCURVE",
"742 53 CURVE SMOOTH",
"742 139 OFFCURVE",
"744 182 OFFCURVE",
"744 250 CURVE SMOOTH",
"744 397 OFFCURVE",
"695 503 OFFCURVE",
"561 503 CURVE SMOOTH",
"470 503 OFFCURVE",
"406 444 OFFCURVE",
"395 350 CURVE",
"439 350 LINE",
"427 424 OFFCURVE",
"406 500 OFFCURVE",
"301 500 CURVE SMOOTH",
"196 500 OFFCURVE",
"163 401 OFFCURVE",
"157 355 CURVE",
"187 355 LINE",
"186 374 LINE SMOOTH",
"184 419 OFFCURVE",
"171 445 OFFCURVE",
"160 462 CURVE SMOOTH",
"148 480 OFFCURVE",
"129 494 OFFCURVE",
"113 494 CURVE SMOOTH",
"83 494 OFFCURVE",
"50 472 OFFCURVE",
"50 435 CURVE SMOOTH",
"50 422 OFFCURVE",
"58 416 OFFCURVE",
"66 408 CURVE SMOOTH",
"79 395 OFFCURVE",
"82 384 OFFCURVE",
"82 353 CURVE SMOOTH",
"82 234 OFFCURVE",
"82 150 OFFCURVE",
"82 49 CURVE SMOOTH",
"82 17 OFFCURVE",
"114 2 OFFCURVE",
"147 1 CURVE SMOOTH",
"182 0 OFFCURVE",
"218 16 OFFCURVE",
"218 48 CURVE SMOOTH",
"218 62 OFFCURVE",
"218 84 OFFCURVE",
"218 123 CURVE SMOOTH",
"218 211 OFFCURVE",
"214 244 OFFCURVE",
"224 289 CURVE SMOOTH",
"240 361 OFFCURVE",
"269 393 OFFCURVE",
"293 393 CURVE SMOOTH",
"332 393 OFFCURVE",
"352 353 OFFCURVE",
"352 258 CURVE SMOOTH",
"352 182 OFFCURVE",
"351 148 OFFCURVE",
"351 58 CURVE SMOOTH",
"351 22 OFFCURVE",
"377 2 OFFCURVE",
"424 2 CURVE SMOOTH",
"463 2 OFFCURVE",
"491 16 OFFCURVE",
"491 57 CURVE SMOOTH",
"491 134 OFFCURVE",
"490 183 OFFCURVE",
"491 258 CURVE SMOOTH",
"492 356 OFFCURVE",
"520 398 OFFCURVE",
"547 398 CURVE SMOOTH",
"586 398 OFFCURVE",
"604 358 OFFCURVE",
"604 250 CURVE SMOOTH",
"604 183 OFFCURVE",
"604 146 OFFCURVE",
"604 57 CURVE SMOOTH",
"604 20 OFFCURVE",
"636 0 OFFCURVE",
"676 0 CURVE SMOOTH"
);
}
);
width = 794;
}
);
note = m;
unicode = 006D;
},
{
glyphname = n;
lastChange = "2018-02-28 11:35:00 +0000";
layers = (
{
anchors = (
{
name = bottom;
position = "{270, 0}";
},
{
name = top;
position = "{270, 500}";
}
);
layerId = "0B1DFD06-3317-40CA-B510-4969A0718C16";
paths = (
{
closed = 1;
nodes = (
"125 2 OFFCURVE",
"131 6 OFFCURVE",
"131 14 CURVE SMOOTH",
"131 88 OFFCURVE",
"130 141 OFFCURVE",
"130 183 CURVE SMOOTH",
"130 215 OFFCURVE",
"133 245 OFFCURVE",
"139 284 CURVE SMOOTH",
"161 425 OFFCURVE",
"216 477 OFFCURVE",
"291 477 CURVE SMOOTH",
"400 477 OFFCURVE",
"431 413 OFFCURVE",
"431 272 CURVE SMOOTH",
"431 20 LINE SMOOTH",
"431 12 OFFCURVE",
"434 3 OFFCURVE",
"447 3 CURVE SMOOTH",
"460 3 OFFCURVE",
"462 11 OFFCURVE",
"462 20 CURVE SMOOTH",
"462 271 LINE SMOOTH",
"462 441 OFFCURVE",
"409 507 OFFCURVE",
"293 507 CURVE SMOOTH",
"173 507 OFFCURVE",
"119 392 OFFCURVE",
"119 299 CURVE",
"125 299 LINE",
"125 412 LINE SMOOTH",
"125 436 OFFCURVE",
"104 474 OFFCURVE",
"95 488 CURVE SMOOTH",
"90 496 OFFCURVE",
"86 499 OFFCURVE",
"81 499 CURVE SMOOTH",
"72 499 OFFCURVE",
"62 492 OFFCURVE",
"62 484 CURVE SMOOTH",
"62 480 OFFCURVE",
"63 477 OFFCURVE",
"65 474 CURVE SMOOTH",
"78 454 OFFCURVE",
"93 423 OFFCURVE",
"93 409 CURVE SMOOTH",
"98 239 OFFCURVE",
"99 200 OFFCURVE",
"100 14 CURVE SMOOTH",
"100 6 OFFCURVE",
"107 2 OFFCURVE",
"115 2 CURVE SMOOTH"
);
}
);
width = 540;
},
{
anchors = (
{
name = bottom;
position = "{301, 0}";
},
{
name = top;
position = "{301, 500}";
}
);
layerId = "2F8C22CF-EC86-44F4-AF1A-A6C7F26A0C3C";
paths = (
{
closed = 1;
nodes = (
"204 -2 OFFCURVE",
"232 16 OFFCURVE",
"232 51 CURVE SMOOTH",
"232 107 OFFCURVE",
"231 149 OFFCURVE",
"231 180 CURVE SMOOTH",
"231 211 OFFCURVE",
"232 237 OFFCURVE",
"238 273 CURVE SMOOTH",
"254 378 OFFCURVE",
"278 400 OFFCURVE",
"313 400 CURVE SMOOTH",
"357 400 OFFCURVE",
"379 369 OFFCURVE",
"379 269 CURVE SMOOTH",
"379 51 LINE SMOOTH",
"379 17 OFFCURVE",
"411 -1 OFFCURVE",
"452 -1 CURVE SMOOTH",
"494 -1 OFFCURVE",
"524 17 OFFCURVE",
"524 51 CURVE SMOOTH",
"524 268 LINE SMOOTH",
"524 432 OFFCURVE",
"461 511 OFFCURVE",
"322 511 CURVE SMOOTH",
"212 511 OFFCURVE",
"173 398 OFFCURVE",
"173 360 CURVE",
"198 360 LINE",
"198 392 LINE SMOOTH",
"198 434 OFFCURVE",
"180 464 OFFCURVE",
"167 481 CURVE SMOOTH",
"150 503 OFFCURVE",
"137 511 OFFCURVE",
"122 511 CURVE SMOOTH",
"95 511 OFFCURVE",
"50 483 OFFCURVE",
"50 453 CURVE SMOOTH",
"50 446 OFFCURVE",
"52 438 OFFCURVE",
"56 431 CURVE SMOOTH",
"68 411 OFFCURVE",
"80 396 OFFCURVE",
"81 375 CURVE SMOOTH",
"87 274 OFFCURVE",
"87 191 OFFCURVE",
"87 51 CURVE SMOOTH",
"87 18 OFFCURVE",
"116 -2 OFFCURVE",
"159 -2 CURVE SMOOTH"
);
}
);
width = 574;
}
);
note = n;
unicode = 006E;
},
{
glyphname = o;
lastChange = "2018-03-05 10:58:00 +0000";
layers = (
{
anchors = (
{
name = bottom;
position = "{292, 0}";
},
{
name = center;
position = "{292, 250}";
},
{
name = ogonek;
position = "{317, 10}";
},
{
name = top;
position = "{292, 500}";
},
{
name = topright;
position = "{519, 338}";
}
);
layerId = "0B1DFD06-3317-40CA-B510-4969A0718C16";
paths = (
{
closed = 1;
nodes = (
"431 0 OFFCURVE",
"545 77 OFFCURVE",
"545 242 CURVE SMOOTH",
"545 433 OFFCURVE",
"424 515 OFFCURVE",
"294 515 CURVE SMOOTH",
"127 515 OFFCURVE",
"40 411 OFFCURVE",
"40 237 CURVE SMOOTH",
"40 56 OFFCURVE",
"180 0 OFFCURVE",
"287 0 CURVE SMOOTH"
);
},
{
closed = 1;
nodes = (
"195 31 OFFCURVE",
"71 87 OFFCURVE",
"71 237 CURVE SMOOTH",
"71 400 OFFCURVE",
"157 484 OFFCURVE",
"294 484 CURVE SMOOTH",
"402 484 OFFCURVE",
"514 413 OFFCURVE",
"514 242 CURVE SMOOTH",
"514 102 OFFCURVE",
"406 31 OFFCURVE",
"287 31 CURVE SMOOTH"
);
}
);
width = 583;
},
{
anchors = (
{
name = bottom;
position = "{304, 0}";
},
{
name = center;
position = "{303, 238}";
},
{
name = ogonek;
position = "{377, 18}";
},
{
name = top;
position = "{304, 500}";
},
{
name = topright;
position = "{530, 346}";
}
);
layerId = "2F8C22CF-EC86-44F4-AF1A-A6C7F26A0C3C";
paths = (
{
closed = 1;
nodes = (
"470 -3 OFFCURVE",
"577 85 OFFCURVE",
"577 243 CURVE SMOOTH",
"577 403 OFFCURVE",
"468 518 OFFCURVE",
"301 518 CURVE SMOOTH",
"133 518 OFFCURVE",
"30 407 OFFCURVE",
"30 250 CURVE SMOOTH",
"30 87 OFFCURVE",
"140 -3 OFFCURVE",
"304 -3 CURVE SMOOTH"
);
},
{
closed = 1;
nodes = (
"225 108 OFFCURVE",
"175 152 OFFCURVE",
"175 250 CURVE SMOOTH",
"175 344 OFFCURVE",
"225 407 OFFCURVE",
"304 407 CURVE SMOOTH",
"393 407 OFFCURVE",
"432 327 OFFCURVE",
"432 243 CURVE SMOOTH",
"432 154 OFFCURVE",
"384 108 OFFCURVE",
"304 108 CURVE SMOOTH"
);
}
);
width = 607;
}
);
note = o;
unicode = 006F;
},
{
glyphname = p;
lastChange = "2018-02-28 11:23:13 +0000";
layers = (
{
anchors = (
{
name = bottom;
position = "{79, -224}";
},
{
name = top;
position = "{305, 500}";
}
);
layerId = "0B1DFD06-3317-40CA-B510-4969A0718C16";
paths = (
{
closed = 1;
nodes = (
"92 -224 OFFCURVE",
"94 -218 OFFCURVE",
"95 -207 CURVE SMOOTH",
"101 -93 OFFCURVE",
"100 -42 OFFCURVE",
"105 70 CURVE",
"124 49 OFFCURVE",
"213 2 OFFCURVE",
"295 2 CURVE SMOOTH",
"455 2 OFFCURVE",
"555 89 OFFCURVE",
"555 257 CURVE SMOOTH",
"555 445 OFFCURVE",
"438 513 OFFCURVE",
"304 513 CURVE SMOOTH",
"183 513 OFFCURVE",
"100 418 OFFCURVE",
"101 395 CURVE",
"105 395 LINE",
"106 421 OFFCURVE",
"75 474 OFFCURVE",
"64 485 CURVE SMOOTH",
"60 489 OFFCURVE",
"58 491 OFFCURVE",
"54 492 CURVE SMOOTH",
"45 494 OFFCURVE",
"33 485 OFFCURVE",
"33 477 CURVE SMOOTH",
"33 472 OFFCURVE",
"35 470 OFFCURVE",
"38 466 CURVE SMOOTH",
"58 439 OFFCURVE",
"75 417 OFFCURVE",
"75 359 CURVE SMOOTH",
"75 187 OFFCURVE",
"73 118 OFFCURVE",
"72 33 CURVE SMOOTH",
"71 -35 OFFCURVE",
"68 -93 OFFCURVE",
"64 -206 CURVE SMOOTH",
"64 -217 OFFCURVE",
"68 -224 OFFCURVE",
"79 -224 CURVE SMOOTH"
);
},
{
closed = 1;
nodes = (
"227 33 OFFCURVE",
"129 75 OFFCURVE",
"105 117 CURVE",
"106 201 OFFCURVE",
"106 251 OFFCURVE",
"106 349 CURVE",
"106 378 OFFCURVE",
"187 482 OFFCURVE",
"311 482 CURVE SMOOTH",
"411 482 OFFCURVE",
"524 431 OFFCURVE",
"524 258 CURVE SMOOTH",
"524 110 OFFCURVE",
"438 33 OFFCURVE",
"301 33 CURVE SMOOTH"
);
}
);
width = 609;
},
{
anchors = (
{
name = bottom;
position = "{125, -210}";
},
{
name = top;
position = "{322, 500}";
}
);
layerId = "2F8C22CF-EC86-44F4-AF1A-A6C7F26A0C3C";
paths = (
{
closed = 1;
nodes = (
"167 -224 OFFCURVE",
"198 -202 OFFCURVE",
"200 -170 CURVE SMOOTH",
"202 -135 OFFCURVE",
"203 -36 OFFCURVE",
"203 21 CURVE",
"220 13 OFFCURVE",
"275 -5 OFFCURVE",
"342 -5 CURVE SMOOTH",
"487 -5 OFFCURVE",
"590 93 OFFCURVE",
"590 254 CURVE SMOOTH",
"590 410 OFFCURVE",
"494 513 OFFCURVE",
"334 513 CURVE SMOOTH",
"215 513 OFFCURVE",
"152 431 OFFCURVE",
"152 389 CURVE",
"192 389 LINE",
"189 431 OFFCURVE",
"156 476 OFFCURVE",
"136 492 CURVE SMOOTH",
"131 496 OFFCURVE",
"123 502 OFFCURVE",
"110 502 CURVE SMOOTH",
"73 502 OFFCURVE",
"30 466 OFFCURVE",
"30 434 CURVE SMOOTH",
"30 423 OFFCURVE",
"38 412 OFFCURVE",
"47 403 CURVE SMOOTH",
"59 391 OFFCURVE",
"65 372 OFFCURVE",
"65 340 CURVE SMOOTH",
"65 195 OFFCURVE",
"63 136 OFFCURVE",
"62 65 CURVE SMOOTH",
"61 7 OFFCURVE",
"64 -72 OFFCURVE",
"56 -164 CURVE SMOOTH",
"53 -200 OFFCURVE",
"84 -224 OFFCURVE",
"125 -224 CURVE SMOOTH"
);
},
{
closed = 1;
nodes = (
"275 106 OFFCURVE",
"215 126 OFFCURVE",
"209 135 CURVE",
"210 206 OFFCURVE",
"210 229 OFFCURVE",
"211 312 CURVE",
"211 345 OFFCURVE",
"253 399 OFFCURVE",
"334 399 CURVE SMOOTH",
"406 399 OFFCURVE",
"445 345 OFFCURVE",
"445 255 CURVE SMOOTH",
"445 159 OFFCURVE",
"400 106 OFFCURVE",
"316 106 CURVE SMOOTH"
);
}
);
width = 630;
}
);
note = p;
unicode = 0070;
},
{
glyphname = q;
lastChange = "2018-02-28 11:23:19 +0000";
layers = (
{
anchors = (
{
name = bottom;
position = "{494, -237}";
},
{
name = top;
position = "{320, 500}";
}
);
layerId = "0B1DFD06-3317-40CA-B510-4969A0718C16";
paths = (
{
closed = 1;
nodes = (
"502 -237 OFFCURVE",
"509 -233 OFFCURVE",
"509 -223 CURVE SMOOTH",
"509 -164 OFFCURVE",
"511 -120 OFFCURVE",
"513 -45 CURVE SMOOTH",
"517 88 OFFCURVE",
"517 173 OFFCURVE",
"523 368 CURVE",
"539 403 OFFCURVE",
"555 430 OFFCURVE",
"570 455 CURVE SMOOTH",
"573 460 OFFCURVE",
"574 464 OFFCURVE",
"573 467 CURVE SMOOTH",
"571 474 OFFCURVE",
"562 479 OFFCURVE",
"554 479 CURVE SMOOTH",
"549 479 OFFCURVE",
"546 476 OFFCURVE",
"543 471 CURVE SMOOTH",
"533 454 OFFCURVE",
"513 425 OFFCURVE",
"493 389 CURVE",
"507 389 LINE",
"467 463 OFFCURVE",
"371 512 OFFCURVE",
"283 512 CURVE SMOOTH",
"198 512 OFFCURVE",
"40 462 OFFCURVE",
"40 257 CURVE SMOOTH",
"40 80 OFFCURVE",
"157 1 OFFCURVE",
"285 1 CURVE SMOOTH",
"368 1 OFFCURVE",
"450 35 OFFCURVE",
"485 82 CURVE",
"481 -48 OFFCURVE",
"480 -97 OFFCURVE",
"477 -224 CURVE SMOOTH",
"477 -232 OFFCURVE",
"485 -237 OFFCURVE",
"493 -237 CURVE SMOOTH"
);
},
{
closed = 1;
nodes = (
"176 33 OFFCURVE",
"71 101 OFFCURVE",
"71 256 CURVE SMOOTH",
"71 419 OFFCURVE",
"190 480 OFFCURVE",
"280 480 CURVE SMOOTH",
"371 480 OFFCURVE",
"490 412 OFFCURVE",
"490 332 CURVE",
"489 275 OFFCURVE",
"488 218 OFFCURVE",
"486 131 CURVE",
"443 72 OFFCURVE",
"363 33 OFFCURVE",
"286 33 CURVE SMOOTH"
);
}
);
width = 639;
},
{
anchors = (
{
name = bottom;
position = "{485, -222}";
},
{
name = top;
position = "{306, 500}";
}
);
layerId = "2F8C22CF-EC86-44F4-AF1A-A6C7F26A0C3C";
paths = (
{
closed = 1;
nodes = (
"525 -237 OFFCURVE",
"556 -215 OFFCURVE",
"556 -183 CURVE SMOOTH",
"556 -133 OFFCURVE",
"557 -66 OFFCURVE",
"559 -3 CURVE SMOOTH",
"563 110 OFFCURVE",
"558 182 OFFCURVE",
"563 347 CURVE",
"578 374 OFFCURVE",
"587 386 OFFCURVE",
"596 400 CURVE SMOOTH",
"609 420 OFFCURVE",
"611 430 OFFCURVE",
"608 446 CURVE SMOOTH",
"603 472 OFFCURVE",
"569 498 OFFCURVE",
"534 495 CURVE SMOOTH",
"510 493 OFFCURVE",
"498 472 OFFCURVE",
"488 457 CURVE SMOOTH",
"475 438 OFFCURVE",
"460 407 OFFCURVE",
"458 389 CURVE",
"485 389 LINE",
"485 439 OFFCURVE",
"420 512 OFFCURVE",
"306 512 CURVE SMOOTH",
"150 512 OFFCURVE",
"40 406 OFFCURVE",
"40 254 CURVE SMOOTH",
"40 98 OFFCURVE",
"148 -6 OFFCURVE",
"307 -6 CURVE SMOOTH",
"355 -6 OFFCURVE",
"387 6 OFFCURVE",
"414 25 CURVE",
"413 -54 OFFCURVE",
"413 -140 OFFCURVE",
"413 -186 CURVE SMOOTH",
"413 -215 OFFCURVE",
"438 -237 OFFCURVE",
"485 -237 CURVE SMOOTH"
);
},
{
closed = 1;
nodes = (
"232 106 OFFCURVE",
"185 161 OFFCURVE",
"185 253 CURVE SMOOTH",
"185 342 OFFCURVE",
"234 400 OFFCURVE",
"303 400 CURVE SMOOTH",
"368 400 OFFCURVE",
"422 354 OFFCURVE",
"422 299 CURVE",
"421 250 OFFCURVE",
"420 221 OFFCURVE",
"418 148 CURVE",
"405 131 OFFCURVE",
"368 106 OFFCURVE",
"308 106 CURVE SMOOTH"
);
}
);
width = 645;
}
);
note = q;
unicode = 0071;
},
{
glyphname = r;
lastChange = "2018-02-28 11:36:00 +0000";
layers = (
{
anchors = (
{
name = bottom;
position = "{109, 0}";
},
{
name = top;
position = "{269, 500}";
}
);
layerId = "0B1DFD06-3317-40CA-B510-4969A0718C16";
paths = (
{
closed = 1;
nodes = (
"120 -7 OFFCURVE",
"125 0 OFFCURVE",
"125 14 CURVE SMOOTH",
"125 74 OFFCURVE",
"124 153 OFFCURVE",
"129 228 CURVE SMOOTH",
"141 392 OFFCURVE",
"183 479 OFFCURVE",
"281 479 CURVE SMOOTH",
"366 479 OFFCURVE",
"383 421 OFFCURVE",
"383 374 CURVE SMOOTH",
"383 317 OFFCURVE",
"339 304 OFFCURVE",
"314 304 CURVE SMOOTH",
"303 304 OFFCURVE",
"298 297 OFFCURVE",
"298 288 CURVE SMOOTH",
"298 278 OFFCURVE",
"303 273 OFFCURVE",
"315 273 CURVE SMOOTH",
"381 273 OFFCURVE",
"414 319 OFFCURVE",
"414 374 CURVE SMOOTH",
"414 439 OFFCURVE",
"384 510 OFFCURVE",
"281 510 CURVE SMOOTH",
"196 510 OFFCURVE",
"114 450 OFFCURVE",
"114 275 CURVE",
"119 275 LINE",
"116 348 OFFCURVE",
"115 408 OFFCURVE",
"107 507 CURVE SMOOTH",
"106 517 OFFCURVE",
"102 524 OFFCURVE",
"92 524 CURVE SMOOTH",
"83 524 OFFCURVE",
"75 520 OFFCURVE",
"75 507 CURVE SMOOTH",
"75 495 OFFCURVE",
"92 308 OFFCURVE",
"92 226 CURVE SMOOTH",
"92 177 OFFCURVE",
"94 74 OFFCURVE",
"94 13 CURVE SMOOTH",
"94 -1 OFFCURVE",
"98 -7 OFFCURVE",
"109 -7 CURVE SMOOTH"
);
}
);
width = 489;
},
{
anchors = (
{
name = bottom;
position = "{149, 0}";
},
{
name = top;
position = "{271, 500}";
}
);
layerId = "2F8C22CF-EC86-44F4-AF1A-A6C7F26A0C3C";
paths = (
{
closed = 1;
nodes = (
"188 -9 OFFCURVE",
"221 10 OFFCURVE",
"221 49 CURVE SMOOTH",
"221 96 OFFCURVE",
"224 163 OFFCURVE",
"228 240 CURVE SMOOTH",
"232 319 OFFCURVE",
"256 410 OFFCURVE",
"333 410 CURVE SMOOTH",
"355 410 OFFCURVE",
"367 397 OFFCURVE",
"367 373 CURVE SMOOTH",
"367 348 OFFCURVE",
"354 324 OFFCURVE",
"317 322 CURVE SMOOTH",
"294 321 OFFCURVE",
"267 313 OFFCURVE",
"268 278 CURVE SMOOTH",
"269 248 OFFCURVE",
"285 233 OFFCURVE",
"321 233 CURVE SMOOTH",
"424 233 OFFCURVE",
"485 279 OFFCURVE",
"485 368 CURVE SMOOTH",
"485 461 OFFCURVE",
"417 519 OFFCURVE",
"338 519 CURVE SMOOTH",
"220 519 OFFCURVE",
"171 397 OFFCURVE",
"171 315 CURVE",
"195 315 LINE",
"193 373 OFFCURVE",
"192 418 OFFCURVE",
"188 481 CURVE SMOOTH",
"186 509 OFFCURVE",
"171 531 OFFCURVE",
"125 531 CURVE SMOOTH",
"85 531 OFFCURVE",
"57 507 OFFCURVE",
"60 474 CURVE SMOOTH",
"70 360 OFFCURVE",
"77 312 OFFCURVE",
"77 236 CURVE SMOOTH",
"77 156 OFFCURVE",
"76 96 OFFCURVE",
"77 48 CURVE SMOOTH",
"78 8 OFFCURVE",
"108 -9 OFFCURVE",
"147 -9 CURVE SMOOTH"
);
}
);
width = 521;
}
);
note = r;
unicode = 0072;
},
{
glyphname = s;
lastChange = "2018-02-28 11:36:14 +0000";
layers = (
{
anchors = (
{
name = bottom;
position = "{237, 0}";
},
{
name = top;
position = "{237, 500}";
}
);
layerId = "0B1DFD06-3317-40CA-B510-4969A0718C16";
paths = (
{
closed = 1;
nodes = (
"339 -2 OFFCURVE",
"397 60 OFFCURVE",
"397 128 CURVE SMOOTH",
"397 284 OFFCURVE",
"97 245 OFFCURVE",
"97 379 CURVE SMOOTH",
"97 410 OFFCURVE",
"112 486 OFFCURVE",
"225 486 CURVE SMOOTH",
"289 486 OFFCURVE",
"358 446 OFFCURVE",
"358 370 CURVE SMOOTH",
"358 357 OFFCURVE",
"362 351 OFFCURVE",
"374 351 CURVE SMOOTH",
"385 351 OFFCURVE",
"390 356 OFFCURVE",
"390 369 CURVE SMOOTH",
"390 461 OFFCURVE",
"319 517 OFFCURVE",
"220 517 CURVE SMOOTH",
"112 517 OFFCURVE",
"65 444 OFFCURVE",
"65 375 CURVE SMOOTH",
"65 217 OFFCURVE",
"366 258 OFFCURVE",
"366 125 CURVE SMOOTH",
"366 75 OFFCURVE",
"316 29 OFFCURVE",
"241 29 CURVE SMOOTH",
"171 29 OFFCURVE",
"124 66 OFFCURVE",
"90 126 CURVE SMOOTH",
"81 142 OFFCURVE",
"77 149 OFFCURVE",
"71 150 CURVE SMOOTH",
"59 152 OFFCURVE",
"49 142 OFFCURVE",
"49 134 CURVE SMOOTH",
"49 129 OFFCURVE",
"51 125 OFFCURVE",
"56 117 CURVE SMOOTH",
"93 58 OFFCURVE",
"139 -2 OFFCURVE",
"238 -2 CURVE SMOOTH"
);
}
);
width = 474;
},
{
anchors = (
{
name = bottom;
position = "{256, 0}";
},
{
name = top;
position = "{255, 500}";
}
);
layerId = "2F8C22CF-EC86-44F4-AF1A-A6C7F26A0C3C";
paths = (
{
closed = 1;
nodes = (
"337 -9 OFFCURVE",
"459 36 OFFCURVE",
"459 148 CURVE SMOOTH",
"459 341 OFFCURVE",
"203 286 OFFCURVE",
"203 373 CURVE SMOOTH",
"203 394 OFFCURVE",
"224 410 OFFCURVE",
"261 410 CURVE SMOOTH",
"300 410 OFFCURVE",
"327 392 OFFCURVE",
"327 355 CURVE SMOOTH",
"327 329 OFFCURVE",
"351 317 OFFCURVE",
"384 317 CURVE SMOOTH",
"430 317 OFFCURVE",
"449 337 OFFCURVE",
"449 368 CURVE SMOOTH",
"449 451 OFFCURVE",
"367 526 OFFCURVE",
"249 526 CURVE SMOOTH",
"140 526 OFFCURVE",
"59 469 OFFCURVE",
"59 370 CURVE SMOOTH",
"59 191 OFFCURVE",
"314 221 OFFCURVE",
"314 148 CURVE SMOOTH",
"314 117 OFFCURVE",
"283 106 OFFCURVE",
"250 106 CURVE SMOOTH",
"210 106 OFFCURVE",
"185 137 OFFCURVE",
"159 168 CURVE SMOOTH",
"149 180 OFFCURVE",
"143 190 OFFCURVE",
"121 194 CURVE SMOOTH",
"94 199 OFFCURVE",
"50 173 OFFCURVE",
"45 139 CURVE SMOOTH",
"44 132 OFFCURVE",
"47 118 OFFCURVE",
"51 110 CURVE SMOOTH",
"89 34 OFFCURVE",
"152 -9 OFFCURVE",
"254 -9 CURVE SMOOTH"
);
}
);
width = 504;
}
);
note = s;
unicode = 0073;
},
{
glyphname = t;
lastChange = "2018-03-05 14:16:57 +0000";
layers = (
{
anchors = (
{
name = bottom;
position = "{268, -1}";
},
{
name = center;
position = "{166, 250}";
},
{
name = top;
position = "{197, 700}";
},
{
name = topright;
position = "{268, 424}";
}
);
layerId = "0B1DFD06-3317-40CA-B510-4969A0718C16";
paths = (
{
closed = 1;
nodes = (
"334 13 OFFCURVE",
"373 69 OFFCURVE",
"373 126 CURVE SMOOTH",
"373 145 OFFCURVE",
"368 151 OFFCURVE",
"357 151 CURVE SMOOTH",
"344 151 OFFCURVE",
"342 143 OFFCURVE",
"342 130 CURVE SMOOTH",
"342 72 OFFCURVE",
"302 44 OFFCURVE",
"273 44 CURVE SMOOTH",
"194 44 OFFCURVE",
"175 147 OFFCURVE",
"175 290 CURVE SMOOTH",
"175 368 OFFCURVE",
"198 627 OFFCURVE",
"211 713 CURVE SMOOTH",
"213 726 OFFCURVE",
"204 730 OFFCURVE",
"196 730 CURVE SMOOTH",
"187 730 OFFCURVE",
"183 726 OFFCURVE",
"180 713 CURVE SMOOTH",
"162 633 OFFCURVE",
"144 394 OFFCURVE",
"144 290 CURVE SMOOTH",
"144 131 OFFCURVE",
"171 13 OFFCURVE",
"268 13 CURVE SMOOTH"
);
},
{
closed = 1;
nodes = (
"296 410 OFFCURVE",
"302 414 OFFCURVE",
"302 424 CURVE SMOOTH",
"302 435 OFFCURVE",
"295 440 OFFCURVE",
"285 440 CURVE SMOOTH",
"224 440 OFFCURVE",
"134 440 OFFCURVE",
"66 450 CURVE SMOOTH",
"59 451 OFFCURVE",
"51 447 OFFCURVE",
"51 435 CURVE SMOOTH",
"51 426 OFFCURVE",
"57 420 OFFCURVE",
"63 419 CURVE SMOOTH",
"134 407 OFFCURVE",
"222 408 OFFCURVE",
"285 410 CURVE SMOOTH"
);
}
);
width = 437;
},
{
anchors = (
{
name = bottom;
position = "{258, 0}";
},
{
name = center;
position = "{225, 245}";
},
{
name = top;
position = "{200, 700}";
},
{
name = topright;
position = "{304, 405}";
}
);
layerId = "2F8C22CF-EC86-44F4-AF1A-A6C7F26A0C3C";
paths = (
{
closed = 1;
nodes = (
"350 -2 OFFCURVE",
"414 54 OFFCURVE",
"414 144 CURVE SMOOTH",
"414 182 OFFCURVE",
"395 199 OFFCURVE",
"351 199 CURVE SMOOTH",
"315 199 OFFCURVE",
"296 185 OFFCURVE",
"296 152 CURVE SMOOTH",
"296 123 OFFCURVE",
"293 111 OFFCURVE",
"274 111 CURVE SMOOTH",
"242 111 OFFCURVE",
"232 193 OFFCURVE",
"232 292 CURVE SMOOTH",
"232 426 OFFCURVE",
"253 592 OFFCURVE",
"265 667 CURVE SMOOTH",
"270 698 OFFCURVE",
"253 730 OFFCURVE",
"201 730 CURVE SMOOTH",
"162 730 OFFCURVE",
"140 713 OFFCURVE",
"134 681 CURVE SMOOTH",
"119 606 OFFCURVE",
"102 432 OFFCURVE",
"102 292 CURVE SMOOTH",
"102 87 OFFCURVE",
"151 -2 OFFCURVE",
"266 -2 CURVE SMOOTH"
);
},
{
closed = 1;
nodes = (
"337 354 OFFCURVE",
"354 372 OFFCURVE",
"354 405 CURVE SMOOTH",
"354 436 OFFCURVE",
"344 460 OFFCURVE",
"300 461 CURVE SMOOTH",
"219 462 OFFCURVE",
"163 466 OFFCURVE",
"86 470 CURVE SMOOTH",
"34 473 OFFCURVE",
"20 449 OFFCURVE",
"20 415 CURVE SMOOTH",
"20 383 OFFCURVE",
"34 361 OFFCURVE",
"77 360 CURVE SMOOTH",
"151 358 OFFCURVE",
"230 353 OFFCURVE",
"291 356 CURVE"
);
}
);
width = 444;
}
);
note = t;
unicode = 0074;
},
{
glyphname = u;
lastChange = "2018-03-05 11:01:19 +0000";
layers = (
{
anchors = (
{
name = bottom;
position = "{255, 0}";
},
{
name = ogonek;
position = "{443, 23}";
},
{
name = top;
position = "{255, 500}";
},
{
name = topright;
position = "{428, 332}";
}
);
layerId = "0B1DFD06-3317-40CA-B510-4969A0718C16";
paths = (
{
closed = 1;
nodes = (
"313 2 OFFCURVE",
"383 46 OFFCURVE",
"413 187 CURVE",
"405 187 LINE",
"407 91 LINE SMOOTH",
"408 41 OFFCURVE",
"434 9 OFFCURVE",
"443 9 CURVE SMOOTH",
"457 9 OFFCURVE",
"462 18 OFFCURVE",
"462 25 CURVE SMOOTH",
"462 39 OFFCURVE",
"440 48 OFFCURVE",
"439 96 CURVE SMOOTH",
"434 490 LINE SMOOTH",
"434 502 OFFCURVE",
"428 507 OFFCURVE",
"417 507 CURVE SMOOTH",
"408 507 OFFCURVE",
"403 502 OFFCURVE",
"403 490 CURVE SMOOTH",
"403 429 OFFCURVE",
"403 400 OFFCURVE",
"403 336 CURVE SMOOTH",
"403 185 OFFCURVE",
"365 33 OFFCURVE",
"229 33 CURVE SMOOTH",
"138 33 OFFCURVE",
"101 99 OFFCURVE",
"101 235 CURVE SMOOTH",
"101 487 LINE SMOOTH",
"101 496 OFFCURVE",
"95 501 OFFCURVE",
"84 501 CURVE SMOOTH",
"76 501 OFFCURVE",
"70 496 OFFCURVE",
"70 487 CURVE SMOOTH",
"70 237 LINE SMOOTH",
"70 80 OFFCURVE",
"118 2 OFFCURVE",
"229 2 CURVE SMOOTH"
);
}
);
width = 530;
},
{
anchors = (
{
name = bottom;
position = "{271, 0}";
},
{
name = ogonek;
position = "{464, 38}";
},
{
name = top;
position = "{271, 500}";
},
{
name = topright;
position = "{461, 326}";
}
);
layerId = "2F8C22CF-EC86-44F4-AF1A-A6C7F26A0C3C";
paths = (
{
closed = 1;
nodes = (
"366 -2 OFFCURVE",
"414 85 OFFCURVE",
"421 168 CURVE",
"374 168 LINE",
"376 139 LINE SMOOTH",
"379 102 OFFCURVE",
"400 6 OFFCURVE",
"451 4 CURVE SMOOTH",
"482 3 OFFCURVE",
"513 31 OFFCURVE",
"513 61 CURVE SMOOTH",
"513 79 OFFCURVE",
"489 102 OFFCURVE",
"489 132 CURVE SMOOTH",
"486 452 LINE SMOOTH",
"486 488 OFFCURVE",
"455 511 OFFCURVE",
"413 511 CURVE SMOOTH",
"370 511 OFFCURVE",
"341 489 OFFCURVE",
"341 452 CURVE SMOOTH",
"341 393 OFFCURVE",
"341 321 OFFCURVE",
"341 267 CURVE SMOOTH",
"341 143 OFFCURVE",
"314 109 OFFCURVE",
"262 109 CURVE SMOOTH",
"217 109 OFFCURVE",
"204 146 OFFCURVE",
"204 238 CURVE SMOOTH",
"204 454 LINE SMOOTH",
"204 485 OFFCURVE",
"170 506 OFFCURVE",
"131 506 CURVE SMOOTH",
"91 506 OFFCURVE",
"60 485 OFFCURVE",
"60 454 CURVE SMOOTH",
"60 240 LINE SMOOTH",
"60 76 OFFCURVE",
"119 -2 OFFCURVE",
"253 -2 CURVE SMOOTH"
);
}
);
width = 573;
}
);
note = u;
unicode = 0075;
},
{
glyphname = v;
lastChange = "2018-02-28 11:36:38 +0000";
layers = (
{
anchors = (
{
name = bottom;
position = "{253, 0}";
},
{
name = top;
position = "{253, 500}";
}
);
layerId = "0B1DFD06-3317-40CA-B510-4969A0718C16";
paths = (
{
closed = 1;
nodes = (
"298 10 OFFCURVE",
"355 119 OFFCURVE",
"399 235 CURVE SMOOTH",
"437 335 OFFCURVE",
"465 438 OFFCURVE",
"465 481 CURVE SMOOTH",
"465 495 OFFCURVE",
"462 505 OFFCURVE",
"450 505 CURVE SMOOTH",
"440 505 OFFCURVE",
"436 499 OFFCURVE",
"435 486 CURVE SMOOTH",
"430 439 OFFCURVE",
"418 366 OFFCURVE",
"369 245 CURVE SMOOTH",
"320 124 OFFCURVE",
"275 41 OFFCURVE",
"256 41 CURVE SMOOTH",
"239 41 OFFCURVE",
"189 132 OFFCURVE",
"149 246 CURVE SMOOTH",
"106 370 OFFCURVE",
"96 432 OFFCURVE",
"89 482 CURVE SMOOTH",
"87 494 OFFCURVE",
"85 500 OFFCURVE",
"75 500 CURVE SMOOTH",
"65 500 OFFCURVE",
"59 495 OFFCURVE",
"59 477 CURVE SMOOTH",
"59 438 OFFCURVE",
"85 330 OFFCURVE",
"121 230 CURVE SMOOTH",
"161 119 OFFCURVE",
"216 10 OFFCURVE",
"257 10 CURVE SMOOTH"
);
}
);
width = 505;
},
{
anchors = (
{
name = bottom;
position = "{261, 0}";
},
{
name = top;
position = "{264, 500}";
}
);
layerId = "2F8C22CF-EC86-44F4-AF1A-A6C7F26A0C3C";
paths = (
{
closed = 1;
nodes = (
"337 0 OFFCURVE",
"387 72 OFFCURVE",
"443 218 CURVE SMOOTH",
"479 312 OFFCURVE",
"502 407 OFFCURVE",
"502 447 CURVE SMOOTH",
"502 486 OFFCURVE",
"473 510 OFFCURVE",
"430 510 CURVE SMOOTH",
"391 510 OFFCURVE",
"360 487 OFFCURVE",
"357 455 CURVE SMOOTH",
"352 401 OFFCURVE",
"337 340 OFFCURVE",
"322 278 CURVE SMOOTH",
"310 228 OFFCURVE",
"277 150 OFFCURVE",
"267 150 CURVE SMOOTH",
"258 150 OFFCURVE",
"233 225 OFFCURVE",
"220 275 CURVE SMOOTH",
"203 342 OFFCURVE",
"189 408 OFFCURVE",
"184 452 CURVE SMOOTH",
"180 484 OFFCURVE",
"151 505 OFFCURVE",
"113 505 CURVE SMOOTH",
"70 505 OFFCURVE",
"40 482 OFFCURVE",
"40 444 CURVE SMOOTH",
"40 405 OFFCURVE",
"65 302 OFFCURVE",
"96 215 CURVE SMOOTH",
"147 72 OFFCURVE",
"197 0 OFFCURVE",
"267 0 CURVE SMOOTH"
);
}
);
width = 542;
}
);
note = v;
unicode = 0076;
},
{
glyphname = w;
lastChange = "2018-03-05 11:01:57 +0000";
layers = (
{
anchors = (
{
name = bottom;
position = "{390, 0}";
},
{
name = top;
position = "{390, 500}";
}
);
layerId = "0B1DFD06-3317-40CA-B510-4969A0718C16";
paths = (
{
closed = 1;
nodes = (
"299 3 OFFCURVE",
"369 174 OFFCURVE",
"394 353 CURVE",
"430 174 OFFCURVE",
"515 3 OFFCURVE",
"564 3 CURVE SMOOTH",
"604 3 OFFCURVE",
"632 82 OFFCURVE",
"660 177 CURVE SMOOTH",
"687 269 OFFCURVE",
"709 408 OFFCURVE",
"709 493 CURVE SMOOTH",
"709 507 OFFCURVE",
"705 512 OFFCURVE",
"693 512 CURVE SMOOTH",
"683 512 OFFCURVE",
"678 507 OFFCURVE",
"678 493 CURVE SMOOTH",
"675 394 OFFCURVE",
"667 326 OFFCURVE",
"632 196 CURVE SMOOTH",
"610 114 OFFCURVE",
"583 41 OFFCURVE",
"562 41 CURVE SMOOTH",
"534 41 OFFCURVE",
"447 227 OFFCURVE",
"413 396 CURVE SMOOTH",
"411 406 OFFCURVE",
"406 415 OFFCURVE",
"392 416 CURVE SMOOTH",
"381 417 OFFCURVE",
"374 407 OFFCURVE",
"372 396 CURVE SMOOTH",
"348 229 OFFCURVE",
"271 35 OFFCURVE",
"247 35 CURVE SMOOTH",
"223 35 OFFCURVE",
"188 117 OFFCURVE",
"166 189 CURVE SMOOTH",
"124 327 OFFCURVE",
"119 398 OFFCURVE",
"114 497 CURVE SMOOTH",
"113 511 OFFCURVE",
"107 513 OFFCURVE",
"98 513 CURVE SMOOTH",
"89 513 OFFCURVE",
"83 507 OFFCURVE",
"83 498 CURVE SMOOTH",
"83 394 OFFCURVE",
"109 266 OFFCURVE",
"141 169 CURVE SMOOTH",
"173 73 OFFCURVE",
"207 3 OFFCURVE",
"247 3 CURVE SMOOTH"
);
}
);
width = 780;
},
{
anchors = (
{
name = bottom;
position = "{388, 0}";
},
{
name = top;
position = "{388, 500}";
}
);
layerId = "2F8C22CF-EC86-44F4-AF1A-A6C7F26A0C3C";
paths = (
{
closed = 1;
nodes = (
"326 0 OFFCURVE",
"362 100 OFFCURVE",
"384 263 CURVE",
"413 100 OFFCURVE",
"461 0 OFFCURVE",
"530 0 CURVE SMOOTH",
"596 0 OFFCURVE",
"640 54 OFFCURVE",
"670 175 CURVE SMOOTH",
"694 271 OFFCURVE",
"710 387 OFFCURVE",
"710 440 CURVE SMOOTH",
"710 500 OFFCURVE",
"687 523 OFFCURVE",
"639 523 CURVE SMOOTH",
"593 523 OFFCURVE",
"568 502 OFFCURVE",
"567 468 CURVE SMOOTH",
"566 419 OFFCURVE",
"557 339 OFFCURVE",
"548 272 CURVE SMOOTH",
"539 208 OFFCURVE",
"535 166 OFFCURVE",
"527 166 CURVE SMOOTH",
"519 166 OFFCURVE",
"481 285 OFFCURVE",
"457 368 CURVE SMOOTH",
"442 419 OFFCURVE",
"417 440 OFFCURVE",
"384 440 CURVE SMOOTH",
"348 440 OFFCURVE",
"324 419 OFFCURVE",
"311 369 CURVE SMOOTH",
"289 285 OFFCURVE",
"262 166 OFFCURVE",
"256 166 CURVE SMOOTH",
"248 166 OFFCURVE",
"240 207 OFFCURVE",
"230 263 CURVE SMOOTH",
"218 329 OFFCURVE",
"206 412 OFFCURVE",
"201 470 CURVE SMOOTH",
"198 506 OFFCURVE",
"174 523 OFFCURVE",
"127 523 CURVE SMOOTH",
"93 523 OFFCURVE",
"60 514 OFFCURVE",
"60 447 CURVE SMOOTH",
"60 397 OFFCURVE",
"79 276 OFFCURVE",
"110 169 CURVE SMOOTH",
"142 58 OFFCURVE",
"197 0 OFFCURVE",
"255 0 CURVE SMOOTH"
);
}
);
width = 770;
}
);
note = w;
unicode = 0077;
},
{
glyphname = x;
lastChange = "2018-02-28 11:32:43 +0000";
layers = (
{
anchors = (
{
name = bottom;
position = "{249, -15}";
},
{
name = top;
position = "{249, 515}";
}
);
layerId = "0B1DFD06-3317-40CA-B510-4969A0718C16";
paths = (
{
closed = 1;
nodes = (
"441 6 OFFCURVE",
"445 6 CURVE SMOOTH",
"454 6 OFFCURVE",
"462 13 OFFCURVE",
"462 22 CURVE SMOOTH",
"462 25 OFFCURVE",
"461 29 OFFCURVE",
"458 32 CURVE SMOOTH",
"319 213 OFFCURVE",
"193 365 OFFCURVE",
"92 499 CURVE SMOOTH",
"90 502 OFFCURVE",
"87 503 OFFCURVE",
"84 503 CURVE SMOOTH",
"76 503 OFFCURVE",
"66 494 OFFCURVE",
"66 486 CURVE SMOOTH",
"66 484 OFFCURVE",
"67 482 OFFCURVE",
"68 480 CURVE SMOOTH",
"169 346 OFFCURVE",
"298 190 OFFCURVE",
"433 13 CURVE SMOOTH",
"436 8 OFFCURVE"
);
},
{
closed = 1;
nodes = (
"59 2 OFFCURVE",
"69 2 CURVE SMOOTH",
"73 2 OFFCURVE",
"76 3 OFFCURVE",
"79 7 CURVE SMOOTH",
"205 183 OFFCURVE",
"290 303 OFFCURVE",
"414 482 CURVE SMOOTH",
"421 491 OFFCURVE",
"410 505 OFFCURVE",
"399 505 CURVE SMOOTH",
"395 505 OFFCURVE",
"391 503 OFFCURVE",
"388 498 CURVE SMOOTH",
"277 327 OFFCURVE",
"174 206 OFFCURVE",
"54 26 CURVE SMOOTH",
"47 15 OFFCURVE"
);
}
);
width = 498;
},
{
anchors = (
{
name = bottom;
position = "{255, 0}";
},
{
name = top;
position = "{255, 500}";
}
);
layerId = "2F8C22CF-EC86-44F4-AF1A-A6C7F26A0C3C";
paths = (
{
closed = 1;
nodes = (
"399 -10 OFFCURVE",
"414 -10 CURVE SMOOTH",
"449 -10 OFFCURVE",
"486 22 OFFCURVE",
"486 55 CURVE SMOOTH",
"486 64 OFFCURVE",
"483 73 OFFCURVE",
"476 82 CURVE SMOOTH",
"323 285 OFFCURVE",
"261 364 OFFCURVE",
"156 501 CURVE SMOOTH",
"146 513 OFFCURVE",
"133 518 OFFCURVE",
"119 518 CURVE SMOOTH",
"83 518 OFFCURVE",
"44 486 OFFCURVE",
"44 455 CURVE SMOOTH",
"44 448 OFFCURVE",
"46 440 OFFCURVE",
"51 433 CURVE SMOOTH",
"193 248 OFFCURVE",
"243 183 OFFCURVE",
"374 11 CURVE SMOOTH",
"385 -4 OFFCURVE"
);
},
{
closed = 1;
nodes = (
"61 -9 OFFCURVE",
"110 -9 CURVE SMOOTH",
"130 -9 OFFCURVE",
"150 -1 OFFCURVE",
"163 17 CURVE SMOOTH",
"274 178 OFFCURVE",
"322 256 OFFCURVE",
"448 433 CURVE SMOOTH",
"468 461 OFFCURVE",
"420 518 OFFCURVE",
"376 518 CURVE SMOOTH",
"362 518 OFFCURVE",
"350 513 OFFCURVE",
"342 501 CURVE SMOOTH",
"243 359 OFFCURVE",
"189 279 OFFCURVE",
"46 75 CURVE SMOOTH",
"25 45 OFFCURVE"
);
}
);
width = 526;
}
);
note = x;
unicode = 0078;
},
{
glyphname = y;
lastChange = "2018-03-05 11:02:32 +0000";
layers = (
{
anchors = (
{
name = bottom;
position = "{415, 0}";
},
{
name = top;
position = "{254, 500}";
}
);
layerId = "0B1DFD06-3317-40CA-B510-4969A0718C16";
paths = (
{
closed = 1;
nodes = (
"204 -255 OFFCURVE",
"209 -251 OFFCURVE",
"214 -238 CURVE SMOOTH",
"241 -168 OFFCURVE",
"281 -76 OFFCURVE",
"339 85 CURVE SMOOTH",
"388 222 OFFCURVE",
"414 326 OFFCURVE",
"451 485 CURVE SMOOTH",
"452 488 OFFCURVE",
"453 492 OFFCURVE",
"452 495 CURVE SMOOTH",
"451 503 OFFCURVE",
"442 509 OFFCURVE",
"432 509 CURVE SMOOTH",
"422 509 OFFCURVE",
"418 506 OFFCURVE",
"415 493 CURVE SMOOTH",
"382 349 OFFCURVE",
"359 238 OFFCURVE",
"299 66 CURVE",
"241 103 OFFCURVE",
"127 306 OFFCURVE",
"72 491 CURVE SMOOTH",
"69 501 OFFCURVE",
"67 506 OFFCURVE",
"58 506 CURVE SMOOTH",
"50 506 OFFCURVE",
"42 503 OFFCURVE",
"39 494 CURVE SMOOTH",
"38 491 OFFCURVE",
"39 488 OFFCURVE",
"40 485 CURVE SMOOTH",
"96 293 OFFCURVE",
"212 79 OFFCURVE",
"288 33 CURVE",
"250 -75 OFFCURVE",
"214 -153 OFFCURVE",
"182 -231 CURVE SMOOTH",
"181 -234 OFFCURVE",
"180 -236 OFFCURVE",
"180 -239 CURVE SMOOTH",
"180 -248 OFFCURVE",
"187 -255 OFFCURVE",
"196 -255 CURVE SMOOTH"
);
}
);
width = 508;
},
{
anchors = (
{
name = bottom;
position = "{495, 0}";
},
{
name = top;
position = "{272, 500}";
}
);
layerId = "2F8C22CF-EC86-44F4-AF1A-A6C7F26A0C3C";
paths = (
{
closed = 1;
nodes = (
"270 -264 OFFCURVE",
"285 -250 OFFCURVE",
"296 -222 CURVE SMOOTH",
"339 -113 OFFCURVE",
"364 -21 OFFCURVE",
"396 79 CURVE SMOOTH",
"428 180 OFFCURVE",
"470 324 OFFCURVE",
"501 448 CURVE SMOOTH",
"502 452 OFFCURVE",
"502 455 OFFCURVE",
"502 459 CURVE SMOOTH",
"502 490 OFFCURVE",
"469 513 OFFCURVE",
"427 513 CURVE SMOOTH",
"390 513 OFFCURVE",
"375 501 OFFCURVE",
"367 472 CURVE SMOOTH",
"337 362 OFFCURVE",
"319 276 OFFCURVE",
"289 180 CURVE",
"271 181 OFFCURVE",
"184 387 OFFCURVE",
"165 467 CURVE SMOOTH",
"158 496 OFFCURVE",
"141 511 OFFCURVE",
"109 511 CURVE SMOOTH",
"70 511 OFFCURVE",
"40 495 OFFCURVE",
"40 453 CURVE SMOOTH",
"40 447 OFFCURVE",
"41 441 OFFCURVE",
"42 435 CURVE SMOOTH",
"60 327 OFFCURVE",
"188 44 OFFCURVE",
"241 43 CURVE",
"215 -30 OFFCURVE",
"198 -87 OFFCURVE",
"165 -175 CURVE SMOOTH",
"162 -183 OFFCURVE",
"160 -192 OFFCURVE",
"160 -200 CURVE SMOOTH",
"160 -235 OFFCURVE",
"192 -264 OFFCURVE",
"235 -264 CURVE SMOOTH"
);
}
);
width = 542;
}
);
note = y;
unicode = 0079;
},
{
glyphname = z;
lastChange = "2018-03-05 11:03:58 +0000";
layers = (
{
anchors = (
{
name = bottom;
position = "{275, 0}";
},
{
name = top;
position = "{275, 500}";
}
);
layerId = "0B1DFD06-3317-40CA-B510-4969A0718C16";
paths = (
{
closed = 1;
nodes = (
"463 -1 OFFCURVE",
"470 5 OFFCURVE",
"470 13 CURVE SMOOTH",
"470 21 OFFCURVE",
"469 29 OFFCURVE",
"458 30 CURVE SMOOTH",
"402 35 OFFCURVE",
"364 40 OFFCURVE",
"283 40 CURVE SMOOTH",
"218 40 OFFCURVE",
"116 32 OFFCURVE",
"91 32 CURVE",
"233 189 OFFCURVE",
"361 308 OFFCURVE",
"495 458 CURVE SMOOTH",
"504 468 OFFCURVE",
"505 477 OFFCURVE",
"504 484 CURVE SMOOTH",
"503 494 OFFCURVE",
"497 500 OFFCURVE",
"465 500 CURVE SMOOTH",
"417 500 OFFCURVE",
"355 489 OFFCURVE",
"283 489 CURVE SMOOTH",
"214 489 OFFCURVE",
"138 496 OFFCURVE",
"101 503 CURVE SMOOTH",
"90 505 OFFCURVE",
"85 499 OFFCURVE",
"84 492 CURVE SMOOTH",
"83 486 OFFCURVE",
"84 476 OFFCURVE",
"93 474 CURVE SMOOTH",
"128 466 OFFCURVE",
"181 459 OFFCURVE",
"283 459 CURVE SMOOTH",
"363 459 OFFCURVE",
"408 468 OFFCURVE",
"463 468 CURVE",
"334 329 OFFCURVE",
"207 212 OFFCURVE",
"61 43 CURVE SMOOTH",
"57 38 OFFCURVE",
"48 29 OFFCURVE",
"48 18 CURVE SMOOTH",
"48 5 OFFCURVE",
"61 3 OFFCURVE",
"70 3 CURVE SMOOTH",
"165 4 OFFCURVE",
"214 9 OFFCURVE",
"283 9 CURVE SMOOTH",
"361 9 OFFCURVE",
"408 7 OFFCURVE",
"458 0 CURVE"
);
}
);
width = 550;
},
{
anchors = (
{
name = bottom;
position = "{281, 0}";
},
{
name = top;
position = "{281, 500}";
}
);
layerId = "2F8C22CF-EC86-44F4-AF1A-A6C7F26A0C3C";
paths = (
{
closed = 1;
nodes = (
"489 -9 OFFCURVE",
"507 22 OFFCURVE",
"507 53 CURVE SMOOTH",
"507 80 OFFCURVE",
"495 104 OFFCURVE",
"462 109 CURVE SMOOTH",
"420 115 OFFCURVE",
"381 118 OFFCURVE",
"332 118 CURVE SMOOTH",
"303 118 OFFCURVE",
"238 114 OFFCURVE",
"226 114 CURVE",
"308 200 OFFCURVE",
"402 290 OFFCURVE",
"503 391 CURVE SMOOTH",
"524 412 OFFCURVE",
"535 436 OFFCURVE",
"535 460 CURVE SMOOTH",
"535 488 OFFCURVE",
"522 509 OFFCURVE",
"461 509 CURVE SMOOTH",
"414 509 OFFCURVE",
"343 499 OFFCURVE",
"289 499 CURVE SMOOTH",
"243 499 OFFCURVE",
"148 506 OFFCURVE",
"116 511 CURVE SMOOTH",
"82 516 OFFCURVE",
"62 486 OFFCURVE",
"62 456 CURVE SMOOTH",
"62 421 OFFCURVE",
"80 401 OFFCURVE",
"120 393 CURVE SMOOTH",
"146 388 OFFCURVE",
"190 384 OFFCURVE",
"220 384 CURVE SMOOTH",
"258 384 OFFCURVE",
"316 390 OFFCURVE",
"340 392 CURVE",
"226 286 OFFCURVE",
"172 216 OFFCURVE",
"54 98 CURVE SMOOTH",
"46 90 OFFCURVE",
"30 73 OFFCURVE",
"30 51 CURVE SMOOTH",
"30 18 OFFCURVE",
"65 -4 OFFCURVE",
"108 -4 CURVE SMOOTH",
"181 -4 OFFCURVE",
"230 3 OFFCURVE",
"299 3 CURVE SMOOTH",
"367 3 OFFCURVE",
"404 -3 OFFCURVE",
"443 -5 CURVE"
);
}
);
width = 565;
}
);
note = z;
unicode = 007A;
},
{
glyphname = Aringacute;
lastChange = "2018-03-05 10:34:47 +0000";
layers = (
{
anchors = (
{
name = _top;
position = "{336, 920}";
},
{
name = top;
position = "{343, 1051}";
}
);
components = (
{
name = A;
},
{
name = ringcomb;
transform = "{1, 0, 0, 1, 335, 200}";
}
);
layerId = "0B1DFD06-3317-40CA-B510-4969A0718C16";
paths = (
{
closed = 1;
nodes = (
"336 945 OFFCURVE",
"341 947 OFFCURVE",
"350 956 CURVE SMOOTH",
"399 1010 LINE SMOOTH",
"407 1018 OFFCURVE",
"411 1025 OFFCURVE",
"411 1033 CURVE SMOOTH",
"411 1042 OFFCURVE",
"406 1046 OFFCURVE",
"399 1046 CURVE SMOOTH",
"392 1046 OFFCURVE",
"385 1041 OFFCURVE",
"374 1028 CURVE SMOOTH",
"331 975 LINE SMOOTH",
"324 967 OFFCURVE",
"322 960 OFFCURVE",
"322 955 CURVE SMOOTH",
"322 948 OFFCURVE",
"326 945 OFFCURVE",
"331 945 CURVE SMOOTH"
);
}
);
width = 681;
},
{
anchors = (
{
name = _top;
position = "{354, 989}";
},
{
name = top;
position = "{343, 1200}";
}
);
components = (
{
name = A;
},
{
name = ringcomb;
transform = "{1, 0, 0, 1, 354, 200}";
}
);
layerId = "2F8C22CF-EC86-44F4-AF1A-A6C7F26A0C3C";
paths = (
{
closed = 1;
nodes = (
"376 1053 OFFCURVE",
"390 1060 OFFCURVE",
"407 1077 CURVE SMOOTH",
"452 1123 LINE SMOOTH",
"462 1134 OFFCURVE",
"475 1151 OFFCURVE",
"475 1173 CURVE SMOOTH",
"475 1203 OFFCURVE",
"453 1226 OFFCURVE",
"423 1226 CURVE SMOOTH",
"403 1226 OFFCURVE",
"386 1216 OFFCURVE",
"367 1194 CURVE SMOOTH",
"329 1149 LINE SMOOTH",
"318 1136 OFFCURVE",
"310 1118 OFFCURVE",
"310 1103 CURVE SMOOTH",
"310 1075 OFFCURVE",
"331 1053 OFFCURVE",
"359 1053 CURVE SMOOTH"
);
}
);
width = 709;
}
);
leftKerningGroup = A;
leftMetricsKey = A;
note = Aringacute;
rightKerningGroup = A;
unicode = 01FA;
},
{
glyphname = AE;
lastChange = "2018-03-01 06:15:09 +0000";
layers = (
{
anchors = (
{
name = bottom;
position = "{467, 0}";
},
{
name = top;
position = "{634, 700}";
}
);
layerId = "0B1DFD06-3317-40CA-B510-4969A0718C16";
paths = (
{
closed = 1;
nodes = (
"103 1 OFFCURVE",
"106 2 OFFCURVE",
"112 15 CURVE SMOOTH",
"171 132 OFFCURVE",
"410 665 OFFCURVE",
"497 661 CURVE",
"487 690 LINE",
"392 690 OFFCURVE",
"174 217 OFFCURVE",
"81 18 CURVE SMOOTH",
"77 10 OFFCURVE",
"87 1 OFFCURVE",
"99 1 CURVE SMOOTH"
);
},
{
closed = 1;
nodes = (
"514 189 OFFCURVE",
"519 197 OFFCURVE",
"519 204 CURVE SMOOTH",
"519 212 OFFCURVE",
"514 217 OFFCURVE",
"506 217 CURVE SMOOTH",
"206 221 LINE SMOOTH",
"192 221 OFFCURVE",
"184 213 OFFCURVE",
"184 203 CURVE SMOOTH",
"184 197 OFFCURVE",
"188 191 OFFCURVE",
"195 191 CURVE SMOOTH",
"504 189 LINE SMOOTH"
);
},
{
closed = 1;
nodes = (
"805 -6 OFFCURVE",
"852 -4 OFFCURVE",
"872 2 CURVE SMOOTH",
"885 6 OFFCURVE",
"891 12 OFFCURVE",
"891 18 CURVE SMOOTH",
"891 27 OFFCURVE",
"880 34 OFFCURVE",
"866 32 CURVE SMOOTH",
"810 24 OFFCURVE",
"785 21 OFFCURVE",
"739 21 CURVE SMOOTH",
"665 21 OFFCURVE",
"596 29 OFFCURVE",
"512 35 CURVE",
"528 284 OFFCURVE",
"535 365 OFFCURVE",
"535 507 CURVE SMOOTH",
"535 560 OFFCURVE",
"534 610 OFFCURVE",
"531 661 CURVE",
"571 664 OFFCURVE",
"620 664 OFFCURVE",
"666 664 CURVE SMOOTH",
"756 664 OFFCURVE",
"879 657 OFFCURVE",
"883 657 CURVE SMOOTH",
"886 657 OFFCURVE",
"897 661 OFFCURVE",
"897 674 CURVE SMOOTH",
"897 682 OFFCURVE",
"893 687 OFFCURVE",
"887 687 CURVE SMOOTH",
"884 687 OFFCURVE",
"746 696 OFFCURVE",
"692 696 CURVE SMOOTH",
"661 696 OFFCURVE",
"550 693 OFFCURVE",
"497 691 CURVE SMOOTH",
"484 691 OFFCURVE",
"475 688 OFFCURVE",
"475 676 CURVE SMOOTH",
"475 664 OFFCURVE",
"483 661 OFFCURVE",
"497 661 CURVE",
"500 624 OFFCURVE",
"502 569 OFFCURVE",
"502 512 CURVE SMOOTH",
"502 384 OFFCURVE",
"492 149 OFFCURVE",
"478 35 CURVE",
"450 35 OFFCURVE",
"443 34 OFFCURVE",
"443 16 CURVE SMOOTH",
"443 4 OFFCURVE",
"446 3 OFFCURVE",
"491 3 CURVE SMOOTH",
"624 3 OFFCURVE",
"676 -6 OFFCURVE",
"764 -6 CURVE SMOOTH"
);
},
{
closed = 1;
nodes = (
"798 349 OFFCURVE",
"811 350 OFFCURVE",
"811 363 CURVE SMOOTH",
"811 372 OFFCURVE",
"805 379 OFFCURVE",
"798 379 CURVE SMOOTH",
"782 380 OFFCURVE",
"734 381 OFFCURVE",
"683 382 CURVE SMOOTH",
"670 382 OFFCURVE",
"513 386 OFFCURVE",
"509 386 CURVE",
"508 354 LINE",
"514 354 OFFCURVE",
"517 355 OFFCURVE",
"599 355 CURVE SMOOTH",
"619 355 OFFCURVE",
"756 349 OFFCURVE",
"786 349 CURVE SMOOTH"
);
}
);
width = 933;
},
{
anchors = (
{
name = bottom;
position = "{443, 0}";
},
{
name = top;
position = "{610, 696}";
}
);
layerId = "2F8C22CF-EC86-44F4-AF1A-A6C7F26A0C3C";
paths = (
{
closed = 1;
nodes = (
"202 0 OFFCURVE",
"212 19 OFFCURVE",
"217 29 CURVE SMOOTH",
"244 84 OFFCURVE",
"471 556 OFFCURVE",
"507 541 CURVE",
"450 690 LINE",
"354 690 OFFCURVE",
"151 249 OFFCURVE",
"68 67 CURVE SMOOTH",
"55 38 OFFCURVE",
"125 0 OFFCURVE",
"170 0 CURVE SMOOTH"
);
},
{
closed = 1;
nodes = (
"517 189 OFFCURVE",
"532 213 OFFCURVE",
"532 240 CURVE SMOOTH",
"532 267 OFFCURVE",
"517 288 OFFCURVE",
"509 288 CURVE SMOOTH",
"209 292 LINE SMOOTH",
"198 292 OFFCURVE",
"176 275 OFFCURVE",
"176 242 CURVE SMOOTH",
"176 215 OFFCURVE",
"191 191 OFFCURVE",
"198 191 CURVE SMOOTH",
"507 189 LINE SMOOTH"
);
},
{
closed = 1;
nodes = (
"754 -6 OFFCURVE",
"775 -6 OFFCURVE",
"795 0 CURVE SMOOTH",
"808 4 OFFCURVE",
"840 19 OFFCURVE",
"840 68 CURVE SMOOTH",
"840 119 OFFCURVE",
"802 130 OFFCURVE",
"788 128 CURVE SMOOTH",
"732 120 OFFCURVE",
"734 121 OFFCURVE",
"688 121 CURVE SMOOTH",
"671 121 OFFCURVE",
"633 119 OFFCURVE",
"589 125 CURVE",
"598 211 OFFCURVE",
"602 234 OFFCURVE",
"602 376 CURVE SMOOTH",
"602 429 OFFCURVE",
"601 520 OFFCURVE",
"598 571 CURVE",
"638 574 OFFCURVE",
"657 574 OFFCURVE",
"703 574 CURVE SMOOTH",
"734 574 OFFCURVE",
"767 573 OFFCURVE",
"795 571 CURVE SMOOTH",
"819 569 OFFCURVE",
"846 574 OFFCURVE",
"846 635 CURVE SMOOTH",
"846 670 OFFCURVE",
"834 685 OFFCURVE",
"808 687 CURVE SMOOTH",
"773 690 OFFCURVE",
"695 696 OFFCURVE",
"641 696 CURVE SMOOTH",
"610 696 OFFCURVE",
"499 691 OFFCURVE",
"446 691 CURVE SMOOTH",
"433 691 OFFCURVE",
"424 672 OFFCURVE",
"424 637 CURVE SMOOTH",
"424 587 OFFCURVE",
"437 574 OFFCURVE",
"451 574 CURVE",
"454 537 OFFCURVE",
"451 569 OFFCURVE",
"451 512 CURVE SMOOTH",
"451 384 OFFCURVE",
"451 229 OFFCURVE",
"437 115 CURVE",
"409 115 OFFCURVE",
"389 96 OFFCURVE",
"389 53 CURVE SMOOTH",
"389 17 OFFCURVE",
"409 -6 OFFCURVE",
"454 -6 CURVE SMOOTH",
"559 -6 OFFCURVE",
"644 -6 OFFCURVE",
"713 -6 CURVE SMOOTH"
);
},
{
closed = 1;
nodes = (
"767 309 OFFCURVE",
"777 329 OFFCURVE",
"777 359 CURVE SMOOTH",
"777 384 OFFCURVE",
"770 402 OFFCURVE",
"752 404 CURVE SMOOTH",
"741 405 OFFCURVE",
"702 406 OFFCURVE",
"647 407 CURVE SMOOTH",
"574 408 OFFCURVE",
"514 411 OFFCURVE",
"472 411 CURVE",
"471 310 LINE",
"501 310 OFFCURVE",
"565 311 OFFCURVE",
"652 311 CURVE SMOOTH",
"668 311 OFFCURVE",
"711 309 OFFCURVE",
"724 309 CURVE SMOOTH"
);
}
);
width = 886;
}
);
leftKerningGroup = A;
leftMetricsKey = A;
note = AE;
rightKerningGroup = E;
rightMetricsKey = E;
unicode = 00C6;
},
{
glyphname = Eth;
lastChange = "2018-02-05 16:56:13 +0000";
layers = (
{
anchors = (
{
name = bottom;
position = "{483, 50}";
},
{
name = center;
position = "{483, 351}";
},
{
name = top;
position = "{483, 653}";
}
);
layerId = "0B1DFD06-3317-40CA-B510-4969A0718C16";
paths = (
{
closed = 1;
nodes = (
"278 8 OFFCURVE",
"299 8 OFFCURVE",
"324 8 CURVE SMOOTH",
"603 8 OFFCURVE",
"765 142 OFFCURVE",
"765 357 CURVE SMOOTH",
"765 608 OFFCURVE",
"544 698 OFFCURVE",
"252 698 CURVE SMOOTH",
"241 698 OFFCURVE",
"232 697 OFFCURVE",
"232 686 CURVE SMOOTH",
"232 674 OFFCURVE",
"239 669 OFFCURVE",
"255 669 CURVE SMOOTH",
"543 669 OFFCURVE",
"736 582 OFFCURVE",
"736 358 CURVE SMOOTH",
"736 148 OFFCURVE",
"568 37 OFFCURVE",
"323 37 CURVE",
"331 29 LINE",
"313 686 LINE SMOOTH",
"313 703 OFFCURVE",
"312 712 OFFCURVE",
"298 712 CURVE SMOOTH",
"283 712 OFFCURVE",
"282 701 OFFCURVE",
"282 684 CURVE SMOOTH",
"301 29 LINE",
"310 37 LINE",
"245 37 LINE SMOOTH",
"238 37 OFFCURVE",
"233 34 OFFCURVE",
"233 25 CURVE SMOOTH",
"233 13 OFFCURVE",
"237 8 OFFCURVE",
"249 8 CURVE SMOOTH"
);
},
{
closed = 1;
nodes = (
"501 347 OFFCURVE",
"507 350 OFFCURVE",
"507 358 CURVE SMOOTH",
"507 367 OFFCURVE",
"501 373 OFFCURVE",
"488 373 CURVE SMOOTH",
"171 379 LINE SMOOTH",
"153 379 OFFCURVE",
"147 374 OFFCURVE",
"147 365 CURVE SMOOTH",
"147 356 OFFCURVE",
"153 352 OFFCURVE",
"171 352 CURVE SMOOTH",
"488 347 LINE SMOOTH"
);
}
);
width = 909;
},
{
anchors = (
{
name = bottom;
position = "{483, 50}";
},
{
name = center;
position = "{483, 351}";
},
{
name = top;
position = "{483, 653}";
}
);
layerId = "2F8C22CF-EC86-44F4-AF1A-A6C7F26A0C3C";
paths = (
{
closed = 1;
nodes = (
"304 5 OFFCURVE",
"323 5 OFFCURVE",
"344 5 CURVE SMOOTH",
"618 5 OFFCURVE",
"793 143 OFFCURVE",
"793 353 CURVE SMOOTH",
"793 579 OFFCURVE",
"591 703 OFFCURVE",
"323 703 CURVE SMOOTH",
"230 703 OFFCURVE",
"196 688 OFFCURVE",
"196 643 CURVE SMOOTH",
"196 598 OFFCURVE",
"231 578 OFFCURVE",
"285 575 CURVE SMOOTH",
"351 571 OFFCURVE",
"630 587 OFFCURVE",
"630 360 CURVE SMOOTH",
"630 220 OFFCURVE",
"523 133 OFFCURVE",
"350 133 CURVE",
"419 83 LINE",
"404 641 LINE SMOOTH",
"403 690 OFFCURVE",
"376 717 OFFCURVE",
"315 717 CURVE SMOOTH",
"250 717 OFFCURVE",
"238 687 OFFCURVE",
"239 637 CURVE SMOOTH",
"254 80 LINE",
"323 133 LINE",
"276 133 LINE SMOOTH",
"241 133 OFFCURVE",
"195 125 OFFCURVE",
"197 67 CURVE SMOOTH",
"199 20 OFFCURVE",
"228 5 OFFCURVE",
"279 5 CURVE SMOOTH"
);
},
{
closed = 1;
nodes = (
"493 287 OFFCURVE",
"527 315 OFFCURVE",
"527 358 CURVE SMOOTH",
"527 402 OFFCURVE",
"492 431 OFFCURVE",
"438 433 CURVE SMOOTH",
"243 439 LINE SMOOTH",
"181 441 OFFCURVE",
"147 409 OFFCURVE",
"147 365 CURVE SMOOTH",
"147 320 OFFCURVE",
"182 293 OFFCURVE",
"240 292 CURVE SMOOTH",
"437 287 LINE"
);
}
);
width = 909;
}
);
note = Eth;
unicode = 00D0;
},
{
glyphname = Eacute;
lastChange = "2018-03-05 10:37:35 +0000";
layers = (
{
background = {
paths = (
{
closed = 1;
nodes = (
"554 0 LINE",
"571 179 LINE",
"544 179 LINE",
"538 124 OFFCURVE",
"520 40 OFFCURVE",
"456 40 CURVE SMOOTH",
"201 40 LINE",
"201 659 LINE",
"441 659 LINE SMOOTH",
"516 659 OFFCURVE",
"525 567 OFFCURVE",
"528 527 CURVE",
"555 527 LINE",
"555 700 LINE",
"16 700 LINE",
"16 673 LINE",
"44 673 LINE SMOOTH",
"83 673 OFFCURVE",
"103 662 OFFCURVE",
"103 637 CURVE SMOOTH",
"103 62 LINE SMOOTH",
"103 37 OFFCURVE",
"83 26 OFFCURVE",
"44 26 CURVE SMOOTH",
"16 26 LINE",
"16 0 LINE"
);
},
{
closed = 1;
nodes = (
"455 251 LINE",
"455 485 LINE",
"431 485 LINE",
"427 436 OFFCURVE",
"424 388 OFFCURVE",
"379 388 CURVE SMOOTH",
"162 388 LINE",
"162 348 LINE",
"379 348 LINE SMOOTH",
"424 348 OFFCURVE",
"427 300 OFFCURVE",
"431 251 CURVE"
);
},
{
closed = 1;
nodes = (
"398 865 LINE SMOOTH",
"420 877 OFFCURVE",
"432 890 OFFCURVE",
"432 907 CURVE SMOOTH",
"432 922 OFFCURVE",
"420 937 OFFCURVE",
"398 937 CURVE SMOOTH",
"377 937 OFFCURVE",
"362 921 OFFCURVE",
"354 914 CURVE SMOOTH",
"239 807 LINE",
"256 782 LINE"
);
}
);
};
components = (
{
name = E;
},
{
name = acutecomb;
transform = "{1, 0, 0, 1, 273, 200}";
}
);
layerId = "0B1DFD06-3317-40CA-B510-4969A0718C16";
width = 535;
},
{
background = {
paths = (
{
closed = 1;
nodes = (
"554 0 LINE",
"571 179 LINE",
"544 179 LINE",
"538 124 OFFCURVE",
"520 40 OFFCURVE",
"456 40 CURVE SMOOTH",
"201 40 LINE",
"201 659 LINE",
"441 659 LINE SMOOTH",
"516 659 OFFCURVE",
"525 567 OFFCURVE",
"528 527 CURVE",
"555 527 LINE",
"555 700 LINE",
"16 700 LINE",
"16 673 LINE",
"44 673 LINE SMOOTH",
"83 673 OFFCURVE",
"103 662 OFFCURVE",
"103 637 CURVE SMOOTH",
"103 62 LINE SMOOTH",
"103 37 OFFCURVE",
"83 26 OFFCURVE",
"44 26 CURVE SMOOTH",
"16 26 LINE",
"16 0 LINE"
);
},
{
closed = 1;
nodes = (
"455 251 LINE",
"455 485 LINE",
"431 485 LINE",
"427 436 OFFCURVE",
"424 388 OFFCURVE",
"379 388 CURVE SMOOTH",
"162 388 LINE",
"162 348 LINE",
"379 348 LINE SMOOTH",
"424 348 OFFCURVE",
"427 300 OFFCURVE",
"431 251 CURVE"
);
},
{
closed = 1;
nodes = (
"398 865 LINE SMOOTH",
"420 877 OFFCURVE",
"432 890 OFFCURVE",
"432 907 CURVE SMOOTH",
"432 922 OFFCURVE",
"420 937 OFFCURVE",
"398 937 CURVE SMOOTH",
"377 937 OFFCURVE",
"362 921 OFFCURVE",
"354 914 CURVE SMOOTH",
"239 807 LINE",
"256 782 LINE"
);
}
);
};
components = (
{
name = E;
},
{
name = acutecomb;
transform = "{1, 0, 0, 1, 338, 200}";
}
);
layerId = "2F8C22CF-EC86-44F4-AF1A-A6C7F26A0C3C";
width = 630;
}
);
note = Eacute;
unicode = 00C9;
},
{
glyphname = Ebreve;
lastChange = "2018-03-05 10:37:35 +0000";
layers = (
{
background = {
paths = (
{
closed = 1;
nodes = (
"554 0 LINE",
"571 179 LINE",
"544 179 LINE",
"538 124 OFFCURVE",
"520 40 OFFCURVE",
"456 40 CURVE SMOOTH",
"201 40 LINE",
"201 659 LINE",
"441 659 LINE SMOOTH",
"516 659 OFFCURVE",
"525 567 OFFCURVE",
"528 527 CURVE",
"555 527 LINE",
"555 700 LINE",
"16 700 LINE",
"16 673 LINE",
"44 673 LINE SMOOTH",
"83 673 OFFCURVE",
"103 662 OFFCURVE",
"103 637 CURVE SMOOTH",
"103 62 LINE SMOOTH",
"103 37 OFFCURVE",
"83 26 OFFCURVE",
"44 26 CURVE SMOOTH",
"16 26 LINE",
"16 0 LINE"
);
},
{
closed = 1;
nodes = (
"455 251 LINE",
"455 485 LINE",
"431 485 LINE",
"427 436 OFFCURVE",
"424 388 OFFCURVE",
"379 388 CURVE SMOOTH",
"162 388 LINE",
"162 348 LINE",
"379 348 LINE SMOOTH",
"424 348 OFFCURVE",
"427 300 OFFCURVE",
"431 251 CURVE"
);
},
{
closed = 1;
nodes = (
"432 776 OFFCURVE",
"474 832 OFFCURVE",
"478 907 CURVE",
"445 907 LINE",
"439 848 OFFCURVE",
"397 822 OFFCURVE",
"333 822 CURVE SMOOTH",
"269 822 OFFCURVE",
"226 848 OFFCURVE",
"219 907 CURVE",
"186 907 LINE",
"190 829 OFFCURVE",
"232 776 OFFCURVE",
"333 776 CURVE SMOOTH"
);
}
);
};
components = (
{
name = E;
},
{
name = brevecomb;
transform = "{1, 0, 0, 1, 276, 200}";
}
);
layerId = "0B1DFD06-3317-40CA-B510-4969A0718C16";
width = 535;
},
{
background = {
paths = (
{
closed = 1;
nodes = (
"554 0 LINE",
"571 179 LINE",
"544 179 LINE",
"538 124 OFFCURVE",
"520 40 OFFCURVE",
"456 40 CURVE SMOOTH",
"201 40 LINE",
"201 659 LINE",
"441 659 LINE SMOOTH",
"516 659 OFFCURVE",
"525 567 OFFCURVE",
"528 527 CURVE",
"555 527 LINE",
"555 700 LINE",
"16 700 LINE",
"16 673 LINE",
"44 673 LINE SMOOTH",
"83 673 OFFCURVE",
"103 662 OFFCURVE",
"103 637 CURVE SMOOTH",
"103 62 LINE SMOOTH",
"103 37 OFFCURVE",
"83 26 OFFCURVE",
"44 26 CURVE SMOOTH",
"16 26 LINE",
"16 0 LINE"
);
},
{
closed = 1;
nodes = (
"455 251 LINE",
"455 485 LINE",
"431 485 LINE",
"427 436 OFFCURVE",
"424 388 OFFCURVE",
"379 388 CURVE SMOOTH",
"162 388 LINE",
"162 348 LINE",
"379 348 LINE SMOOTH",
"424 348 OFFCURVE",
"427 300 OFFCURVE",
"431 251 CURVE"
);
},
{
closed = 1;
nodes = (
"432 776 OFFCURVE",
"474 832 OFFCURVE",
"478 907 CURVE",
"445 907 LINE",
"439 848 OFFCURVE",
"397 822 OFFCURVE",
"333 822 CURVE SMOOTH",
"269 822 OFFCURVE",
"226 848 OFFCURVE",
"219 907 CURVE",
"186 907 LINE",
"190 829 OFFCURVE",
"232 776 OFFCURVE",
"333 776 CURVE SMOOTH"
);
}
);
};
components = (
{
name = E;
},
{
name = brevecomb;
transform = "{1, 0, 0, 1, 338, 200}";
}
);
layerId = "2F8C22CF-EC86-44F4-AF1A-A6C7F26A0C3C";
width = 630;
}
);
note = Ebreve;
unicode = 0114;
},
{
glyphname = Ecaron;
lastChange = "2018-03-05 10:37:35 +0000";
layers = (
{
background = {
paths = (
{
closed = 1;
nodes = (
"554 0 LINE",
"571 179 LINE",
"544 179 LINE",
"538 124 OFFCURVE",
"520 40 OFFCURVE",
"456 40 CURVE SMOOTH",
"201 40 LINE",
"201 659 LINE",
"441 659 LINE SMOOTH",
"516 659 OFFCURVE",
"525 567 OFFCURVE",
"528 527 CURVE",
"555 527 LINE",
"555 700 LINE",
"16 700 LINE",
"16 673 LINE",
"44 673 LINE SMOOTH",
"83 673 OFFCURVE",
"103 662 OFFCURVE",
"103 637 CURVE SMOOTH",
"103 62 LINE SMOOTH",
"103 37 OFFCURVE",
"83 26 OFFCURVE",
"44 26 CURVE SMOOTH",
"16 26 LINE",
"16 0 LINE"
);
},
{
closed = 1;
nodes = (
"455 251 LINE",
"455 485 LINE",
"431 485 LINE",
"427 436 OFFCURVE",
"424 388 OFFCURVE",
"379 388 CURVE SMOOTH",
"162 388 LINE",
"162 348 LINE",
"379 348 LINE SMOOTH",
"424 348 OFFCURVE",
"427 300 OFFCURVE",
"431 251 CURVE"
);
},
{
closed = 1;
nodes = (
"357 782 LINE",
"481 911 LINE",
"462 932 LINE",
"354 847 LINE",
"346 840 OFFCURVE",
"337 836 OFFCURVE",
"331 836 CURVE SMOOTH",
"325 836 OFFCURVE",
"317 840 OFFCURVE",
"307 847 CURVE",
"199 932 LINE",
"180 911 LINE",
"304 782 LINE"
);
}
);
};
components = (
{
name = E;
},
{
name = caroncomb;
transform = "{1, 0, 0, 1, 276, 200}";
}
);
layerId = "0B1DFD06-3317-40CA-B510-4969A0718C16";
width = 535;
},
{
background = {
paths = (
{
closed = 1;
nodes = (
"554 0 LINE",
"571 179 LINE",
"544 179 LINE",
"538 124 OFFCURVE",
"520 40 OFFCURVE",
"456 40 CURVE SMOOTH",
"201 40 LINE",
"201 659 LINE",
"441 659 LINE SMOOTH",
"516 659 OFFCURVE",
"525 567 OFFCURVE",
"528 527 CURVE",
"555 527 LINE",
"555 700 LINE",
"16 700 LINE",
"16 673 LINE",
"44 673 LINE SMOOTH",
"83 673 OFFCURVE",
"103 662 OFFCURVE",
"103 637 CURVE SMOOTH",
"103 62 LINE SMOOTH",
"103 37 OFFCURVE",
"83 26 OFFCURVE",
"44 26 CURVE SMOOTH",
"16 26 LINE",
"16 0 LINE"
);
},
{
closed = 1;
nodes = (
"455 251 LINE",
"455 485 LINE",
"431 485 LINE",
"427 436 OFFCURVE",
"424 388 OFFCURVE",
"379 388 CURVE SMOOTH",
"162 388 LINE",
"162 348 LINE",
"379 348 LINE SMOOTH",
"424 348 OFFCURVE",
"427 300 OFFCURVE",
"431 251 CURVE"
);
},
{
closed = 1;
nodes = (
"357 782 LINE",
"481 911 LINE",
"462 932 LINE",
"354 847 LINE",
"346 840 OFFCURVE",
"337 836 OFFCURVE",
"331 836 CURVE SMOOTH",
"325 836 OFFCURVE",
"317 840 OFFCURVE",
"307 847 CURVE",
"199 932 LINE",
"180 911 LINE",
"304 782 LINE"
);
}
);
};
components = (
{
name = E;
},
{
name = caroncomb;
transform = "{1, 0, 0, 1, 338, 200}";
}
);
layerId = "2F8C22CF-EC86-44F4-AF1A-A6C7F26A0C3C";
width = 630;
}
);
note = Ecaron;
unicode = 011A;
},
{
glyphname = Ecircumflex;
lastChange = "2018-03-05 10:37:35 +0000";
layers = (
{
background = {
paths = (
{
closed = 1;
nodes = (
"554 0 LINE",
"571 179 LINE",
"544 179 LINE",
"538 124 OFFCURVE",
"520 40 OFFCURVE",
"456 40 CURVE SMOOTH",
"201 40 LINE",
"201 659 LINE",
"441 659 LINE SMOOTH",
"516 659 OFFCURVE",
"525 567 OFFCURVE",
"528 527 CURVE",
"555 527 LINE",
"555 700 LINE",
"16 700 LINE",
"16 673 LINE",
"44 673 LINE SMOOTH",
"83 673 OFFCURVE",
"103 662 OFFCURVE",
"103 637 CURVE SMOOTH",
"103 62 LINE SMOOTH",
"103 37 OFFCURVE",
"83 26 OFFCURVE",
"44 26 CURVE SMOOTH",
"16 26 LINE",
"16 0 LINE"
);
},
{
closed = 1;
nodes = (
"455 251 LINE",
"455 485 LINE",
"431 485 LINE",
"427 436 OFFCURVE",
"424 388 OFFCURVE",
"379 388 CURVE SMOOTH",
"162 388 LINE",
"162 348 LINE",
"379 348 LINE SMOOTH",
"424 348 OFFCURVE",
"427 300 OFFCURVE",
"431 251 CURVE"
);
},
{
closed = 1;
nodes = (
"304 868 LINE SMOOTH",
"312 874 OFFCURVE",
"322 879 OFFCURVE",
"328 879 CURVE SMOOTH",
"334 879 OFFCURVE",
"342 874 OFFCURVE",
"351 868 CURVE",
"459 782 LINE",
"478 803 LINE",
"354 932 LINE",
"301 932 LINE",
"177 803 LINE",
"196 782 LINE"
);
}
);
};
components = (
{
name = E;
},
{
name = circumflexcomb;
transform = "{1, 0, 0, 1, 276, 200}";
}
);
layerId = "0B1DFD06-3317-40CA-B510-4969A0718C16";
width = 535;
},
{
background = {
paths = (
{
closed = 1;
nodes = (
"554 0 LINE",
"571 179 LINE",
"544 179 LINE",
"538 124 OFFCURVE",
"520 40 OFFCURVE",
"456 40 CURVE SMOOTH",
"201 40 LINE",
"201 659 LINE",
"441 659 LINE SMOOTH",
"516 659 OFFCURVE",
"525 567 OFFCURVE",
"528 527 CURVE",
"555 527 LINE",
"555 700 LINE",
"16 700 LINE",
"16 673 LINE",
"44 673 LINE SMOOTH",
"83 673 OFFCURVE",
"103 662 OFFCURVE",
"103 637 CURVE SMOOTH",
"103 62 LINE SMOOTH",
"103 37 OFFCURVE",
"83 26 OFFCURVE",
"44 26 CURVE SMOOTH",
"16 26 LINE",
"16 0 LINE"
);
},
{
closed = 1;
nodes = (
"455 251 LINE",
"455 485 LINE",
"431 485 LINE",
"427 436 OFFCURVE",
"424 388 OFFCURVE",
"379 388 CURVE SMOOTH",
"162 388 LINE",
"162 348 LINE",
"379 348 LINE SMOOTH",
"424 348 OFFCURVE",
"427 300 OFFCURVE",
"431 251 CURVE"
);
},
{
closed = 1;
nodes = (
"304 868 LINE SMOOTH",
"312 874 OFFCURVE",
"322 879 OFFCURVE",
"328 879 CURVE SMOOTH",
"334 879 OFFCURVE",
"342 874 OFFCURVE",
"351 868 CURVE",
"459 782 LINE",
"478 803 LINE",
"354 932 LINE",
"301 932 LINE",
"177 803 LINE",
"196 782 LINE"
);
}
);
};
components = (
{
name = E;
},
{
name = circumflexcomb;
transform = "{1, 0, 0, 1, 338, 200}";
}
);
layerId = "2F8C22CF-EC86-44F4-AF1A-A6C7F26A0C3C";
width = 630;
}
);
note = Ecircumflex;
unicode = 00CA;
},
{
glyphname = Ecircumflexacute;
lastChange = "2018-03-05 10:38:19 +0000";
layers = (
{
background = {
paths = (
{
closed = 1;
nodes = (
"554 0 LINE",
"571 179 LINE",
"544 179 LINE",
"538 124 OFFCURVE",
"520 40 OFFCURVE",
"456 40 CURVE SMOOTH",
"201 40 LINE",
"201 659 LINE",
"441 659 LINE SMOOTH",
"516 659 OFFCURVE",
"525 567 OFFCURVE",
"528 527 CURVE",
"555 527 LINE",
"555 700 LINE",
"16 700 LINE",
"16 673 LINE",
"44 673 LINE SMOOTH",
"83 673 OFFCURVE",
"103 662 OFFCURVE",
"103 637 CURVE SMOOTH",
"103 62 LINE SMOOTH",
"103 37 OFFCURVE",
"83 26 OFFCURVE",
"44 26 CURVE SMOOTH",
"16 26 LINE",
"16 0 LINE"
);
},
{
closed = 1;
nodes = (
"455 251 LINE",
"455 485 LINE",
"431 485 LINE",
"427 436 OFFCURVE",
"424 388 OFFCURVE",
"379 388 CURVE SMOOTH",
"162 388 LINE",
"162 348 LINE",
"379 348 LINE SMOOTH",
"424 348 OFFCURVE",
"427 300 OFFCURVE",
"431 251 CURVE"
);
},
{
closed = 1;
nodes = (
"290 862 LINE SMOOTH",
"300 870 OFFCURVE",
"310 878 OFFCURVE",
"318 878 CURVE SMOOTH",
"324 878 OFFCURVE",
"332 873 OFFCURVE",
"341 867 CURVE",
"447 781 LINE",
"466 803 LINE",
"344 932 LINE",
"293 932 LINE",
"171 803 LINE",
"189 781 LINE"
);
},
{
closed = 1;
nodes = (
"555 960 LINE SMOOTH",
"578 972 OFFCURVE",
"591 988 OFFCURVE",
"591 1003 CURVE SMOOTH",
"591 1017 OFFCURVE",
"580 1034 OFFCURVE",
"557 1034 CURVE SMOOTH",
"538 1034 OFFCURVE",
"521 1018 OFFCURVE",
"511 1008 CURVE SMOOTH",
"415 915 LINE",
"433 893 LINE"
);
}
);
};
components = (
{
name = E;
},
{
name = circumflexcomb;
transform = "{1, 0, 0, 1, 276, 200}";
},
{
name = acutecomb;
transform = "{1, 0, 0, 1, 273, 417}";
}
);
layerId = "0B1DFD06-3317-40CA-B510-4969A0718C16";
width = 535;
},
{
background = {
paths = (
{
closed = 1;
nodes = (
"554 0 LINE",
"571 179 LINE",
"544 179 LINE",
"538 124 OFFCURVE",
"520 40 OFFCURVE",
"456 40 CURVE SMOOTH",
"201 40 LINE",
"201 659 LINE",
"441 659 LINE SMOOTH",
"516 659 OFFCURVE",
"525 567 OFFCURVE",
"528 527 CURVE",
"555 527 LINE",
"555 700 LINE",
"16 700 LINE",
"16 673 LINE",
"44 673 LINE SMOOTH",
"83 673 OFFCURVE",
"103 662 OFFCURVE",
"103 637 CURVE SMOOTH",
"103 62 LINE SMOOTH",
"103 37 OFFCURVE",
"83 26 OFFCURVE",
"44 26 CURVE SMOOTH",
"16 26 LINE",
"16 0 LINE"
);
},
{
closed = 1;
nodes = (
"455 251 LINE",
"455 485 LINE",
"431 485 LINE",
"427 436 OFFCURVE",
"424 388 OFFCURVE",
"379 388 CURVE SMOOTH",
"162 388 LINE",
"162 348 LINE",
"379 348 LINE SMOOTH",
"424 348 OFFCURVE",
"427 300 OFFCURVE",
"431 251 CURVE"
);
},
{
closed = 1;
nodes = (
"290 862 LINE SMOOTH",
"300 870 OFFCURVE",
"310 878 OFFCURVE",
"318 878 CURVE SMOOTH",
"324 878 OFFCURVE",
"332 873 OFFCURVE",
"341 867 CURVE",
"447 781 LINE",
"466 803 LINE",
"344 932 LINE",
"293 932 LINE",
"171 803 LINE",
"189 781 LINE"
);
},
{
closed = 1;
nodes = (
"555 960 LINE SMOOTH",
"578 972 OFFCURVE",
"591 988 OFFCURVE",
"591 1003 CURVE SMOOTH",
"591 1017 OFFCURVE",
"580 1034 OFFCURVE",
"557 1034 CURVE SMOOTH",
"538 1034 OFFCURVE",
"521 1018 OFFCURVE",
"511 1008 CURVE SMOOTH",
"415 915 LINE",
"433 893 LINE"
);
}
);
};
components = (
{
name = E;
},
{
name = circumflexcomb;
transform = "{1, 0, 0, 1, 338, 200}";
},
{
name = acutecomb;
transform = "{1, 0, 0, 1, 338, 479}";
}
);
layerId = "2F8C22CF-EC86-44F4-AF1A-A6C7F26A0C3C";
width = 630;
}
);
note = Ecircumflexacute;
unicode = 1EBE;
},
{
glyphname = Ecircumflexdotbelow;
lastChange = "2018-03-05 10:38:19 +0000";
layers = (
{
background = {
paths = (
{
closed = 1;
nodes = (
"554 0 LINE",
"571 179 LINE",
"544 179 LINE",
"538 124 OFFCURVE",
"520 40 OFFCURVE",
"456 40 CURVE SMOOTH",
"201 40 LINE",
"201 659 LINE",
"441 659 LINE SMOOTH",
"516 659 OFFCURVE",
"525 567 OFFCURVE",
"528 527 CURVE",
"555 527 LINE",
"555 700 LINE",
"16 700 LINE",
"16 673 LINE",
"44 673 LINE SMOOTH",
"83 673 OFFCURVE",
"103 662 OFFCURVE",
"103 637 CURVE SMOOTH",
"103 62 LINE SMOOTH",
"103 37 OFFCURVE",
"83 26 OFFCURVE",
"44 26 CURVE SMOOTH",
"16 26 LINE",
"16 0 LINE"
);
},
{
closed = 1;
nodes = (
"350 -159 OFFCURVE",
"368 -140 OFFCURVE",
"368 -112 CURVE SMOOTH",
"368 -84 OFFCURVE",
"350 -64 OFFCURVE",
"322 -64 CURVE SMOOTH",
"294 -64 OFFCURVE",
"275 -84 OFFCURVE",
"275 -112 CURVE SMOOTH",
"275 -140 OFFCURVE",
"294 -159 OFFCURVE",
"322 -159 CURVE SMOOTH"
);
},
{
closed = 1;
nodes = (
"455 251 LINE",
"455 485 LINE",
"431 485 LINE",
"427 436 OFFCURVE",
"424 388 OFFCURVE",
"379 388 CURVE SMOOTH",
"162 388 LINE",
"162 348 LINE",
"379 348 LINE SMOOTH",
"424 348 OFFCURVE",
"427 300 OFFCURVE",
"431 251 CURVE"
);
},
{
closed = 1;
nodes = (
"294 868 LINE SMOOTH",
"302 874 OFFCURVE",
"312 879 OFFCURVE",
"318 879 CURVE SMOOTH",
"324 879 OFFCURVE",
"332 874 OFFCURVE",
"341 868 CURVE",
"449 782 LINE",
"468 803 LINE",
"344 932 LINE",
"291 932 LINE",
"167 803 LINE",
"186 782 LINE"
);
}
);
};
components = (
{
name = E;
},
{
name = dotbelowcomb;
transform = "{1, 0, 0, 1, 276, 0}";
},
{
name = circumflexcomb;
transform = "{1, 0, 0, 1, 276, 200}";
}
);
layerId = "0B1DFD06-3317-40CA-B510-4969A0718C16";
width = 535;
},
{
background = {
paths = (
{
closed = 1;
nodes = (
"554 0 LINE",
"571 179 LINE",
"544 179 LINE",
"538 124 OFFCURVE",
"520 40 OFFCURVE",
"456 40 CURVE SMOOTH",
"201 40 LINE",
"201 659 LINE",
"441 659 LINE SMOOTH",
"516 659 OFFCURVE",
"525 567 OFFCURVE",
"528 527 CURVE",
"555 527 LINE",
"555 700 LINE",
"16 700 LINE",
"16 673 LINE",
"44 673 LINE SMOOTH",
"83 673 OFFCURVE",
"103 662 OFFCURVE",
"103 637 CURVE SMOOTH",
"103 62 LINE SMOOTH",
"103 37 OFFCURVE",
"83 26 OFFCURVE",
"44 26 CURVE SMOOTH",
"16 26 LINE",
"16 0 LINE"
);
},
{
closed = 1;
nodes = (
"350 -159 OFFCURVE",
"368 -140 OFFCURVE",
"368 -112 CURVE SMOOTH",
"368 -84 OFFCURVE",
"350 -64 OFFCURVE",
"322 -64 CURVE SMOOTH",
"294 -64 OFFCURVE",
"275 -84 OFFCURVE",
"275 -112 CURVE SMOOTH",
"275 -140 OFFCURVE",
"294 -159 OFFCURVE",
"322 -159 CURVE SMOOTH"
);
},
{
closed = 1;
nodes = (
"455 251 LINE",
"455 485 LINE",
"431 485 LINE",
"427 436 OFFCURVE",
"424 388 OFFCURVE",
"379 388 CURVE SMOOTH",
"162 388 LINE",
"162 348 LINE",
"379 348 LINE SMOOTH",
"424 348 OFFCURVE",
"427 300 OFFCURVE",
"431 251 CURVE"
);
},
{
closed = 1;
nodes = (
"294 868 LINE SMOOTH",
"302 874 OFFCURVE",
"312 879 OFFCURVE",
"318 879 CURVE SMOOTH",
"324 879 OFFCURVE",
"332 874 OFFCURVE",
"341 868 CURVE",
"449 782 LINE",
"468 803 LINE",
"344 932 LINE",
"291 932 LINE",
"167 803 LINE",
"186 782 LINE"
);
}
);
};
components = (
{
name = E;
},
{
name = dotbelowcomb;
transform = "{1, 0, 0, 1, 338, 0}";
},
{
name = circumflexcomb;
transform = "{1, 0, 0, 1, 338, 200}";
}
);
layerId = "2F8C22CF-EC86-44F4-AF1A-A6C7F26A0C3C";
width = 630;
}
);
note = Ecircumflexdotbelow;
unicode = 1EC6;
},
{
glyphname = Ecircumflexgrave;
lastChange = "2018-03-05 10:38:19 +0000";
layers = (
{
background = {
paths = (
{
closed = 1;
nodes = (
"554 0 LINE",
"571 179 LINE",
"544 179 LINE",
"538 124 OFFCURVE",
"520 40 OFFCURVE",
"456 40 CURVE SMOOTH",
"201 40 LINE",
"201 659 LINE",
"441 659 LINE SMOOTH",
"516 659 OFFCURVE",
"525 567 OFFCURVE",
"528 527 CURVE",
"555 527 LINE",
"555 700 LINE",
"16 700 LINE",
"16 673 LINE",
"44 673 LINE SMOOTH",
"83 673 OFFCURVE",
"103 662 OFFCURVE",
"103 637 CURVE SMOOTH",
"103 62 LINE SMOOTH",
"103 37 OFFCURVE",
"83 26 OFFCURVE",
"44 26 CURVE SMOOTH",
"16 26 LINE",
"16 0 LINE"
);
},
{
closed = 1;
nodes = (
"455 251 LINE",
"455 485 LINE",
"431 485 LINE",
"427 436 OFFCURVE",
"424 388 OFFCURVE",
"379 388 CURVE SMOOTH",
"162 388 LINE",
"162 348 LINE",
"379 348 LINE SMOOTH",
"424 348 OFFCURVE",
"427 300 OFFCURVE",
"431 251 CURVE"
);
},
{
closed = 1;
nodes = (
"227 915 LINE",
"132 1008 LINE SMOOTH",
"122 1018 OFFCURVE",
"105 1034 OFFCURVE",
"85 1034 CURVE SMOOTH",
"63 1034 OFFCURVE",
"52 1017 OFFCURVE",
"52 1003 CURVE SMOOTH",
"52 988 OFFCURVE",
"65 972 OFFCURVE",
"88 960 CURVE SMOOTH",
"210 893 LINE"
);
},
{
closed = 1;
nodes = (
"290 862 LINE SMOOTH",
"300 870 OFFCURVE",
"310 878 OFFCURVE",
"318 878 CURVE SMOOTH",
"324 878 OFFCURVE",
"332 873 OFFCURVE",
"341 867 CURVE",
"447 781 LINE",
"466 803 LINE",
"344 932 LINE",
"293 932 LINE",
"171 803 LINE",
"189 781 LINE"
);
}
);
};
components = (
{
name = E;
},
{
name = circumflexcomb;
transform = "{1, 0, 0, 1, 276, 200}";
},
{
name = gravecomb;
transform = "{1, 0, 0, 1, 276, 417}";
}
);
layerId = "0B1DFD06-3317-40CA-B510-4969A0718C16";
width = 535;
},
{
background = {
paths = (
{
closed = 1;
nodes = (
"554 0 LINE",
"571 179 LINE",
"544 179 LINE",
"538 124 OFFCURVE",
"520 40 OFFCURVE",
"456 40 CURVE SMOOTH",
"201 40 LINE",
"201 659 LINE",
"441 659 LINE SMOOTH",
"516 659 OFFCURVE",
"525 567 OFFCURVE",
"528 527 CURVE",
"555 527 LINE",
"555 700 LINE",
"16 700 LINE",
"16 673 LINE",
"44 673 LINE SMOOTH",
"83 673 OFFCURVE",
"103 662 OFFCURVE",
"103 637 CURVE SMOOTH",
"103 62 LINE SMOOTH",
"103 37 OFFCURVE",
"83 26 OFFCURVE",
"44 26 CURVE SMOOTH",
"16 26 LINE",
"16 0 LINE"
);
},
{
closed = 1;
nodes = (
"455 251 LINE",
"455 485 LINE",
"431 485 LINE",
"427 436 OFFCURVE",
"424 388 OFFCURVE",
"379 388 CURVE SMOOTH",
"162 388 LINE",
"162 348 LINE",
"379 348 LINE SMOOTH",
"424 348 OFFCURVE",
"427 300 OFFCURVE",
"431 251 CURVE"
);
},
{
closed = 1;
nodes = (
"227 915 LINE",
"132 1008 LINE SMOOTH",
"122 1018 OFFCURVE",
"105 1034 OFFCURVE",
"85 1034 CURVE SMOOTH",
"63 1034 OFFCURVE",
"52 1017 OFFCURVE",
"52 1003 CURVE SMOOTH",
"52 988 OFFCURVE",
"65 972 OFFCURVE",
"88 960 CURVE SMOOTH",
"210 893 LINE"
);
},
{
closed = 1;
nodes = (
"290 862 LINE SMOOTH",
"300 870 OFFCURVE",
"310 878 OFFCURVE",
"318 878 CURVE SMOOTH",
"324 878 OFFCURVE",
"332 873 OFFCURVE",
"341 867 CURVE",
"447 781 LINE",
"466 803 LINE",
"344 932 LINE",
"293 932 LINE",
"171 803 LINE",
"189 781 LINE"
);
}
);
};
components = (
{
name = E;
},
{
name = circumflexcomb;
transform = "{1, 0, 0, 1, 338, 200}";
},
{
name = gravecomb;
transform = "{1, 0, 0, 1, 338, 479}";
}
);
layerId = "2F8C22CF-EC86-44F4-AF1A-A6C7F26A0C3C";
width = 630;
}
);
note = Ecircumflexgrave;
unicode = 1EC0;
},
{
glyphname = Ecircumflexhookabove;
lastChange = "2018-03-05 10:38:19 +0000";
layers = (
{
background = {
paths = (
{
closed = 1;
nodes = (
"554 0 LINE",
"571 179 LINE",
"544 179 LINE",
"538 124 OFFCURVE",
"520 40 OFFCURVE",
"456 40 CURVE SMOOTH",
"201 40 LINE",
"201 659 LINE",
"441 659 LINE SMOOTH",
"516 659 OFFCURVE",
"525 567 OFFCURVE",
"528 527 CURVE",
"555 527 LINE",
"555 700 LINE",
"16 700 LINE",
"16 673 LINE",
"44 673 LINE SMOOTH",
"83 673 OFFCURVE",
"103 662 OFFCURVE",
"103 637 CURVE SMOOTH",
"103 62 LINE SMOOTH",
"103 37 OFFCURVE",
"83 26 OFFCURVE",
"44 26 CURVE SMOOTH",
"16 26 LINE",
"16 0 LINE"
);
},
{
closed = 1;
nodes = (
"455 251 LINE",
"455 485 LINE",
"431 485 LINE",
"427 436 OFFCURVE",
"424 388 OFFCURVE",
"379 388 CURVE SMOOTH",
"162 388 LINE",
"162 348 LINE",
"379 348 LINE SMOOTH",
"424 348 OFFCURVE",
"427 300 OFFCURVE",
"431 251 CURVE"
);
},
{
closed = 1;
nodes = (
"286 858 LINE",
"297 868 OFFCURVE",
"309 878 OFFCURVE",
"318 878 CURVE SMOOTH",
"324 878 OFFCURVE",
"332 873 OFFCURVE",
"341 867 CURVE",
"447 781 LINE",
"466 803 LINE",
"344 932 LINE",
"293 932 LINE",
"171 803 LINE",
"189 781 LINE"
);
},
{
closed = 1;
nodes = (
"493 898 LINE",
"474 905 OFFCURVE",
"464 912 OFFCURVE",
"464 926 CURVE SMOOTH",
"464 954 OFFCURVE",
"544 965 OFFCURVE",
"544 1010 CURVE SMOOTH",
"544 1047 OFFCURVE",
"502 1063 OFFCURVE",
"460 1063 CURVE SMOOTH",
"429 1063 OFFCURVE",
"384 1053 OFFCURVE",
"384 1022 CURVE SMOOTH",
"384 1010 OFFCURVE",
"395 1001 OFFCURVE",
"405 1001 CURVE SMOOTH",
"434 1001 OFFCURVE",
"421 1040 OFFCURVE",
"464 1040 CURVE SMOOTH",
"483 1040 OFFCURVE",
"494 1028 OFFCURVE",
"494 1013 CURVE SMOOTH",
"494 973 OFFCURVE",
"421 965 OFFCURVE",
"421 925 CURVE SMOOTH",
"421 901 OFFCURVE",
"437 880 OFFCURVE",
"484 880 CURVE"
);
}
);
};
components = (
{
name = E;
},
{
name = circumflexcomb;
transform = "{1, 0, 0, 1, 276, 200}";
},
{
name = hookabovecomb;
transform = "{1, 0, 0, 1, 276, 417}";
}
);
layerId = "0B1DFD06-3317-40CA-B510-4969A0718C16";
width = 535;
},
{
background = {
paths = (
{
closed = 1;
nodes = (
"554 0 LINE",
"571 179 LINE",
"544 179 LINE",
"538 124 OFFCURVE",
"520 40 OFFCURVE",
"456 40 CURVE SMOOTH",
"201 40 LINE",
"201 659 LINE",
"441 659 LINE SMOOTH",
"516 659 OFFCURVE",
"525 567 OFFCURVE",
"528 527 CURVE",
"555 527 LINE",
"555 700 LINE",
"16 700 LINE",
"16 673 LINE",
"44 673 LINE SMOOTH",
"83 673 OFFCURVE",
"103 662 OFFCURVE",
"103 637 CURVE SMOOTH",
"103 62 LINE SMOOTH",
"103 37 OFFCURVE",
"83 26 OFFCURVE",
"44 26 CURVE SMOOTH",
"16 26 LINE",
"16 0 LINE"
);
},
{
closed = 1;
nodes = (
"455 251 LINE",
"455 485 LINE",
"431 485 LINE",
"427 436 OFFCURVE",
"424 388 OFFCURVE",
"379 388 CURVE SMOOTH",
"162 388 LINE",
"162 348 LINE",
"379 348 LINE SMOOTH",
"424 348 OFFCURVE",
"427 300 OFFCURVE",
"431 251 CURVE"
);
},
{
closed = 1;
nodes = (
"286 858 LINE",
"297 868 OFFCURVE",
"309 878 OFFCURVE",
"318 878 CURVE SMOOTH",
"324 878 OFFCURVE",
"332 873 OFFCURVE",
"341 867 CURVE",
"447 781 LINE",
"466 803 LINE",
"344 932 LINE",
"293 932 LINE",
"171 803 LINE",
"189 781 LINE"
);
},
{
closed = 1;
nodes = (
"493 898 LINE",
"474 905 OFFCURVE",
"464 912 OFFCURVE",
"464 926 CURVE SMOOTH",
"464 954 OFFCURVE",
"544 965 OFFCURVE",
"544 1010 CURVE SMOOTH",
"544 1047 OFFCURVE",
"502 1063 OFFCURVE",
"460 1063 CURVE SMOOTH",
"429 1063 OFFCURVE",
"384 1053 OFFCURVE",
"384 1022 CURVE SMOOTH",
"384 1010 OFFCURVE",
"395 1001 OFFCURVE",
"405 1001 CURVE SMOOTH",
"434 1001 OFFCURVE",
"421 1040 OFFCURVE",
"464 1040 CURVE SMOOTH",
"483 1040 OFFCURVE",
"494 1028 OFFCURVE",
"494 1013 CURVE SMOOTH",
"494 973 OFFCURVE",
"421 965 OFFCURVE",
"421 925 CURVE SMOOTH",
"421 901 OFFCURVE",
"437 880 OFFCURVE",
"484 880 CURVE"
);
}
);
};
components = (
{
name = E;
},
{
name = circumflexcomb;
transform = "{1, 0, 0, 1, 338, 200}";
},
{
name = hookabovecomb;
transform = "{1, 0, 0, 1, 338, 479}";
}
);
layerId = "2F8C22CF-EC86-44F4-AF1A-A6C7F26A0C3C";
width = 630;
}
);
note = Ecircumflexhookabove;
unicode = 1EC2;
},
{
glyphname = Ecircumflextilde;
lastChange = "2018-03-05 10:38:19 +0000";
layers = (
{
background = {
paths = (
{
closed = 1;
nodes = (
"554 0 LINE",
"571 179 LINE",
"544 179 LINE",
"538 124 OFFCURVE",
"520 40 OFFCURVE",
"456 40 CURVE SMOOTH",
"201 40 LINE",
"201 659 LINE",
"441 659 LINE SMOOTH",
"516 659 OFFCURVE",
"525 567 OFFCURVE",
"528 527 CURVE",
"555 527 LINE",
"555 700 LINE",
"16 700 LINE",
"16 673 LINE",
"44 673 LINE SMOOTH",
"83 673 OFFCURVE",
"103 662 OFFCURVE",
"103 637 CURVE SMOOTH",
"103 62 LINE SMOOTH",
"103 37 OFFCURVE",
"83 26 OFFCURVE",
"44 26 CURVE SMOOTH",
"16 26 LINE",
"16 0 LINE"
);
},
{
closed = 1;
nodes = (
"455 251 LINE",
"455 485 LINE",
"431 485 LINE",
"427 436 OFFCURVE",
"424 388 OFFCURVE",
"379 388 CURVE SMOOTH",
"162 388 LINE",
"162 348 LINE",
"379 348 LINE SMOOTH",
"424 348 OFFCURVE",
"427 300 OFFCURVE",
"431 251 CURVE"
);
},
{
closed = 1;
nodes = (
"290 862 LINE SMOOTH",
"300 870 OFFCURVE",
"310 878 OFFCURVE",
"318 878 CURVE SMOOTH",
"324 878 OFFCURVE",
"332 873 OFFCURVE",
"341 867 CURVE",
"447 781 LINE",
"466 803 LINE",
"344 932 LINE",
"293 932 LINE",
"171 803 LINE",
"189 781 LINE"
);
},
{
closed = 1;
nodes = (
"193 997 OFFCURVE",
"211 1018 OFFCURVE",
"242 1018 CURVE SMOOTH",
"291 1018 OFFCURVE",
"338 964 OFFCURVE",
"387 964 CURVE SMOOTH",
"440 964 OFFCURVE",
"469 1012 OFFCURVE",
"481 1063 CURVE",
"460 1075 LINE",
"447 1035 OFFCURVE",
"431 1012 OFFCURVE",
"398 1012 CURVE SMOOTH",
"351 1012 OFFCURVE",
"302 1065 OFFCURVE",
"253 1065 CURVE SMOOTH",
"202 1065 OFFCURVE",
"170 1021 OFFCURVE",
"160 970 CURVE",
"180 958 LINE"
);
}
);
};
components = (
{
name = E;
},
{
name = circumflexcomb;
transform = "{1, 0, 0, 1, 276, 200}";
},
{
name = tildecomb;
transform = "{1, 0, 0, 1, 276, 417}";
}
);
layerId = "0B1DFD06-3317-40CA-B510-4969A0718C16";
width = 535;
},
{
background = {
paths = (
{
closed = 1;
nodes = (
"554 0 LINE",
"571 179 LINE",
"544 179 LINE",
"538 124 OFFCURVE",
"520 40 OFFCURVE",
"456 40 CURVE SMOOTH",
"201 40 LINE",
"201 659 LINE",
"441 659 LINE SMOOTH",
"516 659 OFFCURVE",
"525 567 OFFCURVE",
"528 527 CURVE",
"555 527 LINE",
"555 700 LINE",
"16 700 LINE",
"16 673 LINE",
"44 673 LINE SMOOTH",
"83 673 OFFCURVE",
"103 662 OFFCURVE",
"103 637 CURVE SMOOTH",
"103 62 LINE SMOOTH",
"103 37 OFFCURVE",
"83 26 OFFCURVE",
"44 26 CURVE SMOOTH",
"16 26 LINE",
"16 0 LINE"
);
},
{
closed = 1;
nodes = (
"455 251 LINE",
"455 485 LINE",
"431 485 LINE",
"427 436 OFFCURVE",
"424 388 OFFCURVE",
"379 388 CURVE SMOOTH",
"162 388 LINE",
"162 348 LINE",
"379 348 LINE SMOOTH",
"424 348 OFFCURVE",
"427 300 OFFCURVE",
"431 251 CURVE"
);
},
{
closed = 1;
nodes = (
"290 862 LINE SMOOTH",
"300 870 OFFCURVE",
"310 878 OFFCURVE",
"318 878 CURVE SMOOTH",
"324 878 OFFCURVE",
"332 873 OFFCURVE",
"341 867 CURVE",
"447 781 LINE",
"466 803 LINE",
"344 932 LINE",
"293 932 LINE",
"171 803 LINE",
"189 781 LINE"
);
},
{
closed = 1;
nodes = (
"193 997 OFFCURVE",
"211 1018 OFFCURVE",
"242 1018 CURVE SMOOTH",
"291 1018 OFFCURVE",
"338 964 OFFCURVE",
"387 964 CURVE SMOOTH",
"440 964 OFFCURVE",
"469 1012 OFFCURVE",
"481 1063 CURVE",
"460 1075 LINE",
"447 1035 OFFCURVE",
"431 1012 OFFCURVE",
"398 1012 CURVE SMOOTH",
"351 1012 OFFCURVE",
"302 1065 OFFCURVE",
"253 1065 CURVE SMOOTH",
"202 1065 OFFCURVE",
"170 1021 OFFCURVE",
"160 970 CURVE",
"180 958 LINE"
);
}
);
};
components = (
{
name = E;
},
{
name = circumflexcomb;
transform = "{1, 0, 0, 1, 338, 200}";
},
{
name = tildecomb;
transform = "{1, 0, 0, 1, 338, 479}";
}
);
layerId = "2F8C22CF-EC86-44F4-AF1A-A6C7F26A0C3C";
width = 630;
}
);
note = Ecircumflextilde;
unicode = 1EC4;
},
{
glyphname = Edieresis;
lastChange = "2018-03-05 10:38:19 +0000";
layers = (
{
background = {
paths = (
{
closed = 1;
nodes = (
"554 0 LINE",
"571 179 LINE",
"544 179 LINE",
"538 124 OFFCURVE",
"520 40 OFFCURVE",
"456 40 CURVE SMOOTH",
"201 40 LINE",
"201 659 LINE",
"441 659 LINE SMOOTH",
"516 659 OFFCURVE",
"525 567 OFFCURVE",
"528 527 CURVE",
"555 527 LINE",
"555 700 LINE",
"16 700 LINE",
"16 673 LINE",
"44 673 LINE SMOOTH",
"83 673 OFFCURVE",
"103 662 OFFCURVE",
"103 637 CURVE SMOOTH",
"103 62 LINE SMOOTH",
"103 37 OFFCURVE",
"83 26 OFFCURVE",
"44 26 CURVE SMOOTH",
"16 26 LINE",
"16 0 LINE"
);
},
{
closed = 1;
nodes = (
"455 251 LINE",
"455 485 LINE",
"431 485 LINE",
"427 436 OFFCURVE",
"424 388 OFFCURVE",
"379 388 CURVE SMOOTH",
"162 388 LINE",
"162 348 LINE",
"379 348 LINE SMOOTH",
"424 348 OFFCURVE",
"427 300 OFFCURVE",
"431 251 CURVE"
);
},
{
closed = 1;
nodes = (
"254 781 OFFCURVE",
"272 800 OFFCURVE",
"272 827 CURVE SMOOTH",
"272 855 OFFCURVE",
"254 875 OFFCURVE",
"225 875 CURVE SMOOTH",
"197 875 OFFCURVE",
"179 855 OFFCURVE",
"179 827 CURVE SMOOTH",
"179 800 OFFCURVE",
"197 781 OFFCURVE",
"225 781 CURVE SMOOTH"
);
},
{
closed = 1;
nodes = (
"470 781 OFFCURVE",
"488 800 OFFCURVE",
"488 827 CURVE SMOOTH",
"488 855 OFFCURVE",
"470 875 OFFCURVE",
"441 875 CURVE SMOOTH",
"412 875 OFFCURVE",
"394 855 OFFCURVE",
"394 827 CURVE SMOOTH",
"394 800 OFFCURVE",
"412 781 OFFCURVE",
"441 781 CURVE SMOOTH"
);
}
);
};
components = (
{
name = E;
},
{
name = dieresiscomb;
transform = "{1, 0, 0, 1, 276, 200}";
}
);
layerId = "0B1DFD06-3317-40CA-B510-4969A0718C16";
width = 535;
},
{
background = {
paths = (
{
closed = 1;
nodes = (
"554 0 LINE",
"571 179 LINE",
"544 179 LINE",
"538 124 OFFCURVE",
"520 40 OFFCURVE",
"456 40 CURVE SMOOTH",
"201 40 LINE",
"201 659 LINE",
"441 659 LINE SMOOTH",
"516 659 OFFCURVE",
"525 567 OFFCURVE",
"528 527 CURVE",
"555 527 LINE",
"555 700 LINE",
"16 700 LINE",
"16 673 LINE",
"44 673 LINE SMOOTH",
"83 673 OFFCURVE",
"103 662 OFFCURVE",
"103 637 CURVE SMOOTH",
"103 62 LINE SMOOTH",
"103 37 OFFCURVE",
"83 26 OFFCURVE",
"44 26 CURVE SMOOTH",
"16 26 LINE",
"16 0 LINE"
);
},
{
closed = 1;
nodes = (
"455 251 LINE",
"455 485 LINE",
"431 485 LINE",
"427 436 OFFCURVE",
"424 388 OFFCURVE",
"379 388 CURVE SMOOTH",
"162 388 LINE",
"162 348 LINE",
"379 348 LINE SMOOTH",
"424 348 OFFCURVE",
"427 300 OFFCURVE",
"431 251 CURVE"
);
},
{
closed = 1;
nodes = (
"254 781 OFFCURVE",
"272 800 OFFCURVE",
"272 827 CURVE SMOOTH",
"272 855 OFFCURVE",
"254 875 OFFCURVE",
"225 875 CURVE SMOOTH",
"197 875 OFFCURVE",
"179 855 OFFCURVE",
"179 827 CURVE SMOOTH",
"179 800 OFFCURVE",
"197 781 OFFCURVE",
"225 781 CURVE SMOOTH"
);
},
{
closed = 1;
nodes = (
"470 781 OFFCURVE",
"488 800 OFFCURVE",
"488 827 CURVE SMOOTH",
"488 855 OFFCURVE",
"470 875 OFFCURVE",
"441 875 CURVE SMOOTH",
"412 875 OFFCURVE",
"394 855 OFFCURVE",
"394 827 CURVE SMOOTH",
"394 800 OFFCURVE",
"412 781 OFFCURVE",
"441 781 CURVE SMOOTH"
);
}
);
};
components = (
{
name = E;
},
{
name = dieresiscomb;
transform = "{1, 0, 0, 1, 338, 200}";
}
);
layerId = "2F8C22CF-EC86-44F4-AF1A-A6C7F26A0C3C";
width = 630;
}
);
note = Edieresis;
unicode = 00CB;
},
{
glyphname = Edotaccent;
lastChange = "2018-03-05 10:38:19 +0000";
layers = (
{
background = {
paths = (
{
closed = 1;
nodes = (
"554 0 LINE",
"571 179 LINE",
"544 179 LINE",
"538 124 OFFCURVE",
"520 40 OFFCURVE",
"456 40 CURVE SMOOTH",
"201 40 LINE",
"201 659 LINE",
"441 659 LINE SMOOTH",
"516 659 OFFCURVE",
"525 567 OFFCURVE",
"528 527 CURVE",
"555 527 LINE",
"555 700 LINE",
"16 700 LINE",
"16 673 LINE",
"44 673 LINE SMOOTH",
"83 673 OFFCURVE",
"103 662 OFFCURVE",
"103 637 CURVE SMOOTH",
"103 62 LINE SMOOTH",
"103 37 OFFCURVE",
"83 26 OFFCURVE",
"44 26 CURVE SMOOTH",
"16 26 LINE",
"16 0 LINE"
);
},
{
closed = 1;
nodes = (
"455 251 LINE",
"455 485 LINE",
"431 485 LINE",
"427 436 OFFCURVE",
"424 388 OFFCURVE",
"379 388 CURVE SMOOTH",
"162 388 LINE",
"162 348 LINE",
"379 348 LINE SMOOTH",
"424 348 OFFCURVE",
"427 300 OFFCURVE",
"431 251 CURVE"
);
},
{
closed = 1;
nodes = (
"362 765 OFFCURVE",
"380 784 OFFCURVE",
"380 811 CURVE SMOOTH",
"380 839 OFFCURVE",
"362 858 OFFCURVE",
"334 858 CURVE SMOOTH",
"305 858 OFFCURVE",
"287 839 OFFCURVE",
"287 811 CURVE SMOOTH",
"287 784 OFFCURVE",
"305 765 OFFCURVE",
"334 765 CURVE SMOOTH"
);
}
);
};
components = (
{
name = E;
},
{
name = dotaccentcomb;
transform = "{1, 0, 0, 1, 276, 200}";
}
);
layerId = "0B1DFD06-3317-40CA-B510-4969A0718C16";
width = 535;
},
{
background = {
paths = (
{
closed = 1;
nodes = (
"554 0 LINE",
"571 179 LINE",
"544 179 LINE",
"538 124 OFFCURVE",
"520 40 OFFCURVE",
"456 40 CURVE SMOOTH",
"201 40 LINE",
"201 659 LINE",
"441 659 LINE SMOOTH",
"516 659 OFFCURVE",
"525 567 OFFCURVE",
"528 527 CURVE",
"555 527 LINE",
"555 700 LINE",
"16 700 LINE",
"16 673 LINE",
"44 673 LINE SMOOTH",
"83 673 OFFCURVE",
"103 662 OFFCURVE",
"103 637 CURVE SMOOTH",
"103 62 LINE SMOOTH",
"103 37 OFFCURVE",
"83 26 OFFCURVE",
"44 26 CURVE SMOOTH",
"16 26 LINE",
"16 0 LINE"
);
},
{
closed = 1;
nodes = (
"455 251 LINE",
"455 485 LINE",
"431 485 LINE",
"427 436 OFFCURVE",
"424 388 OFFCURVE",
"379 388 CURVE SMOOTH",
"162 388 LINE",
"162 348 LINE",
"379 348 LINE SMOOTH",
"424 348 OFFCURVE",
"427 300 OFFCURVE",
"431 251 CURVE"
);
},
{
closed = 1;
nodes = (
"362 765 OFFCURVE",
"380 784 OFFCURVE",
"380 811 CURVE SMOOTH",
"380 839 OFFCURVE",
"362 858 OFFCURVE",
"334 858 CURVE SMOOTH",
"305 858 OFFCURVE",
"287 839 OFFCURVE",
"287 811 CURVE SMOOTH",
"287 784 OFFCURVE",
"305 765 OFFCURVE",
"334 765 CURVE SMOOTH"
);
}
);
};
components = (
{
name = E;
},
{
name = dotaccentcomb;
transform = "{1, 0, 0, 1, 339, 200}";
}
);
layerId = "2F8C22CF-EC86-44F4-AF1A-A6C7F26A0C3C";
width = 630;
}
);
note = Edotaccent;
unicode = 0116;
},
{
glyphname = Edotbelow;
lastChange = "2018-03-05 10:38:19 +0000";
layers = (
{
background = {
paths = (
{
closed = 1;
nodes = (
"554 0 LINE",
"571 179 LINE",
"544 179 LINE",
"538 124 OFFCURVE",
"520 40 OFFCURVE",
"456 40 CURVE SMOOTH",
"201 40 LINE",
"201 659 LINE",
"441 659 LINE SMOOTH",
"516 659 OFFCURVE",
"525 567 OFFCURVE",
"528 527 CURVE",
"555 527 LINE",
"555 700 LINE",
"16 700 LINE",
"16 673 LINE",
"44 673 LINE SMOOTH",
"83 673 OFFCURVE",
"103 662 OFFCURVE",
"103 637 CURVE SMOOTH",
"103 62 LINE SMOOTH",
"103 37 OFFCURVE",
"83 26 OFFCURVE",
"44 26 CURVE SMOOTH",
"16 26 LINE",
"16 0 LINE"
);
},
{
closed = 1;
nodes = (
"343 -159 OFFCURVE",
"361 -140 OFFCURVE",
"361 -112 CURVE SMOOTH",
"361 -84 OFFCURVE",
"343 -64 OFFCURVE",
"315 -64 CURVE SMOOTH",
"287 -64 OFFCURVE",
"268 -84 OFFCURVE",
"268 -112 CURVE SMOOTH",
"268 -140 OFFCURVE",
"287 -159 OFFCURVE",
"315 -159 CURVE SMOOTH"
);
},
{
closed = 1;
nodes = (
"455 251 LINE",
"455 485 LINE",
"431 485 LINE",
"427 436 OFFCURVE",
"424 388 OFFCURVE",
"379 388 CURVE SMOOTH",
"162 388 LINE",
"162 348 LINE",
"379 348 LINE SMOOTH",
"424 348 OFFCURVE",
"427 300 OFFCURVE",
"431 251 CURVE"
);
}
);
};
components = (
{
name = E;
},
{
name = dotbelowcomb;
transform = "{1, 0, 0, 1, 276, 0}";
}
);
layerId = "0B1DFD06-3317-40CA-B510-4969A0718C16";
width = 535;
},
{
background = {
paths = (
{
closed = 1;
nodes = (
"554 0 LINE",
"571 179 LINE",
"544 179 LINE",
"538 124 OFFCURVE",
"520 40 OFFCURVE",
"456 40 CURVE SMOOTH",
"201 40 LINE",
"201 659 LINE",
"441 659 LINE SMOOTH",
"516 659 OFFCURVE",
"525 567 OFFCURVE",
"528 527 CURVE",
"555 527 LINE",
"555 700 LINE",
"16 700 LINE",
"16 673 LINE",
"44 673 LINE SMOOTH",
"83 673 OFFCURVE",
"103 662 OFFCURVE",
"103 637 CURVE SMOOTH",
"103 62 LINE SMOOTH",
"103 37 OFFCURVE",
"83 26 OFFCURVE",
"44 26 CURVE SMOOTH",
"16 26 LINE",
"16 0 LINE"
);
},
{
closed = 1;
nodes = (
"343 -159 OFFCURVE",
"361 -140 OFFCURVE",
"361 -112 CURVE SMOOTH",
"361 -84 OFFCURVE",
"343 -64 OFFCURVE",
"315 -64 CURVE SMOOTH",
"287 -64 OFFCURVE",
"268 -84 OFFCURVE",
"268 -112 CURVE SMOOTH",
"268 -140 OFFCURVE",
"287 -159 OFFCURVE",
"315 -159 CURVE SMOOTH"
);
},
{
closed = 1;
nodes = (
"455 251 LINE",
"455 485 LINE",
"431 485 LINE",
"427 436 OFFCURVE",
"424 388 OFFCURVE",
"379 388 CURVE SMOOTH",
"162 388 LINE",
"162 348 LINE",
"379 348 LINE SMOOTH",
"424 348 OFFCURVE",
"427 300 OFFCURVE",
"431 251 CURVE"
);
}
);
};
components = (
{
name = E;
},
{
name = dotbelowcomb;
transform = "{1, 0, 0, 1, 338, 0}";
}
);
layerId = "2F8C22CF-EC86-44F4-AF1A-A6C7F26A0C3C";
width = 630;
}
);
note = Edotbelow;
unicode = 1EB8;
},
{
glyphname = Egrave;
lastChange = "2018-03-05 10:38:19 +0000";
layers = (
{
background = {
paths = (
{
closed = 1;
nodes = (
"554 0 LINE",
"571 179 LINE",
"544 179 LINE",
"538 124 OFFCURVE",
"520 40 OFFCURVE",
"456 40 CURVE SMOOTH",
"201 40 LINE",
"201 659 LINE",
"441 659 LINE SMOOTH",
"516 659 OFFCURVE",
"525 567 OFFCURVE",
"528 527 CURVE",
"555 527 LINE",
"555 700 LINE",
"16 700 LINE",
"16 673 LINE",
"44 673 LINE SMOOTH",
"83 673 OFFCURVE",
"103 662 OFFCURVE",
"103 637 CURVE SMOOTH",
"103 62 LINE SMOOTH",
"103 37 OFFCURVE",
"83 26 OFFCURVE",
"44 26 CURVE SMOOTH",
"16 26 LINE",
"16 0 LINE"
);
},
{
closed = 1;
nodes = (
"455 251 LINE",
"455 485 LINE",
"431 485 LINE",
"427 436 OFFCURVE",
"424 388 OFFCURVE",
"379 388 CURVE SMOOTH",
"162 388 LINE",
"162 348 LINE",
"379 348 LINE SMOOTH",
"424 348 OFFCURVE",
"427 300 OFFCURVE",
"431 251 CURVE"
);
},
{
closed = 1;
nodes = (
"425 807 LINE",
"310 913 LINE",
"301 922 OFFCURVE",
"285 937 OFFCURVE",
"265 937 CURVE SMOOTH",
"245 937 OFFCURVE",
"233 924 OFFCURVE",
"233 908 CURVE SMOOTH",
"233 890 OFFCURVE",
"245 876 OFFCURVE",
"264 865 CURVE SMOOTH",
"407 782 LINE"
);
}
);
};
components = (
{
name = E;
},
{
name = gravecomb;
transform = "{1, 0, 0, 1, 276, 200}";
}
);
layerId = "0B1DFD06-3317-40CA-B510-4969A0718C16";
width = 535;
},
{
background = {
paths = (
{
closed = 1;
nodes = (
"554 0 LINE",
"571 179 LINE",
"544 179 LINE",
"538 124 OFFCURVE",
"520 40 OFFCURVE",
"456 40 CURVE SMOOTH",
"201 40 LINE",
"201 659 LINE",
"441 659 LINE SMOOTH",
"516 659 OFFCURVE",
"525 567 OFFCURVE",
"528 527 CURVE",
"555 527 LINE",
"555 700 LINE",
"16 700 LINE",
"16 673 LINE",
"44 673 LINE SMOOTH",
"83 673 OFFCURVE",
"103 662 OFFCURVE",
"103 637 CURVE SMOOTH",
"103 62 LINE SMOOTH",
"103 37 OFFCURVE",
"83 26 OFFCURVE",
"44 26 CURVE SMOOTH",
"16 26 LINE",
"16 0 LINE"
);
},
{
closed = 1;
nodes = (
"455 251 LINE",
"455 485 LINE",
"431 485 LINE",
"427 436 OFFCURVE",
"424 388 OFFCURVE",
"379 388 CURVE SMOOTH",
"162 388 LINE",
"162 348 LINE",
"379 348 LINE SMOOTH",
"424 348 OFFCURVE",
"427 300 OFFCURVE",
"431 251 CURVE"
);
},
{
closed = 1;
nodes = (
"425 807 LINE",
"310 913 LINE",
"301 922 OFFCURVE",
"285 937 OFFCURVE",
"265 937 CURVE SMOOTH",
"245 937 OFFCURVE",
"233 924 OFFCURVE",
"233 908 CURVE SMOOTH",
"233 890 OFFCURVE",
"245 876 OFFCURVE",
"264 865 CURVE SMOOTH",
"407 782 LINE"
);
}
);
};
components = (
{
name = E;
},
{
name = gravecomb;
transform = "{1, 0, 0, 1, 338, 200}";
}
);
layerId = "2F8C22CF-EC86-44F4-AF1A-A6C7F26A0C3C";
width = 630;
}
);
note = Egrave;
unicode = 00C8;
},
{
glyphname = Ehookabove;
lastChange = "2018-03-05 10:38:19 +0000";
layers = (
{
background = {
paths = (
{
closed = 1;
nodes = (
"554 0 LINE",
"571 179 LINE",
"544 179 LINE",
"538 124 OFFCURVE",
"520 40 OFFCURVE",
"456 40 CURVE SMOOTH",
"201 40 LINE",
"201 659 LINE",
"441 659 LINE SMOOTH",
"516 659 OFFCURVE",
"525 567 OFFCURVE",
"528 527 CURVE",
"555 527 LINE",
"555 700 LINE",
"16 700 LINE",
"16 673 LINE",
"44 673 LINE SMOOTH",
"83 673 OFFCURVE",
"103 662 OFFCURVE",
"103 637 CURVE SMOOTH",
"103 62 LINE SMOOTH",
"103 37 OFFCURVE",
"83 26 OFFCURVE",
"44 26 CURVE SMOOTH",
"16 26 LINE",
"16 0 LINE"
);
},
{
closed = 1;
nodes = (
"455 251 LINE",
"455 485 LINE",
"431 485 LINE",
"427 436 OFFCURVE",
"424 388 OFFCURVE",
"379 388 CURVE SMOOTH",
"162 388 LINE",
"162 348 LINE",
"379 348 LINE SMOOTH",
"424 348 OFFCURVE",
"427 300 OFFCURVE",
"431 251 CURVE"
);
},
{
closed = 1;
nodes = (
"367 798 LINE",
"348 805 OFFCURVE",
"336 811 OFFCURVE",
"336 828 CURVE SMOOTH",
"336 861 OFFCURVE",
"425 876 OFFCURVE",
"425 927 CURVE SMOOTH",
"425 969 OFFCURVE",
"389 991 OFFCURVE",
"336 991 CURVE SMOOTH",
"289 991 OFFCURVE",
"248 974 OFFCURVE",
"248 940 CURVE SMOOTH",
"248 923 OFFCURVE",
"256 915 OFFCURVE",
"271 915 CURVE SMOOTH",
"294 915 OFFCURVE",
"296 934 OFFCURVE",
"299 942 CURVE SMOOTH",
"304 956 OFFCURVE",
"321 962 OFFCURVE",
"337 962 CURVE SMOOTH",
"358 962 OFFCURVE",
"371 947 OFFCURVE",
"371 930 CURVE SMOOTH",
"371 885 OFFCURVE",
"289 874 OFFCURVE",
"289 828 CURVE SMOOTH",
"289 801 OFFCURVE",
"307 778 OFFCURVE",
"358 778 CURVE"
);
}
);
};
components = (
{
name = E;
},
{
name = hookabovecomb;
transform = "{1, 0, 0, 1, 276, 200}";
}
);
layerId = "0B1DFD06-3317-40CA-B510-4969A0718C16";
width = 535;
},
{
background = {
paths = (
{
closed = 1;
nodes = (
"554 0 LINE",
"571 179 LINE",
"544 179 LINE",
"538 124 OFFCURVE",
"520 40 OFFCURVE",
"456 40 CURVE SMOOTH",
"201 40 LINE",
"201 659 LINE",
"441 659 LINE SMOOTH",
"516 659 OFFCURVE",
"525 567 OFFCURVE",
"528 527 CURVE",
"555 527 LINE",
"555 700 LINE",
"16 700 LINE",
"16 673 LINE",
"44 673 LINE SMOOTH",
"83 673 OFFCURVE",
"103 662 OFFCURVE",
"103 637 CURVE SMOOTH",
"103 62 LINE SMOOTH",
"103 37 OFFCURVE",
"83 26 OFFCURVE",
"44 26 CURVE SMOOTH",
"16 26 LINE",
"16 0 LINE"
);
},
{
closed = 1;
nodes = (
"455 251 LINE",
"455 485 LINE",
"431 485 LINE",
"427 436 OFFCURVE",
"424 388 OFFCURVE",
"379 388 CURVE SMOOTH",
"162 388 LINE",
"162 348 LINE",
"379 348 LINE SMOOTH",
"424 348 OFFCURVE",
"427 300 OFFCURVE",
"431 251 CURVE"
);
},
{
closed = 1;
nodes = (
"367 798 LINE",
"348 805 OFFCURVE",
"336 811 OFFCURVE",
"336 828 CURVE SMOOTH",
"336 861 OFFCURVE",
"425 876 OFFCURVE",
"425 927 CURVE SMOOTH",
"425 969 OFFCURVE",
"389 991 OFFCURVE",
"336 991 CURVE SMOOTH",
"289 991 OFFCURVE",
"248 974 OFFCURVE",
"248 940 CURVE SMOOTH",
"248 923 OFFCURVE",
"256 915 OFFCURVE",
"271 915 CURVE SMOOTH",
"294 915 OFFCURVE",
"296 934 OFFCURVE",
"299 942 CURVE SMOOTH",
"304 956 OFFCURVE",
"321 962 OFFCURVE",
"337 962 CURVE SMOOTH",
"358 962 OFFCURVE",
"371 947 OFFCURVE",
"371 930 CURVE SMOOTH",
"371 885 OFFCURVE",
"289 874 OFFCURVE",
"289 828 CURVE SMOOTH",
"289 801 OFFCURVE",
"307 778 OFFCURVE",
"358 778 CURVE"
);
}
);
};
components = (
{
name = E;
},
{
name = hookabovecomb;
transform = "{1, 0, 0, 1, 338, 200}";
}
);
layerId = "2F8C22CF-EC86-44F4-AF1A-A6C7F26A0C3C";
width = 630;
}
);
note = Ehookabove;
unicode = 1EBA;
},
{
glyphname = Emacron;
lastChange = "2018-03-05 10:38:19 +0000";
layers = (
{
background = {
paths = (
{
closed = 1;
nodes = (
"554 0 LINE",
"571 179 LINE",
"544 179 LINE",
"538 124 OFFCURVE",
"520 40 OFFCURVE",
"456 40 CURVE SMOOTH",
"201 40 LINE",
"201 659 LINE",
"441 659 LINE SMOOTH",
"516 659 OFFCURVE",
"525 567 OFFCURVE",
"528 527 CURVE",
"555 527 LINE",
"555 700 LINE",
"16 700 LINE",
"16 673 LINE",
"44 673 LINE SMOOTH",
"83 673 OFFCURVE",
"103 662 OFFCURVE",
"103 637 CURVE SMOOTH",
"103 62 LINE SMOOTH",
"103 37 OFFCURVE",
"83 26 OFFCURVE",
"44 26 CURVE SMOOTH",
"16 26 LINE",
"16 0 LINE"
);
},
{
closed = 1;
nodes = (
"455 251 LINE",
"455 485 LINE",
"431 485 LINE",
"427 436 OFFCURVE",
"424 388 OFFCURVE",
"379 388 CURVE SMOOTH",
"162 388 LINE",
"162 348 LINE",
"379 348 LINE SMOOTH",
"424 348 OFFCURVE",
"427 300 OFFCURVE",
"431 251 CURVE"
);
},
{
closed = 1;
nodes = (
"495 782 LINE",
"495 824 LINE",
"162 824 LINE",
"162 782 LINE"
);
}
);
};
components = (
{
name = E;
},
{
name = macroncomb;
transform = "{1, 0, 0, 1, 276, 200}";
}
);
layerId = "0B1DFD06-3317-40CA-B510-4969A0718C16";
width = 535;
},
{
background = {
paths = (
{
closed = 1;
nodes = (
"554 0 LINE",
"571 179 LINE",
"544 179 LINE",
"538 124 OFFCURVE",
"520 40 OFFCURVE",
"456 40 CURVE SMOOTH",
"201 40 LINE",
"201 659 LINE",
"441 659 LINE SMOOTH",
"516 659 OFFCURVE",
"525 567 OFFCURVE",
"528 527 CURVE",
"555 527 LINE",
"555 700 LINE",
"16 700 LINE",
"16 673 LINE",
"44 673 LINE SMOOTH",
"83 673 OFFCURVE",
"103 662 OFFCURVE",
"103 637 CURVE SMOOTH",
"103 62 LINE SMOOTH",
"103 37 OFFCURVE",
"83 26 OFFCURVE",
"44 26 CURVE SMOOTH",
"16 26 LINE",
"16 0 LINE"
);
},
{
closed = 1;
nodes = (
"455 251 LINE",
"455 485 LINE",
"431 485 LINE",
"427 436 OFFCURVE",
"424 388 OFFCURVE",
"379 388 CURVE SMOOTH",
"162 388 LINE",
"162 348 LINE",
"379 348 LINE SMOOTH",
"424 348 OFFCURVE",
"427 300 OFFCURVE",
"431 251 CURVE"
);
},
{
closed = 1;
nodes = (
"495 782 LINE",
"495 824 LINE",
"162 824 LINE",
"162 782 LINE"
);
}
);
};
components = (
{
name = E;
},
{
name = macroncomb;
transform = "{1, 0, 0, 1, 338, 200}";
}
);
layerId = "2F8C22CF-EC86-44F4-AF1A-A6C7F26A0C3C";
width = 630;
}
);
note = Emacron;
unicode = 0112;
},
{
glyphname = Eogonek;
lastChange = "2018-03-05 10:38:19 +0000";
layers = (
{
anchors = (
{
name = top;
position = "{304, 700}";
}
);
background = {
paths = (
{
closed = 1;
nodes = (
"554 0 LINE",
"571 179 LINE",
"544 179 LINE",
"538 124 OFFCURVE",
"520 40 OFFCURVE",
"456 40 CURVE SMOOTH",
"201 40 LINE",
"201 659 LINE",
"441 659 LINE SMOOTH",
"516 659 OFFCURVE",
"525 567 OFFCURVE",
"528 527 CURVE",
"555 527 LINE",
"555 700 LINE",
"16 700 LINE",
"16 673 LINE",
"44 673 LINE SMOOTH",
"83 673 OFFCURVE",
"103 662 OFFCURVE",
"103 637 CURVE SMOOTH",
"103 62 LINE SMOOTH",
"103 37 OFFCURVE",
"83 26 OFFCURVE",
"44 26 CURVE SMOOTH",
"16 26 LINE",
"16 0 LINE"
);
},
{
closed = 1;
nodes = (
"496 -196 OFFCURVE",
"524 -189 OFFCURVE",
"549 -172 CURVE",
"543 -152 LINE",
"527 -158 OFFCURVE",
"510 -162 OFFCURVE",
"497 -162 CURVE SMOOTH",
"464 -162 OFFCURVE",
"437 -146 OFFCURVE",
"437 -106 CURVE SMOOTH",
"437 -66 OFFCURVE",
"464 -26 OFFCURVE",
"510 4 CURVE",
"469 4 LINE",
"416 -22 OFFCURVE",
"376 -64 OFFCURVE",
"376 -114 CURVE SMOOTH",
"376 -147 OFFCURVE",
"395 -196 OFFCURVE",
"470 -196 CURVE SMOOTH"
);
},
{
closed = 1;
nodes = (
"455 251 LINE",
"455 485 LINE",
"431 485 LINE",
"427 436 OFFCURVE",
"424 388 OFFCURVE",
"379 388 CURVE SMOOTH",
"162 388 LINE",
"162 348 LINE",
"379 348 LINE SMOOTH",
"424 348 OFFCURVE",
"427 300 OFFCURVE",
"431 251 CURVE"
);
}
);
};
components = (
{
name = E;
},
{
name = ogonekcomb;
transform = "{1, 0, 0, 1, 445, 30}";
}
);
layerId = "0B1DFD06-3317-40CA-B510-4969A0718C16";
width = 535;
},
{
anchors = (
{
name = top;
position = "{304, 700}";
}
);
background = {
paths = (
{
closed = 1;
nodes = (
"554 0 LINE",
"571 179 LINE",
"544 179 LINE",
"538 124 OFFCURVE",
"520 40 OFFCURVE",
"456 40 CURVE SMOOTH",
"201 40 LINE",
"201 659 LINE",
"441 659 LINE SMOOTH",
"516 659 OFFCURVE",
"525 567 OFFCURVE",
"528 527 CURVE",
"555 527 LINE",
"555 700 LINE",
"16 700 LINE",
"16 673 LINE",
"44 673 LINE SMOOTH",
"83 673 OFFCURVE",
"103 662 OFFCURVE",
"103 637 CURVE SMOOTH",
"103 62 LINE SMOOTH",
"103 37 OFFCURVE",
"83 26 OFFCURVE",
"44 26 CURVE SMOOTH",
"16 26 LINE",
"16 0 LINE"
);
},
{
closed = 1;
nodes = (
"496 -196 OFFCURVE",
"524 -189 OFFCURVE",
"549 -172 CURVE",
"543 -152 LINE",
"527 -158 OFFCURVE",
"510 -162 OFFCURVE",
"497 -162 CURVE SMOOTH",
"464 -162 OFFCURVE",
"437 -146 OFFCURVE",
"437 -106 CURVE SMOOTH",
"437 -66 OFFCURVE",
"464 -26 OFFCURVE",
"510 4 CURVE",
"469 4 LINE",
"416 -22 OFFCURVE",
"376 -64 OFFCURVE",
"376 -114 CURVE SMOOTH",
"376 -147 OFFCURVE",
"395 -196 OFFCURVE",
"470 -196 CURVE SMOOTH"
);
},
{
closed = 1;
nodes = (
"455 251 LINE",
"455 485 LINE",
"431 485 LINE",
"427 436 OFFCURVE",
"424 388 OFFCURVE",
"379 388 CURVE SMOOTH",
"162 388 LINE",
"162 348 LINE",
"379 348 LINE SMOOTH",
"424 348 OFFCURVE",
"427 300 OFFCURVE",
"431 251 CURVE"
);
}
);
};
components = (
{
name = E;
},
{
name = ogonekcomb;
transform = "{1, 0, 0, 1, 502, 51}";
}
);
layerId = "2F8C22CF-EC86-44F4-AF1A-A6C7F26A0C3C";
width = 630;
}
);
note = Eogonek;
unicode = 0118;
},
